<svg width="1200" height="675" viewBox="0 0 1200 675" fill="none" xmlns="http://www.w3.org/2000/svg">
<rect width="1200" height="675" fill="white"/>
<rect width="1200" height="675" fill="url(#paint0_linear_2449_8648)"/>
<path d="M92.2192 265.422H84.5392V220.622H92.2192V265.422ZM114.518 226.958C111.766 226.958 109.654 224.846 109.654 222.03C109.654 219.278 111.766 217.166 114.518 217.166C117.334 217.166 119.382 219.278 119.382 222.03C119.382 224.846 117.334 226.958 114.518 226.958ZM106.966 278.222H101.59V271.822H106.454C109.27 271.822 110.742 270.286 110.742 267.342V231.502H118.294V267.918C118.294 274.638 114.326 278.222 106.966 278.222ZM136.232 266.382C128.168 266.382 123.496 261.326 123.496 253.966V231.502H131.048V253.646C131.048 257.486 133.736 259.726 137.768 259.726C142.952 259.726 146.024 256.334 146.088 251.982V231.502H153.64V265.422H147.56L146.984 260.494C145 264.142 140.968 266.382 136.232 266.382ZM172.906 266.382C163.626 266.382 158.122 262.03 157.674 254.606H164.97C165.226 258.254 168.362 260.174 172.522 260.174C176.362 260.174 178.41 258.702 178.41 256.078C178.41 253.454 176.234 252.942 173.29 251.982L168.81 250.51C163.178 248.654 158.314 246.734 158.314 240.462C158.314 234.446 162.922 230.478 171.05 230.478C178.922 230.478 184.298 234.638 185.194 242.318H178.026C177.642 238.478 174.89 236.686 170.986 236.686C167.658 236.686 165.738 238.094 165.738 240.398C165.738 243.022 168.682 243.726 171.114 244.558L175.21 245.902C181.93 248.142 185.962 250.19 185.962 256.27C185.962 262.542 181.226 266.382 172.906 266.382ZM207.938 265.422H203.586C196.226 265.422 192.258 261.774 192.258 255.054V237.902H186.306V231.502H192.258V219.918H199.81V231.502H208.578V237.902H199.81V254.542C199.81 257.422 201.282 259.022 204.098 259.022H207.938V265.422ZM243.213 265.422H235.341L221.197 231.502H229.389L239.309 256.526L249.165 231.502H257.357L243.213 265.422ZM274.213 266.382C263.205 266.382 256.805 258.638 256.805 248.142C256.805 237.07 264.293 230.478 274.213 230.478C285.157 230.478 291.557 238.158 291.557 248.142C291.557 259.598 284.325 266.382 274.213 266.382ZM274.213 259.918C280.293 259.918 283.877 254.926 283.877 248.142C283.877 241.422 280.101 236.942 274.213 236.942C268.325 236.942 264.485 241.422 264.485 248.142C264.485 255.566 268.645 259.918 274.213 259.918ZM314.008 265.422H309.656C302.296 265.422 298.328 261.774 298.328 255.054V237.902H292.376V231.502H298.328V219.918H305.88V231.502H314.648V237.902H305.88V254.542C305.88 257.422 307.352 259.022 310.168 259.022H314.008V265.422ZM333.25 266.382C322.882 266.382 315.778 258.958 315.778 248.59C315.778 237.39 323.138 230.478 332.61 230.478C342.21 230.478 348.61 237.198 348.802 248.206V249.998H323.33C323.842 255.95 327.554 259.982 333.314 259.982C337.218 259.982 340.162 258.062 341.314 254.67H348.674C346.946 261.966 341.25 266.382 333.25 266.382ZM323.65 244.686H340.994C340.034 239.822 337.026 236.878 332.61 236.878C328.13 236.878 324.802 239.822 323.65 244.686ZM366.727 266.382C357.575 266.382 350.983 258.958 350.983 248.27C350.983 237.774 357.447 230.478 366.471 230.478C371.271 230.478 375.239 232.462 377.607 235.662V217.422H385.159V265.422H379.079L378.375 259.406C376.455 263.694 372.231 266.382 366.727 266.382ZM368.135 259.982C373.703 259.982 377.607 255.118 377.607 248.206C377.607 241.486 373.767 236.814 368.263 236.814C362.631 236.814 358.727 241.55 358.727 248.334C358.727 255.182 362.567 259.982 368.135 259.982ZM422.516 265.422H418.164C410.804 265.422 406.836 261.774 406.836 255.054V237.902H400.884V231.502H406.836V219.918H414.388V231.502H423.156V237.902H414.388V254.542C414.388 257.422 415.86 259.022 418.676 259.022H422.516V265.422ZM441.693 266.382C430.685 266.382 424.285 258.638 424.285 248.142C424.285 237.07 431.773 230.478 441.693 230.478C452.637 230.478 459.037 238.158 459.037 248.142C459.037 259.598 451.805 266.382 441.693 266.382ZM441.693 259.918C447.773 259.918 451.357 254.926 451.357 248.142C451.357 241.422 447.581 236.942 441.693 236.942C435.805 236.942 431.965 241.422 431.965 248.142C431.965 255.566 436.125 259.918 441.693 259.918ZM486.378 265.422H478.826V237.902H472.874V231.502H478.826V227.278C478.826 220.878 482.602 217.422 489.642 217.422H497.002V223.822H490.154C487.722 223.822 486.378 225.23 486.378 227.79V231.502H496.234V237.902H486.378V265.422ZM511.415 266.382C503.351 266.382 498.679 261.326 498.679 253.966V231.502H506.231V253.646C506.231 257.486 508.919 259.726 512.951 259.726C518.135 259.726 521.207 256.334 521.271 251.982V231.502H528.823V265.422H522.743L522.167 260.494C520.183 264.142 516.151 266.382 511.415 266.382ZM542.137 265.422H534.585V231.502H540.665L541.305 236.494C543.417 232.974 547.705 230.478 552.761 230.478C559.993 230.478 564.729 235.342 564.729 242.958V265.422H557.177V243.342C557.177 239.566 554.681 237.07 550.457 237.07C545.529 237.07 542.201 240.462 542.137 244.878V265.422ZM583.992 266.382C574.84 266.382 568.248 258.958 568.248 248.27C568.248 237.774 574.712 230.478 583.736 230.478C588.536 230.478 592.504 232.462 594.872 235.662V217.422H602.424V265.422H596.344L595.64 259.406C593.72 263.694 589.496 266.382 583.992 266.382ZM585.4 259.982C590.968 259.982 594.872 255.118 594.872 248.206C594.872 241.486 591.032 236.814 585.528 236.814C579.896 236.814 575.992 241.55 575.992 248.334C575.992 255.182 579.832 259.982 585.4 259.982ZM87.4832 290.958C84.7312 290.958 82.6192 288.782 82.6192 286.03C82.6192 283.278 84.7312 281.166 87.4832 281.166C90.2992 281.166 92.3472 283.278 92.3472 286.03C92.3472 288.782 90.2992 290.958 87.4832 290.958ZM91.2592 329.422H83.7072V295.502H91.2592V329.422ZM104.589 329.422H97.0372V295.502H103.117L103.693 300.238C105.805 296.91 109.965 294.478 115.021 294.478C119.885 294.478 123.597 296.91 125.389 300.814C127.309 297.23 131.661 294.478 137.037 294.478C144.141 294.478 148.685 299.534 148.685 306.83V329.422H141.069V307.214C141.069 303.438 138.765 301.006 135.117 301.006C129.933 301.006 126.669 304.398 126.605 308.878V329.422H119.053V307.214C119.053 303.438 116.749 301.006 113.101 301.006C107.917 301.006 104.653 304.398 104.589 308.878V329.422ZM161.672 342.222H154.056V295.502H160.136L160.904 301.07C163.144 297.102 167.56 294.478 172.936 294.478C181.896 294.478 188.232 301.774 188.232 312.27C188.232 322.958 181.896 330.382 172.872 330.382C168.008 330.382 163.976 328.206 161.672 324.686V342.222ZM171.208 323.982C176.712 323.982 180.488 319.182 180.488 312.27C180.488 305.55 176.712 300.878 171.144 300.878C165.576 300.878 161.672 305.486 161.672 312.078C161.672 319.054 165.576 323.982 171.208 323.982ZM203.397 330.126C195.589 330.126 190.469 326.35 190.533 320.014C190.597 312.078 198.469 310.414 205.061 309.646C210.181 309.07 213.957 308.878 214.021 306.19C213.957 302.862 211.397 300.686 207.045 300.686C202.565 300.686 199.365 303.118 198.917 306.638H191.301C192.005 299.47 198.405 294.478 207.173 294.478C216.325 294.478 221.381 299.47 221.381 306.702V322.062C221.381 323.022 221.893 323.534 223.045 323.534H224.901V329.422H221.317C217.861 329.422 215.749 328.014 215.173 325.454C215.045 325.134 214.917 324.686 214.853 324.302C212.869 327.95 209.157 330.126 203.397 330.126ZM204.933 324.174C210.117 324.174 214.021 321.23 214.021 316.686V311.95C212.741 313.934 209.477 314.382 205.893 314.83C201.669 315.342 198.149 315.918 198.149 319.502C198.149 322.446 200.517 324.174 204.933 324.174ZM243.709 330.382C232.637 330.382 226.173 322.446 226.173 312.206C226.173 301.07 233.661 294.478 243.517 294.478C252.797 294.478 259.069 300.174 259.709 308.622H252.285C251.581 303.95 248.253 300.942 243.453 300.942C237.693 300.942 233.853 305.294 233.853 312.206C233.853 319.63 238.077 323.918 243.709 323.918C248.317 323.918 251.517 320.974 252.285 316.11H259.709C258.813 324.878 252.733 330.382 243.709 330.382ZM282.126 329.422H277.774C270.414 329.422 266.446 325.774 266.446 319.054V301.902H260.494V295.502H266.446V283.918H273.998V295.502H285.454V291.278C285.454 284.878 289.23 281.422 296.27 281.422H303.694V287.822H296.782C294.35 287.822 293.07 289.23 293.07 291.79V295.502H302.926V301.902H293.07V329.422H285.454V301.902H273.998V318.542C273.998 321.422 275.47 323.022 278.286 323.022H282.126V329.422ZM318.035 330.382C309.971 330.382 305.299 325.326 305.299 317.966V295.502H312.851V317.646C312.851 321.486 315.539 323.726 319.571 323.726C324.755 323.726 327.827 320.334 327.891 315.982V295.502H335.443V329.422H329.363L328.787 324.494C326.803 328.142 322.771 330.382 318.035 330.382ZM348.885 329.422H341.333V281.422H348.885V329.422ZM387.922 330.382C374.674 330.382 365.586 321.166 365.586 306.894C365.586 293.326 374.162 283.662 387.922 283.662C401.234 283.662 410.386 292.814 410.386 306.894C410.386 320.59 401.746 330.382 387.922 330.382ZM387.922 323.406C396.882 323.406 402.578 317.006 402.578 306.894C402.578 296.91 396.882 290.574 387.922 290.574C379.026 290.574 373.394 296.91 373.394 306.894C373.394 317.006 379.026 323.406 387.922 323.406ZM434.018 330.382C422.242 330.382 414.37 324.494 413.794 315.598H421.666C422.37 320.462 426.85 323.534 434.018 323.534C439.842 323.534 442.914 321.294 442.914 317.518C442.914 313.998 440.162 312.59 435.81 311.246L428.514 309.07C423.266 307.47 415.074 305.166 415.074 296.398C415.074 289.038 421.154 283.662 431.074 283.662C441.89 283.662 448.802 289.486 449.378 298.958H441.57C441.25 293.902 437.538 290.51 430.818 290.51C425.89 290.51 422.69 292.558 422.69 296.014C422.69 299.918 426.594 300.878 430.946 302.286L437.73 304.398C444.066 306.382 450.722 308.686 450.722 317.134C450.722 325.262 444.258 330.382 434.018 330.382ZM473.973 330.382C462.197 330.382 454.325 324.494 453.749 315.598H461.621C462.325 320.462 466.805 323.534 473.973 323.534C479.797 323.534 482.869 321.294 482.869 317.518C482.869 313.998 480.117 312.59 475.765 311.246L468.469 309.07C463.221 307.47 455.029 305.166 455.029 296.398C455.029 289.038 461.109 283.662 471.029 283.662C481.845 283.662 488.757 289.486 489.333 298.958H481.525C481.205 293.902 477.493 290.51 470.773 290.51C465.845 290.51 462.645 292.558 462.645 296.014C462.645 299.918 466.549 300.878 470.901 302.286L477.685 304.398C484.021 306.382 490.677 308.686 490.677 317.134C490.677 325.262 484.213 330.382 473.973 330.382ZM498.248 330.254C495.496 330.254 493.384 328.142 493.384 325.326C493.384 322.574 495.496 320.462 498.248 320.462C501.064 320.462 503.176 322.574 503.176 325.326C503.176 328.142 501.064 330.254 498.248 330.254Z" fill="black"/>
<path d="M96.1472 408.982C93.4005 408.982 90.9605 408.369 88.8272 407.142C86.6939 405.915 85.0272 404.209 83.8272 402.022C82.6539 399.809 82.0672 397.275 82.0672 394.422C82.0672 391.649 82.6672 389.155 83.8672 386.942C85.0672 384.729 86.7205 382.995 88.8272 381.742C90.9605 380.489 93.3605 379.862 96.0272 379.862C99.0405 379.862 101.627 380.622 103.787 382.142C105.974 383.662 107.521 385.795 108.427 388.542L104.587 389.822C103.947 387.822 102.907 386.275 101.467 385.182C100.027 384.089 98.2272 383.542 96.0672 383.542C94.1739 383.542 92.4672 384.022 90.9472 384.982C89.4272 385.915 88.2272 387.209 87.3472 388.862C86.4939 390.515 86.0672 392.369 86.0672 394.422C86.0672 396.529 86.4939 398.409 87.3472 400.062C88.2272 401.715 89.4272 403.009 90.9472 403.942C92.4939 404.849 94.2405 405.302 96.1872 405.302C98.3472 405.302 100.121 404.782 101.507 403.742C102.921 402.702 103.921 401.315 104.507 399.582L108.307 400.822C107.321 403.409 105.801 405.422 103.747 406.862C101.694 408.275 99.1605 408.982 96.1472 408.982ZM111.219 380.422H115.099V391.022C116.592 389.049 118.672 388.062 121.339 388.062C123.525 388.062 125.219 388.715 126.419 390.022C127.645 391.329 128.259 393.315 128.259 395.982V408.422H124.339V396.662C124.339 394.849 123.965 393.582 123.219 392.862C122.472 392.115 121.432 391.742 120.099 391.742C118.712 391.742 117.525 392.249 116.539 393.262C115.579 394.275 115.099 395.662 115.099 397.422V408.422H111.219V380.422ZM134.725 399.742C134.805 400.809 135.099 401.795 135.605 402.702C136.139 403.609 136.859 404.342 137.765 404.902C138.672 405.435 139.699 405.702 140.845 405.702C142.232 405.702 143.392 405.369 144.325 404.702C145.285 404.009 145.925 403.195 146.245 402.262L149.605 403.342C149.019 404.995 147.979 406.355 146.485 407.422C144.992 408.462 143.112 408.982 140.845 408.982C138.925 408.982 137.205 408.529 135.685 407.622C134.192 406.689 133.019 405.422 132.165 403.822C131.339 402.222 130.925 400.449 130.925 398.502C130.925 396.582 131.352 394.835 132.205 393.262C133.085 391.662 134.272 390.409 135.765 389.502C137.285 388.569 138.965 388.102 140.805 388.102C142.672 388.102 144.299 388.529 145.685 389.382C147.099 390.209 148.192 391.382 148.965 392.902C149.739 394.422 150.125 396.182 150.125 398.182V399.742H134.725ZM146.605 396.662C146.499 395.249 145.925 394.022 144.885 392.982C143.872 391.915 142.525 391.382 140.845 391.382C139.165 391.382 137.792 391.889 136.725 392.902C135.659 393.915 135.005 395.169 134.765 396.662H146.605ZM162.023 408.982C159.997 408.982 158.21 408.515 156.663 407.582C155.143 406.622 153.97 405.342 153.143 403.742C152.317 402.142 151.903 400.409 151.903 398.542C151.903 396.649 152.317 394.902 153.143 393.302C153.997 391.702 155.183 390.435 156.703 389.502C158.25 388.542 160.023 388.062 162.023 388.062C164.21 388.062 166.063 388.622 167.583 389.742C169.103 390.862 170.17 392.355 170.783 394.222L167.183 395.422C166.81 394.249 166.17 393.329 165.263 392.662C164.357 391.995 163.277 391.662 162.023 391.662C160.823 391.662 159.757 391.955 158.823 392.542C157.89 393.129 157.157 393.955 156.623 395.022C156.09 396.062 155.823 397.235 155.823 398.542C155.823 399.849 156.09 401.022 156.623 402.062C157.157 403.102 157.89 403.915 158.823 404.502C159.757 405.089 160.823 405.382 162.023 405.382C163.25 405.382 164.317 405.049 165.223 404.382C166.13 403.715 166.783 402.809 167.183 401.662L170.743 402.862C170.05 404.702 168.943 406.182 167.423 407.302C165.93 408.422 164.13 408.982 162.023 408.982ZM179.688 399.182L177.448 401.542V408.422H173.528V380.422H177.448V396.462L184.968 388.622H189.768L182.288 396.462L190.688 408.422H186.208L179.688 399.182ZM202.13 388.622H206.05V408.422H202.13V388.622ZM204.13 385.702C203.41 385.702 202.796 385.462 202.29 384.982C201.783 384.475 201.53 383.862 201.53 383.142C201.53 382.449 201.783 381.849 202.29 381.342C202.796 380.835 203.41 380.582 204.13 380.582C204.823 380.582 205.41 380.835 205.89 381.342C206.396 381.849 206.65 382.449 206.65 383.142C206.65 383.862 206.396 384.475 205.89 384.982C205.41 385.462 204.823 385.702 204.13 385.702ZM211.541 392.142H208.061V388.622H211.541V385.342C211.541 383.662 212.034 382.329 213.021 381.342C214.008 380.329 215.274 379.822 216.821 379.822C218.101 379.822 219.101 380.009 219.821 380.382C220.568 380.729 221.101 381.089 221.421 381.462L219.501 384.142C219.368 383.982 219.128 383.822 218.781 383.662C218.461 383.475 218.061 383.382 217.581 383.382C216.168 383.382 215.461 384.182 215.461 385.782V388.622H220.861V392.142H215.461V408.422H211.541V392.142ZM249.924 388.622V408.062C249.924 409.769 249.591 411.302 248.924 412.662C248.257 414.049 247.244 415.142 245.884 415.942C244.551 416.742 242.884 417.142 240.884 417.142C238.564 417.142 236.697 416.569 235.284 415.422C233.871 414.302 232.897 412.769 232.364 410.822L236.044 410.022C236.631 412.502 238.244 413.742 240.884 413.742C242.564 413.742 243.831 413.249 244.684 412.262C245.564 411.275 246.004 409.902 246.004 408.142V405.422C245.204 406.409 244.311 407.155 243.324 407.662C242.337 408.142 241.097 408.382 239.604 408.382C237.497 408.382 235.777 407.742 234.444 406.462C233.111 405.155 232.444 403.195 232.444 400.582V388.622H236.364V399.702C236.364 401.515 236.751 402.809 237.524 403.582C238.297 404.355 239.391 404.742 240.804 404.742C242.324 404.742 243.564 404.249 244.524 403.262C245.511 402.249 246.004 400.849 246.004 399.062V388.622H249.924ZM262.583 408.982C260.583 408.982 258.796 408.502 257.223 407.542C255.676 406.582 254.476 405.302 253.623 403.702C252.796 402.102 252.383 400.382 252.383 398.542C252.383 396.675 252.81 394.942 253.663 393.342C254.516 391.742 255.716 390.462 257.263 389.502C258.836 388.542 260.61 388.062 262.583 388.062C264.583 388.062 266.356 388.542 267.903 389.502C269.45 390.462 270.65 391.742 271.503 393.342C272.356 394.942 272.783 396.675 272.783 398.542C272.783 400.382 272.356 402.102 271.503 403.702C270.65 405.302 269.45 406.582 267.903 407.542C266.356 408.502 264.583 408.982 262.583 408.982ZM262.583 405.382C263.783 405.382 264.85 405.089 265.783 404.502C266.743 403.915 267.49 403.102 268.023 402.062C268.583 400.995 268.863 399.822 268.863 398.542C268.863 397.235 268.583 396.062 268.023 395.022C267.49 393.982 266.743 393.169 265.783 392.582C264.85 391.969 263.783 391.662 262.583 391.662C261.383 391.662 260.303 391.969 259.343 392.582C258.383 393.169 257.636 393.982 257.103 395.022C256.57 396.062 256.303 397.235 256.303 398.542C256.303 399.849 256.57 401.022 257.103 402.062C257.636 403.102 258.383 403.915 259.343 404.502C260.303 405.089 261.383 405.382 262.583 405.382ZM292.533 408.422H289.293L288.693 405.902C287.173 407.955 285.08 408.982 282.413 408.982C280.226 408.982 278.52 408.342 277.293 407.062C276.066 405.755 275.453 403.769 275.453 401.102V388.622H279.373V400.422C279.373 402.209 279.746 403.475 280.493 404.222C281.24 404.969 282.28 405.342 283.613 405.342C285.026 405.342 286.213 404.849 287.173 403.862C288.133 402.849 288.613 401.462 288.613 399.702V388.622H292.533V408.422ZM294.056 378.982H297.976V387.902H294.056V378.982ZM299.987 388.622H303.227L303.827 391.102C304.307 390.249 304.987 389.529 305.867 388.942C306.774 388.355 307.814 388.062 308.987 388.062C309.761 388.062 310.454 388.169 311.067 388.382C311.681 388.569 312.174 388.795 312.547 389.062L311.027 392.502C310.787 392.315 310.441 392.155 309.987 392.022C309.561 391.862 309.054 391.782 308.467 391.782C307.161 391.782 306.067 392.302 305.187 393.342C304.334 394.355 303.907 395.729 303.907 397.462V408.422H299.987V388.622ZM315.76 399.742C315.84 400.809 316.133 401.795 316.64 402.702C317.173 403.609 317.893 404.342 318.8 404.902C319.706 405.435 320.733 405.702 321.88 405.702C323.266 405.702 324.426 405.369 325.36 404.702C326.32 404.009 326.96 403.195 327.28 402.262L330.64 403.342C330.053 404.995 329.013 406.355 327.52 407.422C326.026 408.462 324.146 408.982 321.88 408.982C319.96 408.982 318.24 408.529 316.72 407.622C315.226 406.689 314.053 405.422 313.2 403.822C312.373 402.222 311.96 400.449 311.96 398.502C311.96 396.582 312.386 394.835 313.24 393.262C314.12 391.662 315.306 390.409 316.8 389.502C318.32 388.569 320 388.102 321.84 388.102C323.706 388.102 325.333 388.529 326.72 389.382C328.133 390.209 329.226 391.382 330 392.902C330.773 394.422 331.16 396.182 331.16 398.182V399.742H315.76ZM327.64 396.662C327.533 395.249 326.96 394.022 325.92 392.982C324.906 391.915 323.56 391.382 321.88 391.382C320.2 391.382 318.826 391.889 317.76 392.902C316.693 393.915 316.04 395.169 315.8 396.662H327.64ZM346.349 399.742C346.429 400.809 346.722 401.795 347.229 402.702C347.762 403.609 348.482 404.342 349.389 404.902C350.295 405.435 351.322 405.702 352.469 405.702C353.855 405.702 355.015 405.369 355.949 404.702C356.909 404.009 357.549 403.195 357.869 402.262L361.229 403.342C360.642 404.995 359.602 406.355 358.109 407.422C356.615 408.462 354.735 408.982 352.469 408.982C350.549 408.982 348.829 408.529 347.309 407.622C345.815 406.689 344.642 405.422 343.789 403.822C342.962 402.222 342.549 400.449 342.549 398.502C342.549 396.582 342.975 394.835 343.829 393.262C344.709 391.662 345.895 390.409 347.389 389.502C348.909 388.569 350.589 388.102 352.429 388.102C354.295 388.102 355.922 388.529 357.309 389.382C358.722 390.209 359.815 391.382 360.589 392.902C361.362 394.422 361.749 396.182 361.749 398.182V399.742H346.349ZM358.229 396.662C358.122 395.249 357.549 394.022 356.509 392.982C355.495 391.915 354.149 391.382 352.469 391.382C350.789 391.382 349.415 391.889 348.349 392.902C347.282 393.915 346.629 395.169 346.389 396.662H358.229ZM364.447 380.422H368.367V408.422H364.447V380.422ZM372.148 388.622H376.068V408.422H372.148V388.622ZM374.148 385.702C373.428 385.702 372.815 385.462 372.308 384.982C371.802 384.475 371.548 383.862 371.548 383.142C371.548 382.449 371.802 381.849 372.308 381.342C372.815 380.835 373.428 380.582 374.148 380.582C374.842 380.582 375.428 380.835 375.908 381.342C376.415 381.849 376.668 382.449 376.668 383.142C376.668 383.862 376.415 384.475 375.908 384.982C375.428 385.462 374.842 385.702 374.148 385.702ZM388.8 417.142C386.346 417.142 384.373 416.569 382.88 415.422C381.413 414.275 380.4 412.729 379.84 410.782L383.52 409.902C384.186 412.489 385.946 413.782 388.8 413.782C390.746 413.782 392.226 413.289 393.24 412.302C394.28 411.315 394.8 409.929 394.8 408.142V405.182C394.24 406.089 393.4 406.862 392.28 407.502C391.16 408.115 389.853 408.422 388.36 408.422C386.44 408.422 384.773 407.969 383.36 407.062C381.946 406.129 380.853 404.889 380.08 403.342C379.333 401.795 378.96 400.115 378.96 398.302C378.96 396.489 379.346 394.809 380.12 393.262C380.893 391.689 381.986 390.435 383.4 389.502C384.84 388.542 386.48 388.062 388.32 388.062C389.866 388.062 391.173 388.369 392.24 388.982C393.333 389.569 394.186 390.315 394.8 391.222L395.44 388.622H398.72V408.062C398.72 409.769 398.346 411.302 397.6 412.662C396.88 414.049 395.773 415.142 394.28 415.942C392.813 416.742 390.986 417.142 388.8 417.142ZM388.88 404.902C390.613 404.902 392.026 404.302 393.12 403.102C394.24 401.875 394.8 400.275 394.8 398.302C394.8 396.302 394.24 394.689 393.12 393.462C392.026 392.209 390.6 391.582 388.84 391.582C387.08 391.582 385.64 392.209 384.52 393.462C383.426 394.689 382.88 396.302 382.88 398.302C382.88 400.275 383.426 401.875 384.52 403.102C385.64 404.302 387.093 404.902 388.88 404.902ZM402.503 388.622H406.423V408.422H402.503V388.622ZM404.503 385.702C403.783 385.702 403.17 385.462 402.663 384.982C402.156 384.475 401.903 383.862 401.903 383.142C401.903 382.449 402.156 381.849 402.663 381.342C403.17 380.835 403.783 380.582 404.503 380.582C405.196 380.582 405.783 380.835 406.263 381.342C406.77 381.849 407.023 382.449 407.023 383.142C407.023 383.862 406.77 384.475 406.263 384.982C405.783 385.462 405.196 385.702 404.503 385.702ZM420.674 408.942C419.128 408.942 417.794 408.635 416.674 408.022C415.554 407.409 414.661 406.649 413.994 405.742L413.474 408.422H410.234V380.422H414.154V391.182C414.821 390.275 415.714 389.529 416.834 388.942C417.954 388.355 419.248 388.062 420.714 388.062C422.634 388.062 424.314 388.542 425.754 389.502C427.194 390.462 428.288 391.742 429.034 393.342C429.808 394.915 430.194 396.635 430.194 398.502C430.194 400.315 429.794 402.022 428.994 403.622C428.194 405.222 427.061 406.515 425.594 407.502C424.154 408.462 422.514 408.942 420.674 408.942ZM420.194 405.422C421.341 405.422 422.381 405.129 423.314 404.542C424.248 403.929 424.968 403.102 425.474 402.062C426.008 400.995 426.274 399.809 426.274 398.502C426.274 397.169 426.008 395.982 425.474 394.942C424.968 393.875 424.248 393.049 423.314 392.462C422.381 391.875 421.341 391.582 420.194 391.582C418.408 391.582 416.941 392.235 415.794 393.542C414.674 394.822 414.114 396.475 414.114 398.502C414.114 400.502 414.674 402.155 415.794 403.462C416.941 404.769 418.408 405.422 420.194 405.422ZM432.892 380.422H436.812V408.422H432.892V380.422ZM443.274 399.742C443.354 400.809 443.647 401.795 444.154 402.702C444.687 403.609 445.407 404.342 446.314 404.902C447.22 405.435 448.247 405.702 449.394 405.702C450.78 405.702 451.94 405.369 452.874 404.702C453.834 404.009 454.474 403.195 454.794 402.262L458.154 403.342C457.567 404.995 456.527 406.355 455.034 407.422C453.54 408.462 451.66 408.982 449.394 408.982C447.474 408.982 445.754 408.529 444.234 407.622C442.74 406.689 441.567 405.422 440.714 403.822C439.887 402.222 439.474 400.449 439.474 398.502C439.474 396.582 439.9 394.835 440.754 393.262C441.634 391.662 442.82 390.409 444.314 389.502C445.834 388.569 447.514 388.102 449.354 388.102C451.22 388.102 452.847 388.529 454.234 389.382C455.647 390.209 456.74 391.382 457.514 392.902C458.287 394.422 458.674 396.182 458.674 398.182V399.742H443.274ZM455.154 396.662C455.047 395.249 454.474 394.022 453.434 392.982C452.42 391.915 451.074 391.382 449.394 391.382C447.714 391.382 446.34 391.889 445.274 392.902C444.207 393.915 443.554 395.169 443.314 396.662H455.154ZM477.983 408.982C476.436 408.982 475.169 408.502 474.183 407.542C473.223 406.555 472.743 405.209 472.743 403.502V392.142H469.183V388.622H472.743V383.462H476.663V388.622H482.023V392.142H476.663V403.022C476.663 404.569 477.356 405.342 478.743 405.342C479.516 405.342 480.156 405.089 480.663 404.582L482.463 407.382C482.116 407.782 481.556 408.142 480.783 408.462C480.036 408.809 479.103 408.982 477.983 408.982ZM492.53 408.982C490.53 408.982 488.743 408.502 487.17 407.542C485.623 406.582 484.423 405.302 483.57 403.702C482.743 402.102 482.33 400.382 482.33 398.542C482.33 396.675 482.757 394.942 483.61 393.342C484.463 391.742 485.663 390.462 487.21 389.502C488.783 388.542 490.557 388.062 492.53 388.062C494.53 388.062 496.303 388.542 497.85 389.502C499.397 390.462 500.597 391.742 501.45 393.342C502.303 394.942 502.73 396.675 502.73 398.542C502.73 400.382 502.303 402.102 501.45 403.702C500.597 405.302 499.397 406.582 497.85 407.542C496.303 408.502 494.53 408.982 492.53 408.982ZM492.53 405.382C493.73 405.382 494.797 405.089 495.73 404.502C496.69 403.915 497.437 403.102 497.97 402.062C498.53 400.995 498.81 399.822 498.81 398.542C498.81 397.235 498.53 396.062 497.97 395.022C497.437 393.982 496.69 393.169 495.73 392.582C494.797 391.969 493.73 391.662 492.53 391.662C491.33 391.662 490.25 391.969 489.29 392.582C488.33 393.169 487.583 393.982 487.05 395.022C486.517 396.062 486.25 397.235 486.25 398.542C486.25 399.849 486.517 401.022 487.05 402.062C487.583 403.102 488.33 403.915 489.29 404.502C490.25 405.089 491.33 405.382 492.53 405.382ZM532.291 388.622L524.771 408.422H520.611L513.051 388.622H517.091L522.691 403.982L528.291 388.622H532.291ZM542.496 408.982C540.496 408.982 538.709 408.502 537.136 407.542C535.589 406.582 534.389 405.302 533.536 403.702C532.709 402.102 532.296 400.382 532.296 398.542C532.296 396.675 532.722 394.942 533.576 393.342C534.429 391.742 535.629 390.462 537.176 389.502C538.749 388.542 540.522 388.062 542.496 388.062C544.496 388.062 546.269 388.542 547.816 389.502C549.362 390.462 550.562 391.742 551.416 393.342C552.269 394.942 552.696 396.675 552.696 398.542C552.696 400.382 552.269 402.102 551.416 403.702C550.562 405.302 549.362 406.582 547.816 407.542C546.269 408.502 544.496 408.982 542.496 408.982ZM542.496 405.382C543.696 405.382 544.762 405.089 545.696 404.502C546.656 403.915 547.402 403.102 547.936 402.062C548.496 400.995 548.776 399.822 548.776 398.542C548.776 397.235 548.496 396.062 547.936 395.022C547.402 393.982 546.656 393.169 545.696 392.582C544.762 391.969 543.696 391.662 542.496 391.662C541.296 391.662 540.216 391.969 539.256 392.582C538.296 393.169 537.549 393.982 537.016 395.022C536.482 396.062 536.216 397.235 536.216 398.542C536.216 399.849 536.482 401.022 537.016 402.062C537.549 403.102 538.296 403.915 539.256 404.502C540.216 405.089 541.296 405.382 542.496 405.382ZM561.975 408.982C560.428 408.982 559.162 408.502 558.175 407.542C557.215 406.555 556.735 405.209 556.735 403.502V392.142H553.175V388.622H556.735V383.462H560.655V388.622H566.015V392.142H560.655V403.022C560.655 404.569 561.348 405.342 562.735 405.342C563.508 405.342 564.148 405.089 564.655 404.582L566.455 407.382C566.108 407.782 565.548 408.142 564.775 408.462C564.028 408.809 563.095 408.982 561.975 408.982ZM570.122 399.742C570.202 400.809 570.496 401.795 571.002 402.702C571.536 403.609 572.256 404.342 573.162 404.902C574.069 405.435 575.096 405.702 576.242 405.702C577.629 405.702 578.789 405.369 579.722 404.702C580.682 404.009 581.322 403.195 581.642 402.262L585.002 403.342C584.416 404.995 583.376 406.355 581.882 407.422C580.389 408.462 578.509 408.982 576.242 408.982C574.322 408.982 572.602 408.529 571.082 407.622C569.589 406.689 568.416 405.422 567.562 403.822C566.736 402.222 566.322 400.449 566.322 398.502C566.322 396.582 566.749 394.835 567.602 393.262C568.482 391.662 569.669 390.409 571.162 389.502C572.682 388.569 574.362 388.102 576.202 388.102C578.069 388.102 579.696 388.529 581.082 389.382C582.496 390.209 583.589 391.382 584.362 392.902C585.136 394.422 585.522 396.182 585.522 398.182V399.742H570.122ZM582.002 396.662C581.896 395.249 581.322 394.022 580.282 392.982C579.269 391.915 577.922 391.382 576.242 391.382C574.562 391.382 573.189 391.889 572.122 392.902C571.056 393.915 570.402 395.169 570.162 396.662H582.002ZM589.38 380.422H593.38V400.822H589.38V380.422ZM591.38 408.702C590.634 408.702 589.994 408.435 589.46 407.902C588.954 407.342 588.7 406.702 588.7 405.982C588.7 405.289 588.954 404.675 589.46 404.142C589.994 403.609 590.634 403.342 591.38 403.342C592.1 403.342 592.727 403.622 593.26 404.182C593.794 404.715 594.06 405.342 594.06 406.062C594.06 406.782 593.794 407.409 593.26 407.942C592.727 408.449 592.1 408.702 591.38 408.702Z" fill="black"/>
<g clip-path="url(#clip0_2449_8648)">
<path d="M921.582 72.4075C927.449 67.638 936.008 68.2525 941.133 73.8111L949.393 82.7625C953.6 87.3215 960.262 88.6557 965.895 86.0591L976.964 80.974C983.826 77.81 991.967 80.5396 995.545 87.1986L1001.31 97.9271C1004.25 103.396 1010.38 106.336 1016.48 105.229L1028.46 103.055C1035.9 101.7 1043.11 106.363 1044.91 113.706L1047.83 125.531C1049.32 131.551 1054.52 135.937 1060.7 136.369L1072.85 137.241C1080.39 137.783 1086.2 144.08 1086.14 151.644L1086.03 163.819C1085.98 170.017 1089.92 175.557 1095.81 177.525L1107.36 181.388C1114.53 183.782 1118.59 191.342 1116.64 198.649L1113.51 210.417C1111.91 216.416 1114.36 222.749 1119.56 226.123L1129.79 232.738C1136.14 236.839 1138.2 245.179 1134.49 251.759L1128.53 262.379C1125.49 267.785 1126.28 274.533 1130.48 279.092L1138.74 288.043C1143.87 293.602 1143.8 302.177 1138.57 307.637L1130.16 316.436C1125.87 320.919 1124.96 327.656 1127.91 333.114L1133.68 343.832C1137.26 350.48 1135.06 358.78 1128.64 362.776L1118.3 369.203C1113.03 372.481 1110.48 378.778 1111.97 384.798L1114.9 396.623C1116.72 403.956 1112.51 411.446 1105.3 413.718L1093.69 417.375C1087.78 419.24 1083.73 424.696 1083.67 430.905L1083.57 443.079C1083.5 450.632 1077.58 456.842 1070.02 457.245L1057.86 457.894C1051.67 458.228 1046.39 462.517 1044.79 468.505L1041.67 480.273C1039.72 487.58 1032.44 492.115 1025.03 490.627L1013.09 488.236C1007.01 487.021 1000.84 489.857 997.803 495.263L991.85 505.884C988.153 512.476 979.965 515.056 973.154 511.777L962.185 506.488C956.599 503.797 949.91 505.007 945.619 509.5L937.207 518.299C931.99 523.771 923.41 524.233 917.636 519.362L908.329 511.513C903.581 507.516 896.803 507.029 891.543 510.308L881.211 516.747C874.8 520.743 866.373 519.06 861.992 512.899L854.923 502.989C851.318 497.939 844.882 495.777 838.957 497.641L827.346 501.309C820.136 503.581 812.4 499.858 809.683 492.805L805.309 481.443C803.079 475.658 797.375 471.959 791.171 472.303L779.008 472.963C771.465 473.378 764.893 467.849 764.021 460.339L762.599 448.244C761.875 442.079 757.265 437.091 751.183 435.876L739.239 433.496C731.831 432.019 726.843 425.026 727.858 417.54L729.491 405.476C730.321 399.333 727.106 393.345 721.519 390.654L710.55 385.376C703.738 382.097 700.645 374.095 703.493 367.086L708.083 355.801C710.418 350.055 708.791 343.458 704.043 339.461L694.725 331.623C688.939 326.75 687.939 318.231 692.444 312.152L699.693 302.369C703.385 297.388 703.439 290.59 699.845 285.542L692.776 275.631C688.383 269.48 689.538 260.971 695.404 256.213L704.858 248.533C709.674 244.622 711.423 238.057 709.182 232.272L704.796 220.909C702.08 213.856 705.307 205.907 712.169 202.754L723.237 197.669C728.869 195.083 732.196 189.154 731.471 182.988L730.05 170.894C729.167 163.383 734.274 156.492 741.707 155.136L753.689 152.962C759.793 151.855 764.491 146.946 765.322 140.793L766.955 128.728C767.971 121.243 774.628 115.83 782.169 116.372L794.311 117.243C800.503 117.688 806.274 114.101 808.598 108.355L813.176 97.0685C816.013 90.0697 823.817 86.4842 830.981 88.877L842.53 92.7405C848.413 94.7078 854.895 92.6723 858.587 87.6802L865.826 77.8853C870.32 71.8058 878.765 70.2781 885.107 74.3791L895.324 80.9924C900.528 84.367 907.312 83.9982 912.128 80.087L921.582 72.4075Z" fill="#22635A"/>
<path d="M924.04 174.874C990.851 179.67 1041.13 237.721 1036.34 304.543C1031.54 371.355 973.49 421.638 906.668 416.841C839.857 412.044 789.573 353.993 794.371 287.171C799.167 220.36 857.218 170.076 924.04 174.874Z" stroke="white" stroke-width="1.54099"/>
<path d="M906.899 413.769C972.019 418.444 1028.6 369.444 1033.27 304.325C1037.95 239.205 988.95 182.625 923.83 177.95C858.711 173.274 802.131 222.274 797.455 287.394C792.78 352.513 841.78 409.093 906.899 413.769Z" stroke="white" stroke-width="1.54099"/>
<path d="M901.482 489.226C1008.28 496.894 1101.07 416.535 1108.73 309.741C1116.4 202.947 1036.04 110.158 929.248 102.49C822.454 94.8231 729.664 175.181 721.997 281.975C714.329 388.769 794.688 481.559 901.482 489.226Z" stroke="white" stroke-width="1.54099"/>
<path d="M901.251 492.442C1009.82 500.237 1104.16 418.541 1111.95 309.97C1119.75 201.399 1038.05 107.065 929.479 99.2703C820.908 91.4753 726.574 173.171 718.779 281.742C710.984 390.313 792.68 484.647 901.251 492.442Z" stroke="white" stroke-width="1.54099"/>
<path d="M1065.14 264.687L776.864 243.99L773.87 285.7L1062.15 306.397L1065.14 264.687Z" fill="#22635A"/>
<path d="M730.946 250.997C732.867 247 738.683 247.418 740.002 251.647L742.047 258.163C742.454 259.459 743.378 260.515 744.592 261.102L750.749 264.056C754.745 265.977 754.328 271.793 750.098 273.113L743.583 275.157C742.287 275.564 741.231 276.488 740.644 277.702L737.69 283.859C735.769 287.856 729.952 287.438 728.633 283.209L726.589 276.693C726.182 275.397 725.258 274.341 724.044 273.754L717.887 270.8C713.89 268.879 714.308 263.063 718.537 261.744L725.053 259.699C726.349 259.292 727.405 258.368 727.992 257.154L730.946 250.997Z" fill="#E6F9CE"/>
<path d="M1015.35 215.931C1017.27 211.934 1023.08 212.352 1024.41 216.582L1026.46 223.097C1026.86 224.394 1027.79 225.449 1029 226.037L1035.16 228.991C1039.16 230.911 1038.74 236.728 1034.51 238.047L1027.99 240.091C1026.71 240.499 1025.64 241.423 1025.05 242.637L1022.1 248.793C1020.18 252.79 1014.36 252.372 1013.03 248.142L1010.99 241.627C1010.58 240.33 1009.66 239.275 1008.44 238.687L1002.29 235.733C998.29 233.813 998.707 227.996 1002.94 226.677L1009.45 224.633C1010.75 224.226 1011.8 223.301 1012.39 222.088L1015.35 215.931Z" fill="#E6F9CE"/>
<path d="M1028.21 249.653C1029.31 247.353 1032.66 247.594 1033.42 250.027L1034.36 253.018C1034.59 253.757 1035.12 254.372 1035.82 254.712L1038.65 256.071C1040.95 257.17 1040.71 260.52 1038.28 261.279L1035.29 262.221C1034.55 262.456 1033.93 262.979 1033.59 263.688L1032.23 266.514C1031.13 268.814 1027.78 268.573 1027.02 266.14L1026.08 263.149C1025.85 262.41 1025.32 261.794 1024.62 261.454L1021.79 260.096C1019.49 258.997 1019.73 255.646 1022.16 254.887L1025.15 253.946C1025.89 253.71 1026.51 253.188 1026.85 252.478L1028.21 249.653Z" fill="white"/>
<path d="M800.173 233.424C802.094 229.427 807.911 229.844 809.23 234.074L809.42 234.677C809.828 235.962 810.751 237.028 811.965 237.616L812.535 237.89C816.531 239.811 816.114 245.627 811.884 246.957L811.281 247.148C809.985 247.555 808.929 248.479 808.342 249.693L808.067 250.262C806.147 254.259 800.33 253.842 799.011 249.612L798.821 249.009C798.414 247.713 797.489 246.658 796.275 246.07L795.706 245.796C791.709 243.875 792.127 238.059 796.357 236.729L796.96 236.538C798.245 236.131 799.312 235.207 799.899 233.993L800.173 233.424Z" fill="#ACE86E"/>
<path d="M1072.13 235.643C1074.05 231.646 1079.86 232.064 1081.2 236.294L1082.82 241.49C1083.23 242.775 1084.15 243.842 1085.37 244.429L1090.29 246.783C1094.29 248.704 1093.87 254.521 1089.64 255.84L1084.43 257.467C1083.14 257.874 1082.08 258.798 1081.49 260.012L1079.14 264.934C1077.22 268.93 1071.4 268.513 1070.07 264.283L1068.44 259.075C1068.04 257.779 1067.11 256.723 1065.9 256.136L1060.98 253.782C1056.98 251.861 1057.4 246.045 1061.63 244.726L1066.84 243.099C1068.12 242.691 1069.19 241.767 1069.77 240.553L1072.13 235.643Z" fill="#ACE86E"/>
<path d="M921.582 72.4075C927.449 67.638 936.008 68.2525 941.133 73.8111L949.393 82.7625C953.6 87.3215 960.262 88.6557 965.895 86.0591L976.964 80.974C983.826 77.81 991.967 80.5396 995.545 87.1986L1001.31 97.9271C1004.25 103.396 1010.38 106.336 1016.48 105.229L1028.46 103.055C1035.9 101.7 1043.11 106.363 1044.91 113.706L1047.83 125.531C1049.32 131.551 1054.52 135.937 1060.7 136.369L1072.85 137.241C1080.39 137.783 1086.2 144.08 1086.14 151.644L1086.03 163.819C1085.98 170.017 1089.92 175.557 1095.81 177.525L1107.36 181.388C1114.53 183.782 1118.59 191.342 1116.64 198.649L1113.51 210.417C1111.91 216.416 1114.36 222.749 1119.56 226.123L1129.79 232.738C1136.14 236.839 1138.2 245.179 1134.49 251.759L1128.53 262.379C1125.49 267.785 1126.28 274.533 1130.48 279.092L1138.74 288.043C1143.87 293.602 1143.8 302.177 1138.57 307.637L1130.16 316.436C1125.87 320.919 1124.96 327.656 1127.91 333.114L1133.68 343.832C1137.26 350.48 1135.06 358.78 1128.64 362.776L1118.3 369.203C1113.03 372.481 1110.48 378.778 1111.97 384.798L1114.9 396.623C1116.72 403.956 1112.51 411.446 1105.3 413.718L1093.69 417.375C1087.78 419.24 1083.73 424.696 1083.67 430.905L1083.57 443.079C1083.5 450.632 1077.58 456.842 1070.02 457.245L1057.86 457.894C1051.67 458.228 1046.39 462.517 1044.79 468.505L1041.67 480.273C1039.72 487.58 1032.44 492.115 1025.03 490.627L1013.09 488.236C1007.01 487.021 1000.84 489.857 997.803 495.263L991.85 505.884C988.153 512.476 979.965 515.056 973.154 511.777L962.185 506.488C956.599 503.797 949.91 505.007 945.619 509.5L937.207 518.299C931.99 523.771 923.41 524.233 917.636 519.362L908.329 511.513C903.581 507.516 896.803 507.029 891.543 510.308L881.211 516.747C874.8 520.743 866.373 519.06 861.992 512.899L854.923 502.989C851.318 497.939 844.882 495.777 838.957 497.641L827.346 501.309C820.136 503.581 812.4 499.858 809.683 492.805L805.309 481.443C803.079 475.658 797.375 471.959 791.171 472.303L779.008 472.963C771.465 473.378 764.893 467.849 764.021 460.339L762.599 448.244C761.875 442.079 757.265 437.091 751.183 435.876L739.239 433.496C731.831 432.019 726.843 425.026 727.858 417.54L729.491 405.476C730.321 399.333 727.106 393.345 721.519 390.654L710.55 385.376C703.738 382.097 700.645 374.095 703.493 367.086L708.083 355.801C710.418 350.055 708.791 343.458 704.043 339.461L694.725 331.623C688.939 326.75 687.939 318.231 692.444 312.152L699.693 302.369C703.385 297.388 703.439 290.59 699.845 285.542L692.776 275.631C688.383 269.48 689.538 260.971 695.404 256.213L704.858 248.533C709.674 244.622 711.423 238.057 709.182 232.272L704.796 220.909C702.08 213.856 705.307 205.907 712.169 202.754L723.237 197.669C728.869 195.083 732.196 189.154 731.471 182.988L730.05 170.894C729.167 163.383 734.274 156.492 741.707 155.136L753.689 152.962C759.793 151.855 764.491 146.946 765.322 140.793L766.955 128.728C767.971 121.243 774.628 115.83 782.169 116.372L794.311 117.243C800.503 117.688 806.274 114.101 808.598 108.355L813.176 97.0685C816.013 90.0697 823.817 86.4842 830.981 88.877L842.53 92.7405C848.413 94.7078 854.895 92.6723 858.587 87.6802L865.826 77.8853C870.32 71.8058 878.765 70.2781 885.107 74.3791L895.324 80.9924C900.528 84.367 907.312 83.9982 912.128 80.087L921.582 72.4075Z" fill="#22635A"/>
<path d="M924.04 174.874C990.851 179.67 1041.13 237.721 1036.34 304.543C1031.54 371.355 973.49 421.638 906.668 416.841C839.857 412.044 789.573 353.993 794.371 287.171C799.167 220.36 857.218 170.076 924.04 174.874Z" stroke="white" stroke-width="1.54099"/>
<path d="M906.899 413.769C972.019 418.444 1028.6 369.444 1033.27 304.325C1037.95 239.205 988.95 182.625 923.83 177.95C858.711 173.274 802.131 222.274 797.455 287.394C792.78 352.513 841.78 409.093 906.899 413.769Z" stroke="white" stroke-width="1.54099"/>
<path d="M901.482 489.226C1008.28 496.894 1101.07 416.535 1108.73 309.741C1116.4 202.947 1036.04 110.158 929.248 102.49C822.454 94.8231 729.664 175.181 721.997 281.975C714.329 388.769 794.688 481.559 901.482 489.226Z" stroke="white" stroke-width="1.54099"/>
<path d="M901.251 492.442C1009.82 500.237 1104.16 418.541 1111.95 309.97C1119.75 201.399 1038.05 107.065 929.479 99.2703C820.908 91.4753 726.574 173.171 718.779 281.742C710.984 390.313 792.68 484.647 901.251 492.442Z" stroke="white" stroke-width="1.54099"/>
<path d="M1065.14 264.687L776.864 243.99L773.87 285.7L1062.15 306.397L1065.14 264.687Z" fill="#22635A"/>
<path d="M751.504 183.093C753.424 179.096 759.241 179.514 760.56 183.743L762.604 190.259C763.011 191.555 763.936 192.611 765.15 193.198L771.306 196.152C775.303 198.073 774.886 203.889 770.656 205.208L764.141 207.252C762.844 207.659 761.789 208.584 761.201 209.798L758.247 215.955C756.327 219.951 750.51 219.534 749.191 215.304L747.147 208.789C746.74 207.492 745.815 206.437 744.601 205.85L738.445 202.896C734.448 200.975 734.865 195.158 739.095 193.839L745.61 191.795C746.907 191.388 747.962 190.463 748.55 189.25L751.504 183.093Z" fill="#E6F9CE"/>
<path d="M1015.35 215.931C1017.27 211.934 1023.08 212.352 1024.41 216.582L1026.46 223.097C1026.86 224.394 1027.79 225.449 1029 226.037L1035.16 228.991C1039.16 230.911 1038.74 236.728 1034.51 238.047L1027.99 240.091C1026.71 240.499 1025.64 241.423 1025.05 242.637L1022.1 248.793C1020.18 252.79 1014.36 252.372 1013.03 248.142L1010.99 241.627C1010.58 240.33 1009.66 239.275 1008.44 238.687L1002.29 235.733C998.29 233.813 998.707 227.996 1002.94 226.677L1009.45 224.633C1010.75 224.226 1011.8 223.301 1012.39 222.088L1015.35 215.931Z" fill="#E6F9CE"/>
<path d="M839.938 340.003C841.859 336.006 847.675 336.424 848.995 340.653L851.039 347.169C851.447 348.454 852.37 349.521 853.584 350.108L859.741 353.062C863.738 354.983 863.32 360.799 859.091 362.118L852.575 364.163C851.29 364.57 850.223 365.494 849.636 366.708L846.682 372.865C844.761 376.861 838.945 376.444 837.626 372.214L835.581 365.699C835.174 364.403 834.25 363.347 833.036 362.76L826.879 359.806C822.882 357.885 823.3 352.068 827.529 350.749L834.045 348.705C835.341 348.298 836.397 347.374 836.984 346.16L839.938 340.003Z" fill="#E6F9CE"/>
<path d="M1028.67 249.684C1029.77 247.384 1033.12 247.625 1033.88 250.058L1034.82 253.049C1035.06 253.788 1035.58 254.404 1036.29 254.744L1039.12 256.102C1041.42 257.201 1041.17 260.552 1038.74 261.311L1035.75 262.252C1035.01 262.488 1034.4 263.01 1034.06 263.72L1032.7 266.545C1031.6 268.845 1028.25 268.604 1027.49 266.171L1026.55 263.18C1026.31 262.441 1025.79 261.826 1025.08 261.486L1022.25 260.127C1019.95 259.028 1020.2 255.678 1022.63 254.919L1025.62 253.977C1026.36 253.742 1026.97 253.219 1027.31 252.51L1028.67 249.684Z" fill="white"/>
<path d="M788.313 311.186C789.589 308.536 793.453 308.813 794.338 311.619L795.267 314.578C795.533 315.439 796.147 316.138 796.961 316.533L799.756 317.876C802.407 319.152 802.129 323.016 799.324 323.9L796.365 324.83C795.504 325.095 794.795 325.709 794.409 326.523L793.067 329.319C791.791 331.97 787.927 331.692 787.043 328.886L786.113 325.928C785.847 325.066 785.233 324.367 784.419 323.972L781.624 322.629C778.973 321.353 779.251 317.489 782.056 316.605L785.015 315.676C785.876 315.41 786.575 314.796 786.971 313.982L788.313 311.186Z" fill="white"/>
<path d="M797.288 232.34C798.804 229.193 803.393 229.522 804.443 232.854L805.546 236.368C805.862 237.391 806.592 238.221 807.558 238.691L810.878 240.285C814.026 241.8 813.697 246.389 810.365 247.44L806.851 248.543C805.828 248.859 804.986 249.588 804.528 250.555L802.934 253.875C801.418 257.023 796.829 256.693 795.779 253.361L794.675 249.848C794.36 248.825 793.63 247.994 792.664 247.525L789.344 245.93C786.196 244.415 786.525 239.826 789.857 238.776L793.371 237.672C794.394 237.357 795.224 236.627 795.694 235.66L797.288 232.34Z" fill="white"/>
<path d="M1072.13 235.643C1074.05 231.646 1079.86 232.064 1081.2 236.294L1082.82 241.49C1083.23 242.775 1084.15 243.842 1085.37 244.429L1090.29 246.783C1094.29 248.704 1093.87 254.521 1089.64 255.84L1084.43 257.467C1083.14 257.874 1082.08 258.798 1081.49 260.012L1079.14 264.934C1077.22 268.93 1071.4 268.513 1070.07 264.283L1068.44 259.075C1068.04 257.779 1067.11 256.723 1065.9 256.136L1060.98 253.782C1056.98 251.861 1057.4 246.045 1061.63 244.726L1066.84 243.099C1068.12 242.691 1069.19 241.767 1069.77 240.553L1072.13 235.643Z" fill="#ACE86E"/>
<path d="M858.689 349.92C860.374 346.418 865.472 346.784 866.629 350.49L868.057 355.05C868.41 356.175 869.221 357.112 870.285 357.622L874.593 359.687C878.096 361.372 877.731 366.459 874.023 367.627L869.464 369.055C868.338 369.408 867.402 370.219 866.892 371.283L864.826 375.591C863.152 379.095 858.043 378.728 856.887 375.021L855.458 370.462C855.105 369.336 854.295 368.4 853.231 367.89L848.922 365.824C845.42 364.139 845.785 359.053 849.492 357.885L854.052 356.456C855.177 356.103 856.114 355.293 856.624 354.229L858.689 349.92Z" fill="#ACE86E"/>
<path d="M895.321 206.445C895.454 206.455 895.575 206.463 895.707 206.484L895.729 206.485C895.84 206.493 895.94 206.5 896.049 206.519C896.105 206.523 896.171 206.528 896.226 206.543C896.303 206.549 896.391 206.566 896.467 206.583C896.556 206.589 896.654 206.618 896.741 206.636C896.851 206.655 896.961 206.674 897.07 206.704C897.136 206.709 897.201 206.736 897.266 206.751C897.3 206.754 897.322 206.755 897.354 206.769C897.453 206.787 897.551 206.816 897.638 206.834C897.672 206.836 897.704 206.849 897.747 206.864C897.781 206.866 897.814 206.868 897.834 206.892C897.834 206.892 897.856 206.894 897.868 206.895C897.868 206.895 897.879 206.895 897.89 206.896C897.901 206.897 897.912 206.898 897.923 206.899L897.934 206.899C897.934 206.899 897.945 206.9 897.956 206.901C897.956 206.901 897.978 206.902 897.989 206.903C898.022 206.906 898.044 206.907 898.076 206.932L898.098 206.933C898.098 206.933 898.109 206.934 898.12 206.935C898.153 206.937 898.186 206.951 898.229 206.965C898.273 206.979 898.316 206.993 898.36 207.008C898.393 207.01 898.425 207.024 898.469 207.038C898.469 207.038 898.48 207.039 898.491 207.039L898.546 207.043C898.546 207.043 898.6 207.069 898.621 207.082L898.654 207.084C898.654 207.084 898.664 207.096 898.675 207.097C898.72 207.1 898.751 207.125 898.795 207.139C898.957 207.195 899.13 207.263 899.292 207.33C899.314 207.332 899.336 207.345 899.357 207.357C899.357 207.357 899.368 207.358 899.379 207.359C899.379 207.359 899.39 207.36 899.401 207.36C899.401 207.36 899.401 207.36 899.412 207.361C899.412 207.361 899.412 207.361 899.423 207.362L899.445 207.364C899.479 207.366 899.51 207.39 899.554 207.405C899.554 207.405 899.554 207.405 899.565 207.405C899.576 207.406 899.587 207.407 899.597 207.419C899.608 207.42 899.63 207.421 899.641 207.433C899.641 207.433 899.652 207.434 899.663 207.435L899.685 207.436C899.707 207.438 899.728 207.45 899.738 207.462C899.75 207.463 899.761 207.464 899.771 207.476C899.771 207.476 899.793 207.477 899.804 207.478C899.804 207.478 899.815 207.479 899.826 207.48C899.848 207.481 899.87 207.494 899.88 207.506C899.891 207.507 899.912 207.519 899.934 207.532C899.967 207.534 899.987 207.558 900.02 207.571C900.052 207.585 900.084 207.598 900.106 207.611C900.106 207.611 900.128 207.613 900.138 207.624C900.17 207.638 900.213 207.663 900.245 207.677C900.245 207.677 900.245 207.677 900.257 207.677C900.279 207.679 900.299 207.703 900.321 207.715C900.321 207.715 900.321 207.715 900.332 207.716C900.332 207.716 900.343 207.717 900.354 207.718C900.461 207.77 900.579 207.834 900.685 207.897C900.707 207.899 900.718 207.911 900.739 207.923C900.761 207.925 900.771 207.948 900.793 207.949L900.815 207.951C900.815 207.951 900.868 207.988 900.899 208.013C900.921 208.014 900.931 208.037 900.953 208.039C900.953 208.039 900.964 208.039 900.975 208.04C900.975 208.04 900.975 208.04 900.986 208.041C900.986 208.041 900.986 208.041 900.997 208.042C901.061 208.08 901.114 208.117 901.178 208.155C901.221 208.18 901.252 208.205 901.295 208.23C901.338 208.255 901.38 208.28 901.422 208.317C901.528 208.391 901.634 208.465 901.74 208.54C901.845 208.614 901.951 208.688 902.045 208.773C902.108 208.822 902.183 208.872 902.245 208.932C902.308 208.981 902.382 209.041 902.444 209.102C902.57 209.211 902.706 209.32 902.831 209.441C903.122 209.717 903.413 210.005 903.68 210.313C902.323 211.56 901.278 213.108 900.598 214.838C900.508 214.698 900.409 214.535 900.298 214.372C900.258 214.313 900.218 214.255 900.189 214.197L900.098 214.068C900.098 214.068 900.088 214.056 900.077 214.044C900.036 213.997 900.007 213.939 899.966 213.892C899.957 213.869 899.935 213.856 899.926 213.833C899.916 213.811 899.895 213.798 899.885 213.775C899.855 213.739 899.825 213.693 899.794 213.657C899.754 213.599 899.702 213.54 899.661 213.492L899.65 213.491C899.65 213.491 899.611 213.422 899.579 213.397C899.579 213.397 899.569 213.385 899.559 213.374C899.538 213.35 899.518 213.326 899.498 213.291L899.446 213.232C899.446 213.232 899.425 213.22 899.426 213.209C899.405 213.185 899.374 213.16 899.353 213.137C899.333 213.113 899.312 213.089 899.292 213.065C899.292 213.065 899.292 213.065 899.281 213.054C899.281 213.054 899.281 213.054 899.271 213.042L899.23 212.994C899.23 212.994 899.23 212.994 899.22 212.983C899.21 212.971 899.188 212.958 899.179 212.935C899.179 212.935 899.179 212.935 899.168 212.934C899.137 212.899 899.105 212.874 899.075 212.839C899.064 212.827 899.044 212.803 899.022 212.791C899.001 212.778 898.992 212.755 898.97 212.742C898.97 212.742 898.908 212.682 898.876 212.658C898.876 212.658 898.855 212.645 898.845 212.633C898.813 212.609 898.782 212.584 898.751 212.549C898.741 212.537 898.719 212.524 898.709 212.512C898.709 212.512 898.688 212.5 898.677 212.488C898.677 212.488 898.636 212.452 898.614 212.439C898.614 212.439 898.594 212.415 898.583 212.414C898.562 212.391 898.53 212.377 898.498 212.353C898.467 212.328 898.435 212.304 898.403 212.279C898.403 212.279 898.382 212.267 898.372 212.255L898.32 212.207C898.32 212.207 898.288 212.182 898.267 212.169C898.245 212.168 898.235 212.145 898.214 212.132C898.182 212.108 898.151 212.083 898.119 212.059C898.108 212.058 898.088 212.034 898.077 212.033C898.055 212.021 898.024 211.996 897.991 211.983C897.991 211.983 897.991 211.983 897.98 211.982C897.949 211.958 897.906 211.932 897.874 211.919C897.874 211.919 897.863 211.918 897.851 211.917C897.84 211.916 897.82 211.893 897.809 211.892C897.787 211.89 897.776 211.879 897.755 211.866C897.734 211.853 897.712 211.841 897.691 211.828L897.617 211.778C897.617 211.778 897.553 211.74 897.521 211.727C897.478 211.702 897.446 211.688 897.403 211.663C897.36 211.638 897.317 211.623 897.284 211.61C897.262 211.608 897.231 211.584 897.209 211.571C897.177 211.558 897.145 211.544 897.112 211.531C897.112 211.531 897.101 211.53 897.09 211.529C897.09 211.529 897.068 211.528 897.057 211.527C897.046 211.526 897.035 211.525 897.025 211.513C897.002 211.512 896.981 211.499 896.96 211.486C896.96 211.486 896.949 211.486 896.938 211.485L896.916 211.483C896.872 211.469 896.83 211.444 896.786 211.43C896.743 211.415 896.699 211.401 896.656 211.387C896.601 211.372 896.537 211.345 896.482 211.33C896.428 211.315 896.363 211.288 896.308 211.273C896.254 211.258 896.188 211.242 896.134 211.227C896.079 211.212 896.014 211.196 895.959 211.181C895.904 211.177 895.85 211.151 895.795 211.147C895.795 211.147 895.773 211.146 895.762 211.145C895.706 211.141 895.652 211.126 895.597 211.111L895.531 211.106C895.443 211.089 895.367 211.072 895.278 211.066C895.124 211.055 894.97 211.032 894.815 211.021C892.78 210.875 890.877 211.528 889.46 212.849C888.066 214.149 887.209 216.021 887.058 218.122C886.907 220.223 887.515 222.134 888.762 223.647C889.988 225.146 891.68 226.046 893.538 226.179C895.041 226.287 896.421 225.953 897.542 225.211C898.616 224.487 899.371 223.419 899.66 222.184L899.661 222.162L899.688 221.786L894.325 221.401L894.604 217.519L905.916 218.332L905.866 219.028C905.856 219.172 905.845 219.327 905.834 219.471C905.531 222.616 904.474 225.264 902.735 227.184C902.662 227.268 902.591 227.34 902.518 227.424C902.445 227.508 902.362 227.58 902.29 227.652C902.17 227.777 902.04 227.89 901.909 228.014C899.679 229.966 896.658 230.86 893.153 230.608C889.647 230.357 886.737 228.947 884.613 226.628C882.439 224.249 881.377 221.082 881.619 217.71C881.861 214.337 883.388 211.19 885.914 209.126C888.383 207.103 891.643 206.125 895.093 206.373L895.159 206.378C895.226 206.383 895.292 206.387 895.358 206.392L895.321 206.445ZM924.638 220.432C924.088 228.095 919.212 232.535 911.914 232.011C908.541 231.769 905.498 230.35 903.375 228.03C903.292 227.935 903.199 227.84 903.117 227.745C904.503 226.244 905.486 224.325 906.025 222.074C906.291 223.171 906.795 224.197 907.511 225.07C908.737 226.57 910.428 227.47 912.286 227.603C913.79 227.711 915.17 227.377 916.28 226.623C917.354 225.899 918.109 224.831 918.397 223.607L918.399 223.585L918.426 223.209L913.383 222.847L913.662 218.965L924.653 219.755L924.603 220.451L924.638 220.432ZM913.854 207.776C916.021 207.931 917.991 208.517 919.687 209.517C921.372 210.505 922.752 211.871 923.795 213.591L918.989 215.669C917.654 213.672 915.843 212.587 913.587 212.425C911.552 212.279 909.649 212.931 908.232 214.252C907.243 215.17 906.523 216.375 906.146 217.759L900.628 217.363C900.682 217.078 900.758 216.794 900.833 216.522C900.866 216.38 900.908 216.249 900.952 216.108C900.994 215.978 901.037 215.847 901.08 215.717C901.722 213.896 902.76 212.292 904.141 211.002C904.213 210.929 904.296 210.857 904.379 210.785C904.462 210.714 904.545 210.642 904.627 210.581C904.639 210.571 904.663 210.55 904.686 210.541C907.154 208.517 910.414 207.54 913.864 207.787L913.854 207.776Z" fill="white"/>
<path d="M950.308 234.902C944.779 234.505 941.205 231.181 941.297 226.197L945.421 226.493C945.458 229.23 947.453 231.018 950.571 231.242C953.457 231.449 955.363 230.141 955.521 227.929C955.68 225.718 953.994 224.285 951.052 224.074L947.392 223.811L947.63 220.494L951.29 220.757C953.668 220.927 955.224 219.528 955.357 217.681C955.497 215.735 954.019 214.184 951.674 214.015C949.33 213.847 947.375 215.218 946.91 217.519L942.752 217.221C943.55 212.765 947.245 210.063 952.078 210.41C956.633 210.737 959.696 213.591 959.434 217.24C959.234 220.027 957.167 222.035 954.305 222.429C957.709 223.318 959.629 225.679 959.405 228.797C959.118 232.789 955.504 235.286 950.307 234.913L950.308 234.902Z" fill="white"/>
<path d="M941.646 216.818C941.091 224.558 930.597 223.805 929.231 229.208L940.266 230.001L940.006 233.628L924.414 232.508L924.573 230.297C925.219 221.307 937.118 222.606 937.545 216.668C937.701 214.489 936.303 212.911 933.981 212.744C931.537 212.568 929.505 214.079 929.223 217.082L924.999 216.778C925.744 211.508 929.586 208.783 934.307 209.122C939.029 209.461 941.951 212.571 941.645 216.829L941.646 216.818Z" fill="white"/>
<path d="M778.79 250.451L776.138 287.384L769.758 286.926L771.554 261.913L759.098 286.161L754.564 285.835L745.744 260.227L743.905 285.07L737.524 284.612L740.176 247.679L747.408 248.198L757.464 277.34L771.58 249.933L778.812 250.453L778.79 250.451ZM789.365 289.078C784.411 288.723 780.566 285.312 780.926 280.303C781.202 276.455 783.469 272.905 791.945 272.347L797.641 271.956L797.664 271.635C797.88 268.627 796.527 266.729 793.155 266.487C789.782 266.245 788.242 267.724 787.628 270.392L782.131 268.619C783.932 263.502 787.447 260.998 793.728 261.449C799.588 261.87 804.489 265.134 803.996 272.001L802.753 289.306L797.424 288.923L796.909 286.497C795.741 287.902 793.566 289.391 789.353 289.089L789.365 289.078ZM791.425 284.08C794.278 284.285 796.876 282.771 797.103 279.608L797.323 276.545L792.047 276.967C788.739 277.207 787.189 278.207 787.034 280.375C786.89 282.376 788.528 283.872 791.436 284.081L791.425 284.08ZM816.789 291.047C812.73 290.756 809.536 287.87 809.907 282.706L810.892 268.994L806.358 268.669L806.756 263.129L811.289 263.454L811.782 256.599L818.118 257.054L817.626 263.909L824.327 264.391L823.929 269.93L817.228 269.449L816.308 282.265C816.167 284.223 817.002 285.127 818.584 285.241C819.745 285.324 820.564 284.905 821.07 284.519L823.391 289.187C822.586 290.03 820.427 291.308 816.789 291.047ZM851.165 266.306L849.274 292.635L844.055 292.26L843.386 289.033C841.594 291.083 838.993 292.641 835.089 292.361C829.074 291.929 825.896 288.2 826.449 280.493L827.589 264.614L833.926 265.069L832.846 280.107C832.508 284.807 834.574 286.378 837.527 286.59C840.744 286.821 843.495 284.74 843.817 280.25L844.851 265.853L851.187 266.308L851.165 266.306ZM854.04 292.977L855.931 266.648L861.15 267.023L861.826 270.15C863.068 268.328 865.426 266.597 868.744 266.835C870.856 266.986 872.392 267.73 873.187 268.421L870.522 273.798C870.022 273.34 868.95 272.785 867.424 272.675C864.361 272.455 861.71 274.699 861.396 279.078L860.365 293.431L854.04 292.977ZM897.265 284.943L877.582 283.53C877.608 286.878 880.216 290.344 884.385 290.643C888.078 290.908 890.349 288.848 891.108 287.091L896.321 289.11C894.492 293.225 890.445 296.324 884.01 295.862C876.468 295.321 871.08 289.099 871.663 280.971C872.247 272.844 878.465 267.511 885.951 268.048C893.437 268.585 898.005 274.482 897.429 282.499L897.255 284.92L897.265 284.943ZM892.018 279.687C892.034 277.299 890.175 273.62 885.641 273.294C881.362 272.987 878.788 275.714 877.986 278.68L892.018 279.687ZM913.974 297.28L916.625 260.347L930.182 261.32C937.834 261.87 941.287 266.252 940.875 272.002C940.586 276.016 938.36 278.235 935.674 279.42L935.666 279.531C938.193 280.557 941.336 283.228 940.957 288.503C940.495 294.938 935.393 298.818 928.006 298.288L913.974 297.28ZM921.951 276.268L928.862 276.764C932.445 277.021 934.332 275.201 934.552 272.138C934.772 269.075 932.895 267.195 929.566 266.956L922.655 266.46L921.951 276.268ZM920.814 292.103L928.356 292.644C932.414 292.935 934.328 290.739 934.536 287.842C934.744 284.944 933.178 282.442 928.899 282.135L921.568 281.609L920.814 292.103ZM969.373 274.793L967.482 301.122L962.263 300.747L961.594 297.52C959.802 299.57 957.201 301.128 953.297 300.848C947.282 300.416 944.104 296.687 944.657 288.98L945.797 273.101L952.134 273.555L951.054 288.594C950.716 293.294 952.782 294.865 955.735 295.077C958.952 295.308 961.703 293.227 962.025 288.737L963.059 274.34L969.395 274.795L969.373 274.793ZM977.669 271.788C975.612 271.64 974.097 269.831 974.245 267.774C974.392 265.717 976.15 264.143 978.207 264.29C980.264 264.438 981.879 266.255 981.731 268.311C981.583 270.368 979.715 271.934 977.669 271.788ZM972.469 301.48L974.36 275.151L980.696 275.606L978.806 301.935L972.469 301.48ZM983.759 302.29L986.411 265.357L992.747 265.812L990.096 302.745L983.759 302.29ZM1006.4 304.66C999.066 304.134 994.072 297.518 994.625 289.811C995.179 282.103 1000.84 276.308 1008.34 276.846C1012.35 277.134 1014.96 279.178 1016.24 281.126L1017.22 267.569L1023.55 268.024L1020.9 304.957L1015.68 304.582L1015.07 301.304C1013.63 302.957 1010.78 304.975 1006.4 304.66ZM1007.71 299.031C1011.94 299.334 1015.23 296.125 1015.58 291.326C1015.92 286.527 1013.1 282.934 1008.89 282.632C1004.68 282.33 1001.31 285.534 1000.97 290.277C1000.63 295.021 1003.54 298.731 1007.71 299.031ZM1051.06 295.985L1031.37 294.572C1031.4 297.919 1034.02 301.386 1038.18 301.685C1041.87 301.95 1044.14 299.89 1044.9 298.133L1050.11 300.152C1048.28 304.267 1044.24 307.366 1037.8 306.904C1030.26 306.363 1024.87 300.14 1025.46 292.013C1026.04 283.885 1032.26 278.552 1039.74 279.09C1047.23 279.627 1051.8 285.524 1051.22 293.54L1051.05 295.962L1051.06 295.985ZM1045.81 290.729C1045.83 288.34 1043.97 284.661 1039.43 284.336C1035.16 284.029 1032.58 286.756 1031.78 289.721L1045.81 290.729ZM1053.87 307.324L1055.76 280.995L1060.98 281.37L1061.65 284.497C1062.89 282.675 1065.25 280.943 1068.57 281.181C1070.68 281.333 1072.22 282.077 1073.01 282.768L1070.35 288.145C1069.85 287.687 1068.78 287.132 1067.25 287.022C1064.19 286.802 1061.54 289.046 1061.22 293.425L1060.19 307.778L1053.85 307.323L1053.87 307.324ZM1082.03 310.091C1076.28 309.678 1072.59 306.445 1071.63 301.441L1077.35 300.051C1077.81 302.419 1079.04 304.574 1082.42 304.817C1085.27 305.022 1087.2 304.049 1087.34 302.147C1087.43 300.831 1086.67 299.654 1082.71 298.68C1077.29 297.28 1072.83 295.269 1073.22 289.774C1073.55 285.24 1077.66 281.823 1084.05 282.282C1089.33 282.661 1092.76 285.719 1093.54 290.543L1087.89 291.727C1087.55 289.791 1086.58 287.765 1083.68 287.557C1080.79 287.349 1079.27 288.563 1079.17 289.934C1079.04 291.725 1080.89 292.492 1084.22 293.376C1090.01 294.847 1093.71 297.18 1093.33 302.466C1092.99 307.165 1088.56 310.559 1082.07 310.093L1082.03 310.091ZM812.99 335.601L814.866 309.46L824.42 310.146C829.905 310.54 832.691 314.152 832.378 318.52C832.064 322.888 829.514 324.961 826.719 325.66L832.175 336.978L827.133 336.616L822.15 325.977L818.269 325.698L817.534 335.927L812.979 335.6L812.99 335.601ZM818.567 321.696L823.267 322.034C825.998 322.23 827.67 320.771 827.838 318.427C828.007 316.083 826.469 314.428 823.749 314.232L819.116 313.9L818.555 321.706L818.567 321.696ZM851.083 330.455L837.15 329.455C837.169 331.824 839.015 334.279 841.968 334.491C844.577 334.678 846.183 333.215 846.728 331.976L850.415 333.408C849.117 336.316 846.258 338.511 841.703 338.184C836.362 337.801 832.554 333.404 832.967 327.643C833.381 321.882 837.775 318.118 843.083 318.499C848.39 318.88 851.614 323.057 851.207 328.73L851.084 330.444L851.083 330.455ZM847.371 326.732C847.381 325.043 846.068 322.437 842.85 322.206C839.82 321.988 837.992 323.924 837.43 326.018L847.36 326.731L847.371 326.732ZM859.661 339.474C856.786 339.267 854.531 337.227 854.794 333.567L855.491 323.858L852.284 323.628L852.565 319.713L855.772 319.944L856.121 315.089L860.599 315.411L860.25 320.265L864.994 320.606L864.713 324.52L859.969 324.18L859.318 333.258C859.218 334.64 859.806 335.283 860.934 335.364C861.752 335.422 862.34 335.131 862.693 334.856L864.334 338.164C863.769 338.757 862.236 339.67 859.66 339.485L859.661 339.474ZM865.957 339.403L867.294 320.771L870.988 321.036L871.462 323.249C872.343 321.967 874.011 320.731 876.366 320.9C877.859 321.007 878.944 321.53 879.508 322.026L877.623 325.836C877.269 325.511 876.507 325.123 875.424 325.045C873.256 324.889 871.375 326.477 871.152 329.584L870.422 339.746L865.944 339.425L865.957 339.403ZM887.405 341.466C881.765 341.061 878.04 336.436 878.437 330.907C878.834 325.378 883.245 321.383 888.818 321.783C894.391 322.183 898.215 326.814 897.822 332.299C897.428 337.784 893 341.867 887.405 341.466ZM887.702 337.33C890.687 337.544 893.103 335.317 893.342 331.989C893.581 328.66 891.505 326.155 888.519 325.94C885.534 325.726 883.162 327.957 882.926 331.241C882.69 334.525 884.683 337.113 887.702 337.33ZM909.502 342.53L911.379 316.389L920.944 317.076C926.429 317.47 929.215 321.082 928.901 325.45C928.588 329.818 926.038 331.891 923.242 332.59L928.699 343.908L923.656 343.546L918.674 332.907L914.792 332.628L914.058 342.857L909.502 342.53ZM915.08 328.625L919.79 328.964C922.522 329.16 924.194 327.701 924.362 325.357C924.53 323.013 922.993 321.358 920.273 321.162L915.64 320.83L915.079 328.636L915.08 328.625ZM938.447 345.13C932.808 344.725 929.083 340.101 929.48 334.572C929.877 329.043 934.287 325.047 939.861 325.447C945.434 325.848 949.258 330.479 948.864 335.964C948.471 341.448 944.043 345.532 938.447 345.13ZM938.744 340.995C941.73 341.209 944.146 338.982 944.385 335.653C944.624 332.325 942.548 329.819 939.562 329.605C936.576 329.391 934.204 331.621 933.969 334.905C933.733 338.19 935.726 340.778 938.744 340.995ZM968.75 328.055L967.412 346.687L963.719 346.422L963.25 344.132C961.978 345.586 960.143 346.688 957.378 346.489C953.121 346.184 950.865 343.543 951.257 338.092L952.063 326.857L956.542 327.179L955.778 337.816C955.539 341.145 957.004 342.261 959.094 342.411C961.372 342.575 963.311 341.102 963.539 337.929L964.271 327.734L968.75 328.055ZM970.785 346.93L972.122 328.297L975.816 328.562L976.285 330.852C977.555 329.41 979.391 328.297 982.156 328.495C986.38 328.798 988.671 331.408 988.281 336.849L987.471 348.128L982.992 347.806L983.759 337.124C983.995 333.84 982.534 332.679 980.444 332.529C978.166 332.366 976.226 333.838 975.998 337.012L975.264 347.24L970.785 346.919L970.785 346.93ZM999.033 349.48C993.847 349.108 990.315 344.43 990.707 338.968C991.099 333.505 995.105 329.414 1000.41 329.795C1003.25 329.999 1005.1 331.443 1006.01 332.82L1006.7 323.222L1011.18 323.543L1009.3 349.684L1005.61 349.419L1005.17 347.098C1004.14 348.258 1002.13 349.691 999.034 349.469L999.033 349.48ZM999.952 345.5C1002.94 345.715 1005.28 343.438 1005.52 340.043C1005.77 336.648 1003.77 334.104 1000.79 333.89C997.8 333.675 995.426 335.939 995.185 339.301C994.943 342.662 997.011 345.289 999.952 345.5Z" fill="white"/>
<path d="M807.203 157.66L814.332 152.326L836.815 182.394L829.685 187.728L807.203 157.66Z" stroke="white" stroke-width="2.21725"/>
<path d="M879.389 122.884L877.763 162.88L868.477 165.893L843.623 134.487L852.806 131.512L869.424 153.012L870.206 125.859L879.389 122.884Z" stroke="white" stroke-width="2.21725"/>
<path d="M900.82 156.001C897.858 154.221 895.593 151.869 894.026 148.922C892.459 145.976 891.628 142.848 891.533 139.518C891.441 136.155 892.093 132.967 893.488 129.944C894.883 126.921 897.017 124.44 899.878 122.523C902.739 120.605 906.225 119.577 910.335 119.461C914.444 119.345 917.987 120.166 920.95 121.924C923.914 123.681 926.179 126.034 927.746 128.98C929.313 131.927 930.143 135.077 930.235 138.44C930.33 141.759 929.679 144.936 928.272 147.969C926.877 150.992 924.731 153.483 921.858 155.422C918.984 157.361 915.498 158.389 911.422 158.508C907.312 158.624 903.77 157.791 900.808 156.012L900.82 156.001ZM916.849 148.549C918.39 147.526 919.544 146.153 920.302 144.429C921.059 142.705 921.407 140.796 921.348 138.68C921.25 135.394 920.264 132.722 918.387 130.687C916.499 128.651 913.902 127.675 910.583 127.77C907.22 127.862 904.672 128.98 902.929 131.122C901.185 133.264 900.357 135.984 900.443 139.269C900.532 142.521 901.519 145.181 903.405 147.24C905.292 149.298 907.888 150.285 911.218 150.19C913.435 150.127 915.319 149.584 916.859 148.561L916.849 148.549Z" stroke="white" stroke-width="2.21725"/>
<path d="M949.56 131.982L939.746 129.665L941.66 121.578L969.956 128.266L968.042 136.354L958.227 134.038L951.505 162.487L942.838 160.442L949.56 131.993L949.56 131.982Z" stroke="white" stroke-width="2.21725"/>
<path d="M983.06 133.372L1004.95 144.269L1001.37 151.47L987.438 144.535L984.425 150.587L996.24 156.47L992.772 163.435L980.957 157.551L977.878 163.744L991.807 170.679L988.223 177.88L966.331 166.983L983.06 133.372Z" stroke="white" stroke-width="2.21725"/>
<path d="M1018 152.622L1028.93 162.054C1031.47 164.248 1033.26 166.777 1034.3 169.63C1035.33 172.483 1035.49 175.473 1034.76 178.611C1034.04 181.749 1032.41 184.789 1029.86 187.74C1027.24 190.776 1024.37 192.804 1021.24 193.835C1018.11 194.866 1015.06 195.024 1012.07 194.321C1009.09 193.618 1006.46 192.284 1004.19 190.321L993.473 181.071L1018.01 152.645L1018 152.622ZM1009.32 184.098C1011.67 186.134 1014.08 186.829 1016.55 186.195C1019.01 185.561 1021.21 184.118 1023.15 181.868C1027.82 176.456 1027.78 171.685 1023.01 167.575L1019.47 164.52L1005.45 180.764L1009.32 184.098Z" stroke="white" stroke-width="2.21725"/>
<path d="M1023.64 432.376L1016.51 437.711L994.025 407.643L1001.15 402.308L1023.64 432.376Z" stroke="white" stroke-width="2.21725"/>
<path d="M951.451 467.141L953.078 427.145L962.364 424.132L987.218 455.538L978.035 458.513L961.418 437.002L960.635 464.155L951.452 467.13L951.451 467.141Z" stroke="white" stroke-width="2.21725"/>
<path d="M930.019 434.027C932.982 435.807 935.247 438.159 936.814 441.106C938.38 444.053 939.212 447.18 939.306 450.51C939.398 453.873 938.747 457.061 937.351 460.095C935.956 463.118 933.821 465.599 930.961 467.517C928.1 469.434 924.614 470.462 920.505 470.567C916.395 470.684 912.853 469.862 909.889 468.105C906.925 466.347 904.66 463.995 903.093 461.048C901.527 458.101 900.697 454.952 900.605 451.588C900.51 448.269 901.16 445.093 902.567 442.059C903.962 439.036 906.109 436.545 908.982 434.606C911.855 432.667 915.341 431.639 919.418 431.521C923.528 431.405 927.069 432.237 930.031 434.017L930.019 434.027ZM913.99 441.479C912.45 442.502 911.295 443.875 910.538 445.599C909.781 447.323 909.432 449.232 909.492 451.348C909.578 454.633 910.564 457.305 912.452 459.341C914.329 461.377 916.938 462.353 920.257 462.258C923.62 462.166 926.168 461.048 927.911 458.906C929.654 456.764 930.483 454.045 930.396 450.76C930.308 447.508 929.32 444.847 927.434 442.789C925.548 440.731 922.951 439.744 919.621 439.838C917.405 439.901 915.521 440.444 913.98 441.467L913.99 441.479Z" stroke="white" stroke-width="2.21725"/>
<path d="M881.281 458.058L891.095 460.374L889.181 468.462L860.885 461.773L862.799 453.685L872.614 456.002L879.336 427.553L888.003 429.598L881.281 458.047L881.281 458.058Z" stroke="white" stroke-width="2.21725"/>
<path d="M847.78 456.653L825.888 445.756L829.473 438.555L843.402 445.491L846.415 439.438L834.6 433.555L838.068 426.591L849.883 432.474L852.962 426.282L839.033 419.346L842.617 412.146L864.509 423.043L847.78 456.653Z" stroke="white" stroke-width="2.21725"/>
<path d="M812.839 437.404L801.912 427.972C799.368 425.778 797.583 423.249 796.543 420.395C795.514 417.543 795.351 414.552 796.076 411.414C796.802 408.277 798.431 405.237 800.977 402.285C803.596 399.25 806.465 397.222 809.595 396.191C812.726 395.16 815.783 395.001 818.767 395.704C821.751 396.408 824.378 397.741 826.649 399.705L837.366 408.955L812.829 437.381L812.839 437.404ZM821.523 405.928C819.168 403.892 816.762 403.196 814.293 403.83C811.825 404.465 809.631 405.908 807.691 408.158C803.024 413.569 803.059 418.34 807.832 422.451L811.371 425.495L825.386 409.251L821.524 405.917L821.523 405.928Z" stroke="white" stroke-width="2.21725"/>
</g>
<path d="M87.2566 593.587C88.2415 593.587 89.1323 593.848 89.9289 594.369C90.74 594.876 91.3701 595.571 91.8191 596.455C92.2826 597.324 92.5144 598.28 92.5144 599.323C92.5144 600.38 92.2899 601.343 91.8408 602.212C91.4063 603.081 90.7907 603.769 89.9941 604.276C89.1975 604.783 88.2922 605.037 87.2783 605.037C86.5107 605.037 85.8371 604.892 85.2578 604.602C84.6929 604.312 84.2439 603.95 83.9107 603.516V609.099H81.3036V593.891H83.4545L83.8021 595.216C84.1352 594.767 84.5915 594.383 85.1709 594.065C85.7502 593.746 86.4455 593.587 87.2566 593.587ZM86.8872 595.933C86.0182 595.933 85.3012 596.252 84.7363 596.889C84.1859 597.527 83.9107 598.338 83.9107 599.323C83.9107 600.307 84.1859 601.119 84.7363 601.756C85.3012 602.379 86.0182 602.69 86.8872 602.69C87.7563 602.69 88.4733 602.371 89.0381 601.734C89.6175 601.097 89.9072 600.293 89.9072 599.323C89.9072 598.338 89.6175 597.527 89.0381 596.889C88.4733 596.252 87.7563 595.933 86.8872 595.933ZM99.1465 605.037C98.0747 605.037 97.1115 604.783 96.2569 604.276C95.4023 603.769 94.7288 603.081 94.2363 602.212C93.7584 601.329 93.5194 600.358 93.5194 599.301C93.5194 598.243 93.7584 597.28 94.2363 596.411C94.7288 595.542 95.4023 594.854 96.2569 594.347C97.1259 593.84 98.0891 593.587 99.1465 593.587C100.218 593.587 101.182 593.84 102.036 594.347C102.891 594.854 103.564 595.542 104.057 596.411C104.549 597.28 104.795 598.243 104.795 599.301C104.795 600.358 104.549 601.329 104.057 602.212C103.564 603.081 102.891 603.769 102.036 604.276C101.182 604.783 100.218 605.037 99.1465 605.037ZM99.1465 602.625C100.016 602.625 100.74 602.314 101.319 601.691C101.898 601.053 102.188 600.257 102.188 599.301C102.188 598.345 101.898 597.555 101.319 596.933C100.74 596.31 100.016 595.998 99.1465 595.998C98.2629 595.998 97.5387 596.31 96.9739 596.933C96.409 597.555 96.1265 598.345 96.1265 599.301C96.1265 600.271 96.409 601.068 96.9739 601.691C97.5387 602.314 98.2629 602.625 99.1465 602.625ZM121.244 593.891L117.877 604.732H115.226L113.097 597.215L110.968 604.732H108.295L104.928 593.891H107.535L109.686 601.691L111.88 593.891H114.314L116.508 601.647L118.637 593.891H121.244ZM123.739 600.17C123.783 600.633 123.935 601.075 124.196 601.495C124.456 601.915 124.804 602.256 125.238 602.516C125.687 602.763 126.187 602.886 126.738 602.886C127.433 602.886 128.005 602.719 128.454 602.386C128.917 602.053 129.229 601.669 129.388 601.234L131.583 601.908C131.249 602.835 130.67 603.588 129.844 604.168C129.033 604.747 127.998 605.037 126.738 605.037C125.709 605.037 124.775 604.79 123.935 604.298C123.109 603.805 122.45 603.125 121.958 602.256C121.48 601.387 121.241 600.402 121.241 599.301C121.241 598.229 121.48 597.259 121.958 596.39C122.45 595.52 123.109 594.84 123.935 594.347C124.775 593.84 125.702 593.587 126.716 593.587C127.744 593.587 128.642 593.826 129.41 594.304C130.192 594.767 130.793 595.419 131.213 596.259C131.633 597.099 131.843 598.07 131.843 599.17V600.17H123.739ZM129.54 598.171C129.511 597.809 129.388 597.44 129.171 597.063C128.954 596.686 128.635 596.375 128.215 596.129C127.809 595.868 127.317 595.738 126.738 595.738C125.912 595.738 125.238 595.977 124.717 596.455C124.21 596.918 123.891 597.49 123.761 598.171H129.54ZM133.33 593.891H135.481L135.851 595.151C136.111 594.702 136.474 594.333 136.937 594.043C137.401 593.739 137.951 593.587 138.588 593.587C138.994 593.587 139.356 593.638 139.675 593.739C139.993 593.84 140.254 593.963 140.457 594.108L139.522 596.39C139.392 596.288 139.211 596.201 138.979 596.129C138.762 596.056 138.509 596.02 138.219 596.02C137.567 596.02 137.024 596.274 136.589 596.781C136.155 597.273 135.938 597.954 135.938 598.823V604.732H133.33V593.891ZM142.698 600.17C142.742 600.633 142.894 601.075 143.154 601.495C143.415 601.915 143.763 602.256 144.197 602.516C144.646 602.763 145.146 602.886 145.696 602.886C146.392 602.886 146.964 602.719 147.413 602.386C147.876 602.053 148.188 601.669 148.347 601.234L150.541 601.908C150.208 602.835 149.629 603.588 148.803 604.168C147.992 604.747 146.956 605.037 145.696 605.037C144.668 605.037 143.734 604.79 142.894 604.298C142.068 603.805 141.409 603.125 140.917 602.256C140.439 601.387 140.2 600.402 140.2 599.301C140.2 598.229 140.439 597.259 140.917 596.39C141.409 595.52 142.068 594.84 142.894 594.347C143.734 593.84 144.661 593.587 145.675 593.587C146.703 593.587 147.601 593.826 148.369 594.304C149.151 594.767 149.752 595.419 150.172 596.259C150.592 597.099 150.802 598.07 150.802 599.17V600.17H142.698ZM148.499 598.171C148.47 597.809 148.347 597.44 148.13 597.063C147.912 596.686 147.594 596.375 147.174 596.129C146.768 595.868 146.276 595.738 145.696 595.738C144.871 595.738 144.197 595.977 143.676 596.455C143.169 596.918 142.85 597.49 142.72 598.171H148.499ZM157.069 605.037C156.084 605.037 155.186 604.783 154.375 604.276C153.578 603.755 152.948 603.059 152.485 602.19C152.036 601.307 151.811 600.344 151.811 599.301C151.811 598.243 152.036 597.28 152.485 596.411C152.934 595.542 153.557 594.854 154.353 594.347C155.15 593.84 156.048 593.587 157.047 593.587C157.815 593.587 158.481 593.732 159.046 594.021C159.625 594.311 160.082 594.673 160.415 595.108V589.524H163.022V604.732H160.871L160.524 603.407C160.19 603.856 159.734 604.24 159.155 604.559C158.575 604.877 157.88 605.037 157.069 605.037ZM157.438 602.69C158.307 602.69 159.024 602.371 159.589 601.734C160.154 601.097 160.437 600.286 160.437 599.301C160.437 598.316 160.154 597.512 159.589 596.889C159.024 596.252 158.307 595.933 157.438 595.933C156.873 595.933 156.359 596.078 155.896 596.368C155.432 596.657 155.07 597.063 154.809 597.584C154.549 598.091 154.418 598.664 154.418 599.301C154.418 599.953 154.549 600.539 154.809 601.061C155.07 601.568 155.432 601.966 155.896 602.256C156.359 602.545 156.873 602.69 157.438 602.69ZM176.374 605.037C175.562 605.037 174.867 604.877 174.288 604.559C173.708 604.24 173.252 603.856 172.919 603.407L172.571 604.732H170.421V589.524H173.028V595.108C173.361 594.673 173.81 594.311 174.375 594.021C174.954 593.732 175.628 593.587 176.395 593.587C177.409 593.587 178.314 593.84 179.111 594.347C179.908 594.854 180.523 595.542 180.958 596.411C181.407 597.28 181.631 598.243 181.631 599.301C181.631 600.344 181.4 601.307 180.936 602.19C180.487 603.059 179.857 603.755 179.046 604.276C178.249 604.783 177.358 605.037 176.374 605.037ZM176.004 602.69C176.873 602.69 177.59 602.371 178.155 601.734C178.734 601.097 179.024 600.286 179.024 599.301C179.024 598.33 178.734 597.527 178.155 596.889C177.59 596.252 176.873 595.933 176.004 595.933C175.135 595.933 174.418 596.252 173.853 596.889C173.303 597.512 173.028 598.316 173.028 599.301C173.028 600.286 173.303 601.097 173.853 601.734C174.418 602.371 175.135 602.69 176.004 602.69ZM193.021 593.891V604.32C193.021 605.855 192.565 607.079 191.653 607.991C190.74 608.918 189.473 609.382 187.851 609.382C186.547 609.382 185.497 609.063 184.7 608.426C183.918 607.803 183.389 606.97 183.114 605.927L185.548 605.428C185.779 606.572 186.547 607.144 187.851 607.144C188.647 607.144 189.27 606.898 189.719 606.405C190.183 605.927 190.414 605.239 190.414 604.341V603.19L190.393 603.125C189.987 603.617 189.531 603.994 189.024 604.254C188.517 604.501 187.88 604.624 187.112 604.624C185.881 604.624 184.91 604.247 184.201 603.494C183.505 602.741 183.158 601.597 183.158 600.061V593.891H185.765V599.627C185.765 600.554 185.953 601.213 186.33 601.604C186.706 601.995 187.242 602.19 187.938 602.19C188.676 602.19 189.27 601.951 189.719 601.473C190.183 600.995 190.414 600.315 190.414 599.431V593.891H193.021Z" fill="#1F504A"/>
<g clip-path="url(#clip1_2449_8648)">
<path d="M245.874 609.797V592.1H240.866V586.91H256.498V592.101H251.49V609.798H245.875L245.874 609.797Z" fill="#130C03"/>
<path d="M204.84 598.448C204.84 591.345 210.273 586.488 217.133 586.488C221.261 586.488 224.994 588.157 227.392 591.74L222.444 594.319C221.108 592.498 219.378 591.527 217.193 591.527C213.338 591.527 210.637 594.532 210.637 598.478C210.637 602.424 213.581 605.368 217.011 605.368C219.834 605.368 221.868 603.669 222.232 601.422V601.392H217.436V597.082H228.515V598.053C228.515 605.52 224.053 610.194 216.951 610.194C210.242 610.194 204.84 605.368 204.84 598.448Z" fill="#130C03"/>
<path d="M232.365 609.797V586.91H237.98V609.797H232.365Z" fill="#130C03"/>
<path d="M305.989 609.797V586.91H311.604V609.797H305.989Z" fill="#130C03"/>
<path d="M332.5 586.91H337.994V609.797H333.441L321.968 595.379L322.059 609.797H316.535V586.91H321.21L332.684 601.237L332.502 586.91H332.5Z" fill="#130C03"/>
<path d="M270.103 605.003C266.613 605.003 263.668 602.271 263.668 598.356C263.668 594.653 266.491 591.709 270.165 591.709C271.973 591.709 273.553 592.393 274.701 593.526C275.256 591.756 276.118 590.101 277.265 588.621C275.257 587.281 272.814 586.518 270.194 586.518C263.456 586.518 257.87 591.556 257.87 598.325C257.87 605.428 263.485 610.193 270.103 610.193C272.745 610.193 275.206 609.453 277.226 608.138C276.093 606.66 275.238 604.995 274.692 603.203C273.525 604.331 271.923 605.003 270.103 605.003Z" fill="#130C03"/>
<path d="M290.23 586.518C286.001 586.518 282.227 588.502 280.002 591.653C278.682 593.524 277.906 595.805 277.906 598.325C277.906 600.846 278.679 603.272 279.989 605.14C282.21 608.307 285.977 610.193 290.139 610.193C296.908 610.193 302.494 605.336 302.494 598.385C302.494 591.435 296.939 586.518 290.23 586.518ZM290.139 605.003C286.649 605.003 283.705 602.271 283.705 598.356C283.705 594.653 286.527 591.709 290.201 591.709C293.874 591.709 296.697 594.622 296.697 598.387C296.697 602.151 293.874 605.003 290.14 605.003H290.139Z" fill="#130C03"/>
</g>
<defs>
<linearGradient id="paint0_linear_2449_8648" x1="600" y1="0" x2="600" y2="675" gradientUnits="userSpaceOnUse">
<stop offset="0.345" stop-color="white"/>
<stop offset="1" stop-color="#F4FCE9" stop-opacity="0.7"/>
</linearGradient>
<clipPath id="clip0_2449_8648">
<rect width="453.55" height="452.719" fill="white" transform="translate(705.438 53) rotate(4.10656)"/>
</clipPath>
<clipPath id="clip1_2449_8648">
<rect width="133.979" height="24.8621" fill="white" transform="translate(204.053 586.301)"/>
</clipPath>
</defs>
</svg>
