<svg width="600" height="600" viewBox="0 0 600 600" fill="none" xmlns="http://www.w3.org/2000/svg">
<g clip-path="url(#clip0_2469_8073)">
<rect width="600" height="600" fill="white"/>
<rect width="600" height="600" fill="url(#paint0_linear_2469_8073)"/>
<g filter="url(#filter0_d_2469_8073)">
<path d="M289.969 71.4252C295.607 66.1275 304.393 66.1275 310.031 71.4251L319.115 79.9606C323.742 84.3084 330.644 85.1802 336.207 82.1198L347.128 76.1116C353.907 72.3826 362.417 74.5675 366.56 81.1009L373.236 91.6272C376.637 96.9892 383.105 99.55 389.254 97.9692L401.327 94.8659C408.819 92.9397 416.518 97.1723 418.907 104.531L422.756 116.387C424.716 122.426 430.344 126.515 436.693 126.513L449.158 126.509C456.895 126.507 463.299 132.521 463.783 140.243L464.562 152.683C464.959 159.02 469.393 164.38 475.543 165.958L487.617 169.054C495.111 170.976 499.819 178.394 498.367 185.993L496.028 198.236C494.836 204.473 497.798 210.767 503.363 213.825L514.288 219.826C521.069 223.552 523.783 231.907 520.487 238.907L515.177 250.184C512.472 255.928 513.775 262.761 518.405 267.106L527.494 275.636C533.135 280.931 533.687 289.699 528.754 295.659L520.806 305.261C516.757 310.152 516.32 317.095 519.724 322.455L526.406 332.977C530.553 339.508 528.907 348.138 522.647 352.684L512.56 360.008C507.422 363.738 505.273 370.354 507.236 376.392L511.092 388.246C513.485 395.603 509.744 403.553 502.55 406.399L490.959 410.984C485.055 413.32 481.327 419.193 481.728 425.53L482.514 437.97C483.002 445.691 477.402 452.461 469.726 453.428L457.359 454.987C451.059 455.781 445.988 460.543 444.8 466.78L442.468 479.025C441.021 486.625 433.913 491.789 426.238 490.817L413.872 489.251C407.572 488.454 401.477 491.805 398.775 497.551L393.471 508.831C390.179 515.832 382.01 519.066 374.817 516.216L363.229 511.624C357.326 509.285 350.589 511.015 346.543 515.909L338.6 525.515C333.67 531.478 324.954 532.579 318.696 528.03L308.614 520.7C303.478 516.967 296.522 516.967 291.386 520.7L281.304 528.03C275.046 532.579 266.33 531.478 261.4 525.515L253.457 515.909C249.411 511.015 242.674 509.285 236.771 511.624L225.183 516.216C217.99 519.066 209.821 515.832 206.529 508.831L201.225 497.551C198.523 491.805 192.428 488.454 186.129 489.251L173.762 490.817C166.087 491.789 158.979 486.625 157.532 479.025L155.2 466.78C154.012 460.543 148.941 455.781 142.641 454.987L130.274 453.428C122.598 452.461 116.998 445.691 117.486 437.97L118.272 425.53C118.673 419.193 114.945 413.32 109.041 410.984L97.4503 406.399C90.2563 403.553 86.5155 395.603 88.9083 388.246L92.7636 376.392C94.7274 370.354 92.5778 363.738 87.4399 360.008L77.3535 352.684C71.0932 348.138 69.4469 339.508 73.5942 332.977L80.2762 322.455C83.68 317.095 83.2432 310.152 79.1945 305.261L71.2463 295.659C66.3132 289.699 66.8648 280.931 72.506 275.636L81.595 267.106C86.2248 262.761 87.5283 255.928 84.8232 250.184L79.5127 238.907C76.2166 231.907 78.9315 223.552 85.7122 219.826L96.6369 213.825C102.202 210.767 105.164 204.473 103.972 198.236L101.633 185.993C100.181 178.394 104.889 170.976 112.383 169.054L124.457 165.958C130.607 164.38 135.041 159.02 135.438 152.683L136.217 140.243C136.701 132.521 143.106 126.507 150.842 126.509L163.307 126.513C169.656 126.515 175.284 122.426 177.245 116.387L181.093 104.531C183.482 97.1723 191.181 92.9397 198.673 94.8659L210.746 97.9692C216.895 99.55 223.363 96.9892 226.764 91.6272L233.44 81.1009C237.583 74.5675 246.093 72.3826 252.872 76.1116L263.793 82.1198C269.356 85.1802 276.258 84.3084 280.885 79.9606L289.969 71.4252Z" fill="#22635A"/>
<rect x="175.849" y="175.85" width="248.303" height="248.303" rx="124.151" stroke="white" stroke-width="1.58215"/>
<circle cx="300" cy="300.001" r="120.997" stroke="white" stroke-width="1.58215"/>
<circle cx="300" cy="300" r="198.429" stroke="white" stroke-width="1.58215"/>
<circle cx="300" cy="300" r="201.73" stroke="white" stroke-width="1.58215"/>
<rect x="154.808" y="257.199" width="295.833" height="42.8014" fill="#22635A"/>
<path d="M108.44 267.722C110.103 263.503 116.074 263.503 117.738 267.722L120.303 274.224C120.811 275.512 121.83 276.532 123.118 277.04L129.621 279.605C133.84 281.268 133.84 287.239 129.621 288.903L123.118 291.468C121.83 291.976 120.811 292.995 120.303 294.283L117.738 300.786C116.074 305.005 110.103 305.005 108.44 300.786L105.875 294.283C105.367 292.995 104.347 291.976 103.059 291.468L96.5569 288.903C92.3381 287.239 92.338 281.268 96.5569 279.605L103.059 277.04C104.347 276.532 105.367 275.512 105.875 274.224L108.44 267.722Z" fill="#ECEBFC"/>
<path d="M396.225 211.081C397.889 206.862 403.859 206.862 405.523 211.081L408.088 217.584C408.596 218.872 409.615 219.891 410.903 220.399L417.406 222.964C421.625 224.628 421.625 230.599 417.406 232.262L410.903 234.827C409.615 235.335 408.596 236.355 408.088 237.643L405.523 244.145C403.859 248.364 397.889 248.364 396.225 244.145L393.66 237.643C393.152 236.355 392.133 235.335 390.845 234.827L384.342 232.263C380.123 230.599 380.123 224.628 384.342 222.964L390.845 220.399C392.133 219.891 393.152 218.872 393.66 217.584L396.225 211.081Z" fill="#ECEBFC"/>
<path d="M411.824 244.563C412.78 242.138 416.212 242.138 417.169 244.563L418.346 247.548C418.638 248.288 419.224 248.874 419.964 249.166L422.949 250.343C425.374 251.3 425.374 254.732 422.949 255.688L419.964 256.865C419.224 257.157 418.638 257.743 418.346 258.484L417.169 261.468C416.212 263.893 412.78 263.893 411.824 261.468L410.647 258.484C410.355 257.743 409.769 257.157 409.028 256.865L406.044 255.688C403.619 254.732 403.619 251.3 406.044 250.343L409.028 249.166C409.769 248.874 410.355 248.288 410.647 247.548L411.824 244.563Z" fill="#BFBAF8"/>
<path d="M177.823 244.712C179.487 240.493 185.458 240.493 187.122 244.712L187.359 245.313C187.867 246.601 188.886 247.62 190.174 248.128L190.775 248.365C194.994 250.029 194.994 256 190.775 257.664L190.174 257.901C188.886 258.409 187.867 259.428 187.359 260.716L187.122 261.317C185.458 265.536 179.487 265.536 177.823 261.317L177.586 260.716C177.078 259.428 176.059 258.409 174.771 257.901L174.17 257.664C169.951 256 169.951 250.029 174.17 248.365L174.771 248.128C176.059 247.62 177.078 246.601 177.586 245.313L177.823 244.712Z" fill="#9F93F2"/>
<path d="M455.64 227.046C457.304 222.827 463.275 222.827 464.939 227.046L466.986 232.238C467.494 233.526 468.514 234.545 469.802 235.053L474.993 237.101C479.212 238.765 479.212 244.736 474.993 246.4L469.802 248.447C468.514 248.955 467.494 249.975 466.986 251.263L464.939 256.454C463.275 260.673 457.304 260.673 455.64 256.454L453.593 251.263C453.085 249.975 452.065 248.955 450.777 248.447L445.585 246.4C441.366 244.736 441.366 238.765 445.585 237.101L450.777 235.053C452.065 234.545 453.085 233.526 453.593 232.238L455.64 227.046Z" fill="#9F93F2"/>
<path d="M289.969 71.4252C295.607 66.1275 304.393 66.1275 310.031 71.4251L319.115 79.9606C323.742 84.3084 330.644 85.1802 336.207 82.1198L347.128 76.1116C353.907 72.3826 362.417 74.5675 366.56 81.1009L373.236 91.6272C376.637 96.9892 383.105 99.55 389.254 97.9692L401.327 94.8659C408.819 92.9397 416.518 97.1723 418.907 104.531L422.756 116.387C424.716 122.426 430.344 126.515 436.693 126.513L449.158 126.509C456.895 126.507 463.299 132.521 463.783 140.243L464.562 152.683C464.959 159.02 469.393 164.38 475.543 165.958L487.617 169.054C495.111 170.976 499.819 178.394 498.367 185.993L496.028 198.236C494.836 204.473 497.798 210.767 503.363 213.825L514.288 219.826C521.069 223.552 523.783 231.907 520.487 238.907L515.177 250.184C512.472 255.928 513.775 262.761 518.405 267.106L527.494 275.636C533.135 280.931 533.687 289.699 528.754 295.659L520.806 305.261C516.757 310.152 516.32 317.095 519.724 322.455L526.406 332.977C530.553 339.508 528.907 348.138 522.647 352.684L512.56 360.008C507.422 363.738 505.273 370.354 507.236 376.392L511.092 388.246C513.485 395.603 509.744 403.553 502.55 406.399L490.959 410.984C485.055 413.32 481.327 419.193 481.728 425.53L482.514 437.97C483.002 445.691 477.402 452.461 469.726 453.428L457.359 454.987C451.059 455.781 445.988 460.543 444.8 466.78L442.468 479.025C441.021 486.625 433.913 491.789 426.238 490.817L413.872 489.251C407.572 488.454 401.477 491.805 398.775 497.551L393.471 508.831C390.179 515.832 382.01 519.066 374.817 516.216L363.229 511.624C357.326 509.285 350.589 511.015 346.543 515.909L338.6 525.515C333.67 531.478 324.954 532.579 318.696 528.03L308.614 520.7C303.478 516.967 296.522 516.967 291.386 520.7L281.304 528.03C275.046 532.579 266.33 531.478 261.4 525.515L253.457 515.909C249.411 511.015 242.674 509.285 236.771 511.624L225.183 516.216C217.99 519.066 209.821 515.832 206.529 508.831L201.225 497.551C198.523 491.805 192.428 488.454 186.129 489.251L173.762 490.817C166.087 491.789 158.979 486.625 157.532 479.025L155.2 466.78C154.012 460.543 148.941 455.781 142.641 454.987L130.274 453.428C122.598 452.461 116.998 445.691 117.486 437.97L118.272 425.53C118.673 419.193 114.945 413.32 109.041 410.984L97.4503 406.399C90.2563 403.553 86.5155 395.603 88.9083 388.246L92.7636 376.392C94.7274 370.354 92.5778 363.738 87.4399 360.008L77.3535 352.684C71.0932 348.138 69.4469 339.508 73.5942 332.977L80.2762 322.455C83.68 317.095 83.2432 310.152 79.1945 305.261L71.2463 295.659C66.3132 289.699 66.8648 280.931 72.506 275.636L81.595 267.106C86.2248 262.761 87.5283 255.928 84.8232 250.184L79.5127 238.907C76.2166 231.907 78.9315 223.552 85.7122 219.826L96.6369 213.825C102.202 210.767 105.164 204.473 103.972 198.236L101.633 185.993C100.181 178.394 104.889 170.976 112.383 169.054L124.457 165.958C130.607 164.38 135.041 159.02 135.438 152.683L136.217 140.243C136.701 132.521 143.106 126.507 150.842 126.509L163.307 126.513C169.656 126.515 175.284 122.426 177.245 116.387L181.093 104.531C183.482 97.1723 191.181 92.9397 198.673 94.8659L210.746 97.9692C216.895 99.55 223.363 96.9892 226.764 91.6272L233.44 81.1009C237.583 74.5675 246.093 72.3826 252.872 76.1116L263.793 82.1198C269.356 85.1802 276.258 84.3084 280.885 79.9606L289.969 71.4252Z" fill="#22635A"/>
<rect x="175.849" y="175.85" width="248.303" height="248.303" rx="124.151" stroke="white" stroke-width="1.58215"/>
<circle cx="300" cy="300.001" r="120.997" stroke="white" stroke-width="1.58215"/>
<circle cx="300" cy="300" r="198.429" stroke="white" stroke-width="1.58215"/>
<circle cx="300" cy="300" r="201.73" stroke="white" stroke-width="1.58215"/>
<rect x="154.808" y="257.199" width="295.833" height="42.8014" fill="#22635A"/>
<path d="M124.45 196.898C126.114 192.679 132.085 192.679 133.749 196.898L136.313 203.4C136.821 204.688 137.841 205.708 139.129 206.216L145.631 208.78C149.85 210.444 149.85 216.415 145.631 218.079L139.129 220.643C137.841 221.151 136.821 222.171 136.313 223.459L133.749 229.962C132.085 234.18 126.114 234.18 124.45 229.962L121.886 223.459C121.378 222.171 120.358 221.151 119.07 220.643L112.568 218.079C108.349 216.415 108.349 210.444 112.568 208.78L119.07 206.216C120.358 205.708 121.378 204.688 121.886 203.4L124.45 196.898Z" fill="#ECEBFC"/>
<path d="M396.225 211.081C397.889 206.862 403.859 206.862 405.523 211.081L408.088 217.584C408.596 218.872 409.615 219.891 410.903 220.399L417.406 222.964C421.625 224.628 421.625 230.599 417.406 232.262L410.903 234.827C409.615 235.335 408.596 236.355 408.088 237.643L405.523 244.145C403.859 248.364 397.889 248.364 396.225 244.145L393.66 237.643C393.152 236.355 392.133 235.335 390.845 234.827L384.342 232.263C380.123 230.599 380.123 224.628 384.342 222.964L390.845 220.399C392.133 219.891 393.152 218.872 393.66 217.584L396.225 211.081Z" fill="#ECEBFC"/>
<path d="M226.234 350.603C227.898 346.384 233.869 346.384 235.533 350.603L238.098 357.105C238.606 358.393 239.625 359.413 240.913 359.921L247.416 362.485C251.635 364.149 251.635 370.12 247.416 371.784L240.913 374.349C239.625 374.857 238.606 375.876 238.098 377.164L235.533 383.667C233.869 387.885 227.898 387.885 226.234 383.667L223.67 377.164C223.162 375.876 222.142 374.857 220.854 374.349L214.352 371.784C210.133 370.12 210.133 364.149 214.352 362.485L220.854 359.921C222.142 359.413 223.162 358.393 223.67 357.105L226.234 350.603Z" fill="#ECEBFC"/>
<path d="M412.302 244.561C413.259 242.136 416.691 242.136 417.647 244.561L418.824 247.546C419.116 248.286 419.702 248.872 420.443 249.164L423.427 250.341C425.852 251.298 425.852 254.73 423.427 255.686L420.443 256.863C419.702 257.155 419.116 257.741 418.824 258.482L417.647 261.466C416.691 263.891 413.259 263.891 412.302 261.466L411.125 258.482C410.833 257.741 410.247 257.155 409.507 256.863L406.522 255.686C404.097 254.73 404.097 251.298 406.522 250.341L409.507 249.164C410.247 248.872 410.833 248.286 411.125 247.546L412.302 244.561Z" fill="#BFBAF8"/>
<path d="M178.803 242.229C180.116 238.899 184.829 238.899 186.142 242.229L187.527 245.738C187.927 246.755 188.732 247.56 189.749 247.961L193.259 249.345C196.589 250.658 196.589 255.371 193.259 256.684L189.749 258.069C188.732 258.469 187.927 259.274 187.527 260.291L186.142 263.801C184.829 267.131 180.116 267.131 178.803 263.801L177.419 260.291C177.018 259.274 176.213 258.469 175.196 258.069L171.687 256.684C168.357 255.371 168.357 250.658 171.687 249.345L175.196 247.961C176.213 247.56 177.018 246.755 177.419 245.738L178.803 242.229Z" fill="#9F93F2"/>
<path d="M455.64 227.046C457.304 222.827 463.275 222.827 464.939 227.046L466.986 232.238C467.494 233.526 468.514 234.545 469.802 235.053L474.993 237.101C479.212 238.765 479.212 244.736 474.993 246.4L469.802 248.447C468.514 248.955 467.494 249.975 466.986 251.263L464.939 256.454C463.275 260.673 457.304 260.673 455.64 256.454L453.593 251.263C453.085 249.975 452.065 248.955 450.777 248.447L445.585 246.4C441.366 244.736 441.366 238.765 445.585 237.101L450.777 235.053C452.065 234.545 453.085 233.526 453.593 232.238L455.64 227.046Z" fill="#9F93F2"/>
<path d="M246.107 359.357C247.565 355.66 252.796 355.66 254.254 359.357L256.048 363.906C256.493 365.034 257.387 365.928 258.516 366.373L263.065 368.167C266.761 369.625 266.761 374.857 263.065 376.315L258.516 378.109C257.387 378.554 256.493 379.447 256.048 380.576L254.254 385.125C252.796 388.822 247.565 388.822 246.107 385.125L244.312 380.576C243.867 379.447 242.974 378.554 241.845 378.109L237.296 376.315C233.599 374.857 233.599 369.625 237.296 368.167L241.845 366.373C242.974 365.928 243.867 365.034 244.312 363.906L246.107 359.357Z" fill="#9F93F2"/>
<path d="M158.173 309.113L158.949 308.958L158.794 308.182L158.018 308.337L158.173 309.113ZM159.933 332.4L159.259 331.986L159.255 331.992L159.933 332.4ZM144.157 333.736L144.769 333.234L144.468 332.868L144.002 332.961L144.157 333.736ZM144.048 333.758L143.893 332.982L143.334 333.094L143.263 333.66L144.048 333.758ZM141.899 338.609L141.286 338.109L141.279 338.117L141.273 338.126L141.899 338.609ZM130.343 341.2L130.625 340.462L130.614 340.457L130.343 341.2ZM125.59 337.558L126.226 337.087L126.222 337.082L125.59 337.558ZM120.014 316.734L119.859 315.958L119.083 316.113L119.238 316.889L120.014 316.734ZM147.135 329.911L147.586 329.261L147.58 329.257L147.574 329.252L147.135 329.911ZM154.592 328.364L153.917 327.952L153.909 327.966L153.901 327.979L154.592 328.364ZM153.668 316.928L154.444 316.773L154.289 315.997L153.513 316.152L153.668 316.928ZM143.529 318.953L143.374 318.177L142.598 318.332L142.753 319.108L143.529 318.953ZM131.097 334.191L130.658 334.849L130.658 334.849L131.097 334.191ZM138.947 332.623L138.288 332.184L138.284 332.19L138.281 332.196L138.947 332.623ZM138.023 320.053L138.799 319.898L138.644 319.122L137.868 319.277L138.023 320.053ZM127.175 322.219L127.02 321.444L126.245 321.599L126.399 322.374L127.175 322.219ZM157.397 309.268L160.195 323.277L161.747 322.967L158.949 308.958L157.397 309.268ZM160.195 323.277C160.934 326.976 160.573 329.844 159.259 331.986L160.607 332.813C162.201 330.217 162.532 326.9 161.747 322.967L160.195 323.277ZM159.255 331.992C157.937 334.182 155.874 335.578 152.974 336.157L153.284 337.709C156.562 337.054 159.034 335.428 160.611 332.807L159.255 331.992ZM152.974 336.157C151.273 336.497 149.765 336.41 148.426 335.933C147.087 335.456 145.866 334.57 144.769 333.234L143.546 334.238C144.795 335.759 146.244 336.835 147.895 337.423C149.546 338.012 151.35 338.095 153.284 337.709L152.974 336.157ZM144.002 332.961L143.893 332.982L144.203 334.534L144.312 334.512L144.002 332.961ZM143.263 333.66C143.065 335.243 142.416 336.723 141.286 338.109L142.513 339.109C143.811 337.515 144.595 335.762 144.833 333.856L143.263 333.66ZM141.273 338.126C140.252 339.451 138.626 340.383 136.282 340.852L136.592 342.403C139.19 341.884 141.206 340.804 142.526 339.092L141.273 338.126ZM136.282 340.852C134.232 341.261 132.354 341.123 130.625 340.462L130.06 341.939C132.096 342.718 134.28 342.865 136.592 342.403L136.282 340.852ZM130.614 340.457C128.897 339.831 127.435 338.719 126.226 337.087L124.955 338.029C126.332 339.887 128.038 341.202 130.072 341.944L130.614 340.457ZM126.222 337.082C125.02 335.485 124.168 333.493 123.686 331.079L122.134 331.389C122.654 333.99 123.588 336.214 124.958 338.034L126.222 337.082ZM123.686 331.079L120.79 316.579L119.238 316.889L122.134 331.389L123.686 331.079ZM120.169 317.51L158.328 309.888L158.018 308.337L119.859 315.958L120.169 317.51ZM144.18 326.249C144.566 328.186 145.37 329.684 146.696 330.569L147.574 329.252C146.72 328.683 146.07 327.637 145.731 325.939L144.18 326.249ZM146.683 330.56C147.998 331.475 149.598 331.699 151.389 331.341L151.079 329.79C149.599 330.086 148.465 329.873 147.586 329.261L146.683 330.56ZM151.389 331.341C153.155 330.989 154.504 330.148 155.283 328.75L153.901 327.979C153.4 328.877 152.51 329.504 151.079 329.79L151.389 331.341ZM155.267 328.777C156.086 327.435 156.244 325.783 155.87 323.914L154.319 324.224C154.642 325.844 154.464 327.055 153.917 327.952L155.267 328.777ZM155.87 323.914L154.444 316.773L152.893 317.083L154.319 324.224L155.87 323.914ZM153.513 316.152L143.374 318.177L143.684 319.729L153.823 317.704L153.513 316.152ZM142.753 319.108L144.18 326.249L145.731 325.939L144.305 318.798L142.753 319.108ZM127.956 330.17C128.379 332.283 129.242 333.904 130.658 334.849L131.536 333.533C130.598 332.907 129.884 331.744 129.508 329.86L127.956 330.17ZM130.658 334.849C132.073 335.793 133.702 336.064 135.481 335.709L135.172 334.157C133.753 334.441 132.562 334.217 131.536 333.533L130.658 334.849ZM135.481 335.709C137.291 335.347 138.7 334.473 139.613 333.05L138.281 332.196C137.637 333.2 136.632 333.866 135.172 334.157L135.481 335.709ZM139.605 333.062C140.58 331.6 140.755 329.693 140.312 327.475L138.761 327.785C139.16 329.782 138.942 331.205 138.288 332.184L139.605 333.062ZM140.312 327.475L138.799 319.898L137.247 320.208L138.761 327.785L140.312 327.475ZM137.868 319.277L127.02 321.444L127.33 322.995L138.178 320.829L137.868 319.277ZM126.399 322.374L127.956 330.17L129.508 329.86L127.951 322.064L126.399 322.374Z" fill="white"/>
<path d="M147.969 379.123L148.555 379.654L148.925 379.246L148.67 378.757L147.969 379.123ZM140.621 365.024L141.323 364.659L141.068 364.17L140.522 364.24L140.621 365.024ZM131.392 366.199L130.69 366.564L130.945 367.053L131.492 366.983L131.392 366.199ZM128.18 360.036L128.084 359.251L126.952 359.39L127.479 360.402L128.18 360.036ZM169.419 354.969L170.12 354.603L169.867 354.117L169.322 354.184L169.419 354.969ZM172.707 361.279L173.296 361.808L173.662 361.4L173.409 360.913L172.707 361.279ZM144.931 392.178L144.229 392.543L144.756 393.555L145.519 392.707L144.931 392.178ZM141.719 386.016L141.133 385.484L140.763 385.893L141.018 386.381L141.719 386.016ZM152.338 374.276L151.637 374.642L152.162 375.65L152.925 374.807L152.338 374.276ZM163.274 362.183L163.861 362.713L165.292 361.132L163.176 361.398L163.274 362.183ZM147.097 364.219L146.999 363.435L145.87 363.577L146.396 364.585L147.097 364.219ZM148.67 378.757L141.323 364.659L139.92 365.39L147.267 379.489L148.67 378.757ZM140.522 364.24L131.292 365.414L131.492 366.983L140.721 365.809L140.522 364.24ZM132.093 365.833L128.882 359.671L127.479 360.402L130.69 366.564L132.093 365.833ZM128.277 360.822L169.515 355.754L169.322 354.184L128.084 359.251L128.277 360.822ZM168.717 355.334L172.006 361.644L173.409 360.913L170.12 354.603L168.717 355.334ZM172.119 360.75L144.342 391.649L145.519 392.707L173.296 361.808L172.119 360.75ZM145.632 391.812L142.421 385.65L141.018 386.381L144.229 392.543L145.632 391.812ZM142.305 386.547L148.555 379.654L147.383 378.592L141.133 385.484L142.305 386.547ZM152.925 374.807L163.861 362.713L162.688 361.652L151.751 373.745L152.925 374.807ZM163.176 361.398L146.999 363.435L147.196 365.004L163.373 362.968L163.176 361.398ZM146.396 364.585L151.637 374.642L153.04 373.91L147.799 363.854L146.396 364.585Z" fill="white"/>
<path d="M182.061 381.279L182.626 380.726L182.073 380.16L181.507 380.713L182.061 381.279ZM196.91 400.113L197.68 399.933L196.91 400.113ZM196.375 409.503L197.119 409.772L197.119 409.772L196.375 409.503ZM181.915 423.339L181.688 422.581L181.684 422.582L181.915 423.339ZM172.401 423.471L172.61 422.708L172.605 422.706L172.401 423.471ZM154.246 408.491L153.693 407.926L153.127 408.479L153.681 409.045L154.246 408.491ZM177.221 417.666L177.114 416.882L177.106 416.883L177.221 417.666ZM190.928 404.333L191.712 404.442L190.928 404.333ZM182.433 390.403L182.998 389.85L182.445 389.284L181.879 389.837L182.433 390.403ZM163.36 409.063L162.806 408.497L162.241 409.051L162.794 409.616L163.36 409.063ZM181.495 381.832L190.942 391.488L192.073 390.381L182.626 380.726L181.495 381.832ZM190.942 391.488C193.716 394.323 195.429 397.259 196.14 400.294L197.68 399.933C196.889 396.557 195.001 393.374 192.073 390.381L190.942 391.488ZM196.14 400.294C196.857 403.352 196.686 406.325 195.631 409.233L197.119 409.772C198.28 406.572 198.466 403.286 197.68 399.933L196.14 400.294ZM195.631 409.233C194.569 412.162 192.775 414.873 190.226 417.367L191.333 418.498C194.029 415.86 195.965 412.952 197.119 409.772L195.631 409.233ZM190.226 417.367C187.604 419.933 184.758 421.661 181.688 422.581L182.142 424.097C185.487 423.095 188.551 421.219 191.333 418.498L190.226 417.367ZM181.684 422.582C178.672 423.5 175.653 423.542 172.61 422.708L172.192 424.234C175.523 425.146 178.847 425.101 182.146 424.096L181.684 422.582ZM172.605 422.706C169.597 421.9 166.854 420.247 164.375 417.713L163.244 418.82C165.897 421.531 168.881 423.347 172.196 424.235L172.605 422.706ZM164.375 417.713L154.812 407.938L153.681 409.045L163.244 418.82L164.375 417.713ZM154.799 409.057L182.614 381.844L181.507 380.713L153.693 407.926L154.799 409.057ZM167.459 414.384C170.529 417.522 173.833 418.96 177.335 418.449L177.106 416.883C174.256 417.299 171.429 416.18 168.59 413.278L167.459 414.384ZM177.327 418.45C180.725 417.987 183.828 416.353 186.63 413.611L185.523 412.48C182.921 415.026 180.12 416.472 177.114 416.882L177.327 418.45ZM186.63 413.611C189.528 410.775 191.255 407.719 191.712 404.442L190.145 404.224C189.748 407.07 188.24 409.822 185.523 412.48L186.63 413.611ZM191.712 404.442C192.186 401.037 190.612 397.632 187.313 394.26L186.182 395.367C189.311 398.564 190.524 401.505 190.145 404.224L191.712 404.442ZM187.313 394.26L182.998 389.85L181.867 390.956L186.182 395.367L187.313 394.26ZM181.879 389.837L162.806 408.497L163.913 409.628L182.986 390.968L181.879 389.837ZM162.794 409.616L167.459 414.384L168.59 413.278L163.925 408.51L162.794 409.616Z" fill="white"/>
<path d="M199.295 447.993L198.62 448.406L199.295 447.993ZM196.596 438.42L195.805 438.417L195.805 438.421L196.596 438.42ZM206.369 420.133L205.934 419.473L205.928 419.477L206.369 420.133ZM215.881 416.96L215.842 416.17L215.838 416.17L215.881 416.96ZM234.135 427.031L233.428 427.385L234.135 427.031ZM235.735 436.773L235.612 437.555L236.413 437.681L236.52 436.878L235.735 436.773ZM229.049 435.721L228.264 435.626L228.172 436.384L228.926 436.503L229.049 435.721ZM216.523 423.543L216.586 424.331L216.523 423.543ZM210.043 425.878L209.595 425.227L209.59 425.23L210.043 425.878ZM203.388 438.331L202.597 438.31L202.597 438.318L202.597 438.326L203.388 438.331ZM205.099 444.918L204.413 445.313L204.418 445.321L204.422 445.328L205.099 444.918ZM216.293 451.216L216.246 450.426L216.238 450.427L216.293 451.216ZM221.261 449.585L220.816 448.931L220.81 448.936L221.261 449.585ZM224.793 445.926L225.465 446.344L225.91 445.627L225.166 445.229L224.793 445.926ZM217.341 441.943L216.643 441.571L216.27 442.268L216.968 442.641L217.341 441.943ZM220.066 436.845L220.439 436.147L219.741 435.774L219.368 436.472L220.066 436.845ZM233.45 443.998L234.148 444.371L234.52 443.673L233.823 443.3L233.45 443.998ZM223.336 462.922L222.963 463.62L223.661 463.993L224.033 463.295L223.336 462.922ZM219.267 460.747L218.504 460.539L218.337 461.148L218.894 461.445L219.267 460.747ZM220.454 456.403L221.217 456.611L221.676 454.931L220.109 455.691L220.454 456.403ZM214.832 457.369L214.827 458.16L214.832 457.369ZM207.359 454.369C204.137 452.647 201.683 450.382 199.97 447.581L198.62 448.406C200.495 451.472 203.168 453.923 206.613 455.764L207.359 454.369ZM199.97 447.581C198.252 444.771 197.392 441.723 197.387 438.419L195.805 438.421C195.811 442.015 196.75 445.348 198.62 448.406L199.97 447.581ZM197.387 438.423C197.398 435.085 198.282 431.754 200.062 428.423L198.667 427.677C196.779 431.209 195.817 434.792 195.805 438.417L197.387 438.423ZM200.062 428.423C201.789 425.193 204.039 422.655 206.811 420.789L205.928 419.477C202.923 421.499 200.504 424.239 198.667 427.677L200.062 428.423ZM206.805 420.793C209.611 418.942 212.647 417.931 215.925 417.75L215.838 416.17C212.274 416.367 208.969 417.471 205.934 419.473L206.805 420.793ZM215.92 417.75C219.22 417.586 222.439 418.336 225.591 420.021L226.337 418.625C222.951 416.816 219.449 415.991 215.842 416.17L215.92 417.75ZM225.591 420.021C229.413 422.063 231.995 424.528 233.428 427.385L234.842 426.676C233.224 423.449 230.359 420.775 226.337 418.625L225.591 420.021ZM233.428 427.385C234.881 430.283 235.389 433.37 234.951 436.669L236.52 436.878C236.999 433.272 236.441 429.864 234.842 426.676L233.428 427.385ZM235.858 435.992L229.172 434.94L228.926 436.503L235.612 437.555L235.858 435.992ZM229.835 435.816C230.139 433.297 229.791 431.042 228.741 429.089C227.693 427.139 225.981 425.558 223.67 424.322L222.924 425.718C225.025 426.841 226.478 428.222 227.348 429.839C228.215 431.453 228.537 433.369 228.264 435.626L229.835 435.816ZM223.67 424.322C221.355 423.085 218.947 422.556 216.46 422.754L216.586 424.331C218.751 424.159 220.859 424.614 222.924 425.718L223.67 424.322ZM216.46 422.754C213.99 422.951 211.698 423.779 209.595 425.227L210.491 426.53C212.375 425.234 214.403 424.505 216.586 424.331L216.46 422.754ZM209.59 425.23C207.538 426.662 205.891 428.549 204.648 430.874L206.044 431.62C207.177 429.5 208.661 427.808 210.496 426.527L209.59 425.23ZM204.648 430.874C203.356 433.292 202.666 435.773 202.597 438.31L204.178 438.353C204.24 436.084 204.856 433.842 206.044 431.62L204.648 430.874ZM202.597 438.326C202.581 440.849 203.185 443.183 204.413 445.313L205.784 444.523C204.701 442.644 204.164 440.587 204.179 438.336L202.597 438.326ZM204.422 445.328C205.708 447.449 207.532 449.132 209.869 450.381L210.614 448.986C208.506 447.859 206.901 446.366 205.775 444.508L204.422 445.328ZM209.869 450.381C212.118 451.584 214.284 452.15 216.348 452.005L216.238 450.427C214.547 450.545 212.679 450.09 210.614 448.986L209.869 450.381ZM216.34 452.006C218.377 451.884 220.176 451.301 221.712 450.235L220.81 448.936C219.541 449.816 218.028 450.32 216.246 450.426L216.34 452.006ZM221.706 450.24C223.248 449.191 224.503 447.891 225.465 446.344L224.121 445.509C223.279 446.863 222.18 448.003 220.816 448.931L221.706 450.24ZM225.166 445.229L217.714 441.246L216.968 442.641L224.42 446.624L225.166 445.229ZM218.038 442.316L220.763 437.218L219.368 436.472L216.643 441.571L218.038 442.316ZM219.693 437.542L233.077 444.696L233.823 443.3L220.439 436.147L219.693 437.542ZM232.752 443.625L222.638 462.549L224.033 463.295L234.148 444.371L232.752 443.625ZM223.709 462.224L219.639 460.05L218.894 461.445L222.963 463.62L223.709 462.224ZM220.03 460.956L221.217 456.611L219.691 456.194L218.504 460.539L220.03 460.956ZM220.109 455.691C218.903 456.275 217.166 456.593 214.837 456.578L214.827 458.16C217.273 458.175 219.284 457.849 220.799 457.115L220.109 455.691ZM214.837 456.578C212.616 456.564 210.127 455.848 207.359 454.369L206.613 455.764C209.532 457.324 212.275 458.144 214.827 458.16L214.837 456.578Z" fill="white"/>
<path d="M250.588 433.307L250.75 432.533L249.975 432.371L249.814 433.146L250.588 433.307ZM274.531 438.305L275.306 438.467L275.467 437.692L274.693 437.531L274.531 438.305ZM273.282 444.291L273.12 445.065L273.895 445.227L274.056 444.452L273.282 444.291ZM255.978 440.679L256.139 439.905L255.365 439.743L255.203 440.517L255.978 440.679ZM253.888 450.692L253.113 450.53L252.952 451.304L253.726 451.466L253.888 450.692ZM268.907 453.826L269.681 453.988L269.843 453.214L269.068 453.052L268.907 453.826ZM267.691 459.649L267.53 460.423L268.304 460.585L268.466 459.811L267.691 459.649ZM252.672 456.514L252.834 455.74L252.06 455.578L251.898 456.352L252.672 456.514ZM250.526 466.799L249.751 466.637L249.59 467.412L250.364 467.573L250.526 466.799ZM267.83 470.411L268.605 470.572L268.766 469.798L267.992 469.636L267.83 470.411ZM266.581 476.396L266.419 477.171L267.194 477.333L267.355 476.558L266.581 476.396ZM242.638 471.399L241.863 471.237L241.702 472.012L242.476 472.173L242.638 471.399ZM250.427 434.082L274.37 439.079L274.693 437.531L250.75 432.533L250.427 434.082ZM273.757 438.143L272.508 444.129L274.056 444.452L275.306 438.467L273.757 438.143ZM273.444 443.516L256.139 439.905L255.816 441.453L273.12 445.065L273.444 443.516ZM255.203 440.517L253.113 450.53L254.662 450.853L256.752 440.841L255.203 440.517ZM253.726 451.466L268.745 454.601L269.068 453.052L254.049 449.917L253.726 451.466ZM268.132 453.665L266.917 459.487L268.466 459.811L269.681 453.988L268.132 453.665ZM267.853 458.875L252.834 455.74L252.511 457.289L267.53 460.423L267.853 458.875ZM251.898 456.352L249.751 466.637L251.3 466.96L253.447 456.676L251.898 456.352ZM250.364 467.573L267.669 471.185L267.992 469.636L250.687 466.024L250.364 467.573ZM267.056 470.249L265.806 476.235L267.355 476.558L268.605 470.572L267.056 470.249ZM266.742 475.622L242.799 470.625L242.476 472.173L266.419 477.171L266.742 475.622ZM243.412 471.561L251.363 433.469L249.814 433.146L241.863 471.237L243.412 471.561Z" fill="white"/>
<path d="M284.364 441.546L284.314 440.757L283.525 440.806L283.574 441.595L284.364 441.546ZM291.132 441.124L291.922 441.075L291.873 440.286L291.083 440.335L291.132 441.124ZM292.125 457.047L291.335 457.097L291.384 457.886L292.174 457.837L292.125 457.047ZM309.268 455.979L309.318 456.769L310.107 456.719L310.058 455.93L309.268 455.979ZM308.276 440.056L308.227 439.266L307.437 439.316L307.487 440.105L308.276 440.056ZM315.045 439.634L315.834 439.585L315.785 438.795L314.996 438.845L315.045 439.634ZM317.465 478.471L317.514 479.261L318.304 479.211L318.255 478.422L317.465 478.471ZM310.696 478.893L309.907 478.942L309.956 479.732L310.746 479.683L310.696 478.893ZM309.659 462.249L310.449 462.199L310.399 461.41L309.61 461.459L309.659 462.249ZM292.515 463.317L292.466 462.527L291.677 462.577L291.726 463.366L292.515 463.317ZM293.553 479.961L293.602 480.751L294.391 480.702L294.342 479.912L293.553 479.961ZM286.784 480.383L285.994 480.432L286.044 481.222L286.833 481.173L286.784 480.383ZM284.413 442.336L291.182 441.914L291.083 440.335L284.314 440.757L284.413 442.336ZM290.343 441.173L291.335 457.097L292.914 456.998L291.922 441.075L290.343 441.173ZM292.174 457.837L309.318 456.769L309.219 455.19L292.075 456.258L292.174 457.837ZM310.058 455.93L309.066 440.007L307.487 440.105L308.479 456.028L310.058 455.93ZM308.325 440.845L315.094 440.424L314.996 438.845L308.227 439.266L308.325 440.845ZM314.255 439.683L316.676 478.52L318.255 478.422L315.834 439.585L314.255 439.683ZM317.416 477.682L310.647 478.103L310.746 479.683L317.514 479.261L317.416 477.682ZM311.486 478.844L310.449 462.199L308.87 462.298L309.907 478.942L311.486 478.844ZM309.61 461.459L292.466 462.527L292.565 464.106L309.708 463.038L309.61 461.459ZM291.726 463.366L292.763 480.011L294.342 479.912L293.305 463.268L291.726 463.366ZM293.503 479.172L286.735 479.594L286.833 481.173L293.602 480.751L293.503 479.172ZM287.573 480.334L285.153 441.497L283.574 441.595L285.994 480.432L287.573 480.334Z" fill="white"/>
<path d="M345.936 472.099L345.792 472.877L345.804 472.879L345.936 472.099ZM336.781 467.724L336.258 468.317L336.264 468.322L336.781 467.724ZM329.453 448.863L328.667 448.771L328.667 448.778L329.453 448.863ZM333.273 439.507L333.899 439.989L333.904 439.984L333.273 439.507ZM352.859 431.897L352.715 432.675L352.722 432.676L352.859 431.897ZM361.993 436.22L361.476 436.818L361.993 436.22ZM369.321 455.081L368.536 454.989L369.321 455.081ZM365.522 464.489L366.149 464.971L366.153 464.966L365.522 464.489ZM360.273 460.803L360.9 461.286L360.906 461.277L360.273 460.803ZM362.71 454.489L361.923 454.41L362.71 454.489ZM357.536 441.172L357.005 441.758L357.009 441.762L357.536 441.172ZM351.424 438.18L351.277 438.957L351.286 438.959L351.294 438.96L351.424 438.18ZM338.573 443.172L339.2 443.656L339.202 443.652L338.573 443.172ZM336.116 449.435L335.329 449.356L336.116 449.435ZM341.31 462.803L341.838 462.214L341.838 462.214L341.31 462.803ZM347.371 465.816L347.225 466.593L347.233 466.595L347.242 466.596L347.371 465.816ZM356.481 470.075C352.865 471.48 349.4 471.884 346.068 471.319L345.804 472.879C349.452 473.498 353.208 473.044 357.054 471.55L356.481 470.075ZM346.079 471.321C342.747 470.706 339.825 469.309 337.299 467.125L336.264 468.322C339.006 470.692 342.187 472.211 345.792 472.877L346.079 471.321ZM337.304 467.13C334.806 464.929 332.912 462.182 331.627 458.873L330.152 459.446C331.524 462.976 333.558 465.939 336.258 468.317L337.304 467.13ZM331.627 458.873C330.341 455.564 329.883 452.259 330.24 448.948L328.667 448.778C328.281 452.356 328.78 455.915 330.152 459.446L331.627 458.873ZM330.239 448.955C330.628 445.641 331.846 442.657 333.899 439.989L332.646 439.024C330.419 441.916 329.09 445.17 328.667 448.771L330.239 448.955ZM333.904 439.984C335.93 437.303 338.749 435.246 342.397 433.828L341.824 432.354C337.943 433.862 334.869 436.082 332.642 439.03L333.904 439.984ZM342.397 433.828C345.974 432.439 349.408 432.065 352.715 432.675L353.002 431.119C349.372 430.449 345.64 430.871 341.824 432.354L342.397 433.828ZM352.722 432.676C356.038 433.257 358.951 434.636 361.476 436.818L362.511 435.621C359.768 433.251 356.591 431.748 352.995 431.118L352.722 432.676ZM361.476 436.818C364.007 439.006 365.915 441.745 367.2 445.051L368.675 444.478C367.302 440.944 365.247 437.987 362.511 435.621L361.476 436.818ZM367.2 445.051C368.484 448.357 368.926 451.666 368.536 454.989L370.107 455.173C370.529 451.58 370.048 448.012 368.675 444.478L367.2 445.051ZM368.536 454.989C368.146 458.305 366.934 461.308 364.891 464.012L366.153 464.966C368.364 462.041 369.685 458.772 370.107 455.173L368.536 454.989ZM364.895 464.006C362.854 466.657 360.06 468.684 356.481 470.075L357.054 471.55C360.867 470.069 363.909 467.88 366.149 464.971L364.895 464.006ZM354.779 465.695C357.346 464.697 359.398 463.233 360.9 461.286L359.647 460.32C358.346 462.006 356.544 463.311 354.206 464.22L354.779 465.695ZM360.906 461.277C362.383 459.308 363.246 457.066 363.497 454.568L361.923 454.41C361.7 456.628 360.939 458.595 359.64 460.328L360.906 461.277ZM363.497 454.568C363.748 452.071 363.359 449.523 362.353 446.934L360.878 447.507C361.805 449.893 362.146 452.19 361.923 454.41L363.497 454.568ZM362.353 446.934C361.36 444.378 359.933 442.254 358.063 440.582L357.009 441.762C358.673 443.25 359.966 445.158 360.878 447.507L362.353 446.934ZM358.068 440.586C356.179 438.873 354.003 437.806 351.553 437.399L351.294 438.96C353.434 439.315 355.333 440.242 357.005 441.758L358.068 440.586ZM351.57 437.402C349.134 436.943 346.638 437.222 344.099 438.209L344.672 439.683C346.97 438.791 349.166 438.559 351.277 438.957L351.57 437.402ZM344.099 438.209C341.528 439.208 339.466 440.699 337.944 442.693L339.202 443.652C340.526 441.917 342.338 440.59 344.672 439.683L344.099 438.209ZM337.947 442.689C336.452 444.627 335.58 446.856 335.329 449.356L336.903 449.514C337.126 447.298 337.892 445.351 339.2 443.656L337.947 442.689ZM335.329 449.356C335.078 451.853 335.468 454.401 336.473 456.989L337.948 456.416C337.021 454.031 336.681 451.733 336.903 449.514L335.329 449.356ZM336.473 456.989C337.479 459.578 338.912 461.72 340.783 463.393L341.838 462.214C340.175 460.727 338.875 458.802 337.948 456.416L336.473 456.989ZM340.783 463.393C342.655 465.066 344.806 466.137 347.225 466.593L347.518 465.038C345.389 464.637 343.5 463.7 341.838 462.214L340.783 463.393ZM347.242 466.596C349.694 467.003 352.212 466.692 354.779 465.695L354.206 464.22C351.868 465.128 349.638 465.39 347.501 465.035L347.242 466.596Z" fill="white"/>
<path d="M369.695 422.952L369.213 422.325L368.585 422.807L369.067 423.434L369.695 422.952ZM375.072 418.82L375.699 418.338L375.217 417.711L374.59 418.193L375.072 418.82ZM394.989 444.738L394.361 445.22L394.843 445.847L395.471 445.365L394.989 444.738ZM408.476 434.373L409.104 433.891L408.622 433.264L407.994 433.746L408.476 434.373ZM412.27 439.31L412.752 439.937L413.379 439.455L412.897 438.828L412.27 439.31ZM393.405 453.807L392.777 454.289L393.259 454.916L393.887 454.434L393.405 453.807ZM370.177 423.579L375.554 419.447L374.59 418.193L369.213 422.325L370.177 423.579ZM374.445 419.302L394.361 445.22L395.616 444.256L375.699 418.338L374.445 419.302ZM395.471 445.365L408.958 435L407.994 433.746L394.506 444.111L395.471 445.365ZM407.849 434.855L411.643 439.792L412.897 438.828L409.104 433.891L407.849 434.855ZM411.788 438.683L392.923 453.18L393.887 454.434L412.752 439.937L411.788 438.683ZM394.032 453.325L370.322 422.47L369.067 423.434L392.777 454.289L394.032 453.325Z" fill="white"/>
<path d="M396.666 403.931L396.034 403.454L395.558 404.086L396.189 404.562L396.666 403.931ZM413.078 386.441L412.785 385.707L413.078 386.441ZM422.442 385.572L422.598 384.796L422.598 384.796L422.442 385.572ZM438.278 397.809L437.562 398.147L437.564 398.15L438.278 397.809ZM439.826 407.198L439.04 407.105L439.04 407.109L439.826 407.198ZM427.718 427.381L427.242 428.013L427.873 428.489L428.35 427.858L427.718 427.381ZM433.368 403.296L432.609 403.519L432.611 403.526L433.368 403.296ZM418.141 391.728L418.132 390.937L418.141 391.728ZM405.632 402.204L405.001 401.727L404.524 402.359L405.156 402.835L405.632 402.204ZM426.926 418.284L426.449 418.915L427.08 419.392L427.557 418.761L426.926 418.284ZM397.297 404.408L405.437 393.628L404.175 392.675L396.034 403.454L397.297 404.408ZM405.437 393.628C407.828 390.463 410.476 388.331 413.371 387.176L412.785 385.707C409.564 386.992 406.698 389.334 404.175 392.675L405.437 393.628ZM413.371 387.176C416.288 386.012 419.254 385.737 422.286 386.347L422.598 384.796C419.26 384.125 415.983 384.43 412.785 385.707L413.371 387.176ZM422.286 386.347C425.34 386.962 428.289 388.332 431.134 390.48L432.088 389.218C429.078 386.944 425.914 385.463 422.598 384.796L422.286 386.347ZM431.134 390.48C434.062 392.691 436.196 395.248 437.562 398.147L438.993 397.472C437.504 394.313 435.193 391.563 432.088 389.218L431.134 390.48ZM437.564 398.15C438.92 400.992 439.411 403.971 439.04 407.105L440.611 407.291C441.018 403.861 440.477 400.581 438.992 397.468L437.564 398.15ZM439.04 407.109C438.691 410.204 437.464 413.163 435.328 415.992L436.591 416.945C438.877 413.918 440.227 410.696 440.612 407.286L439.04 407.109ZM435.328 415.992L427.087 426.905L428.35 427.858L436.591 416.945L435.328 415.992ZM428.195 426.75L397.142 403.3L396.189 404.562L427.242 428.013L428.195 426.75ZM431.577 413.438C434.223 409.934 435.152 406.454 434.125 403.067L432.611 403.526C433.446 406.282 432.761 409.245 430.314 412.484L431.577 413.438ZM434.127 403.074C433.163 399.783 431.085 396.959 427.957 394.596L427.003 395.859C429.908 398.052 431.755 400.607 432.609 403.519L434.127 403.074ZM427.957 394.596C424.72 392.152 421.441 390.9 418.132 390.937L418.15 392.519C421.023 392.487 423.97 393.568 427.003 395.859L427.957 394.596ZM418.132 390.937C414.695 390.975 411.562 393.039 408.72 396.803L409.982 397.757C412.678 394.187 415.406 392.549 418.15 392.519L418.132 390.937ZM408.72 396.803L405.001 401.727L406.264 402.681L409.982 397.757L408.72 396.803ZM405.156 402.835L426.449 418.915L427.402 417.653L406.109 401.573L405.156 402.835ZM427.557 418.761L431.577 413.438L430.314 412.484L426.294 417.807L427.557 418.761Z" fill="white"/>
<path d="M422.299 370.382L421.562 370.097L421.276 370.835L422.014 371.12L422.299 370.382ZM431.129 347.573L431.415 346.835L430.677 346.549L430.392 347.287L431.129 347.573ZM436.832 349.78L437.57 350.066L437.855 349.328L437.117 349.043L436.832 349.78ZM430.45 366.265L429.712 365.98L429.427 366.718L430.165 367.003L430.45 366.265ZM439.989 369.958L439.703 370.696L440.441 370.981L440.726 370.244L439.989 369.958ZM445.528 355.65L445.813 354.912L445.075 354.627L444.79 355.365L445.528 355.65ZM451.075 357.798L451.812 358.083L452.098 357.345L451.36 357.06L451.075 357.798ZM445.536 372.105L444.798 371.82L444.512 372.558L445.25 372.843L445.536 372.105ZM455.333 375.898L455.048 376.636L455.786 376.922L456.071 376.184L455.333 375.898ZM461.715 359.413L462.001 358.675L461.263 358.39L460.977 359.128L461.715 359.413ZM467.418 361.621L468.155 361.906L468.441 361.169L467.703 360.883L467.418 361.621ZM458.587 384.43L458.302 385.168L459.04 385.454L459.325 384.716L458.587 384.43ZM423.037 370.668L431.867 347.858L430.392 347.287L421.562 370.097L423.037 370.668ZM430.844 348.31L436.546 350.518L437.117 349.043L431.415 346.835L430.844 348.31ZM436.094 349.495L429.712 365.98L431.188 366.551L437.57 350.066L436.094 349.495ZM430.165 367.003L439.703 370.696L440.274 369.22L430.736 365.528L430.165 367.003ZM440.726 370.244L446.265 355.936L444.79 355.365L439.251 369.672L440.726 370.244ZM445.242 356.388L450.789 358.535L451.36 357.06L445.813 354.912L445.242 356.388ZM450.337 357.512L444.798 371.82L446.273 372.391L451.812 358.083L450.337 357.512ZM445.25 372.843L455.048 376.636L455.619 375.161L445.821 371.368L445.25 372.843ZM456.071 376.184L462.453 359.699L460.977 359.128L454.596 375.613L456.071 376.184ZM461.43 360.151L467.132 362.358L467.703 360.883L462.001 358.675L461.43 360.151ZM466.68 361.335L457.85 384.145L459.325 384.716L468.155 361.906L466.68 361.335ZM458.873 383.693L422.585 369.645L422.014 371.12L458.302 385.168L458.873 383.693Z" fill="white"/>
<path d="M435.674 338.409L434.887 338.33L434.807 339.117L435.594 339.196L435.674 338.409ZM439.292 317.6L438.63 317.166L439.292 317.6ZM443.877 313.707L444.182 314.437L444.191 314.433L444.2 314.429L443.877 313.707ZM456.862 315.693L456.321 316.27L456.328 316.277L456.862 315.693ZM460.24 321.511L459.468 321.685L459.679 322.628L460.562 322.234L460.24 321.511ZM477.27 313.907L478.057 313.987L478.195 312.627L476.947 313.184L477.27 313.907ZM476.513 321.373L476.827 322.099L477.253 321.915L477.3 321.453L476.513 321.373ZM460.501 328.299L460.187 327.573L459.761 327.757L459.714 328.219L460.501 328.299ZM459.918 334.05L459.131 333.971L459.051 334.758L459.838 334.837L459.918 334.05ZM475.072 335.587L475.859 335.666L475.939 334.879L475.152 334.8L475.072 335.587ZM474.388 342.334L474.308 343.121L475.095 343.201L475.175 342.414L474.388 342.334ZM453.629 321.679L454.259 321.201L454.259 321.2L453.629 321.679ZM445.168 320.822L445.698 321.408L445.703 321.404L445.709 321.399L445.168 320.822ZM442.442 332.279L441.655 332.199L441.575 332.986L442.362 333.066L442.442 332.279ZM454.001 333.451L453.921 334.238L454.708 334.317L454.788 333.53L454.001 333.451ZM436.461 338.489L437.896 324.331L436.322 324.171L434.887 338.33L436.461 338.489ZM437.896 324.331C438.152 321.813 438.847 319.723 439.954 318.033L438.63 317.166C437.358 319.109 436.598 321.454 436.322 324.171L437.896 324.331ZM439.954 318.033C441.064 316.339 442.472 315.15 444.182 314.437L443.573 312.976C441.549 313.821 439.9 315.228 438.63 317.166L439.954 318.033ZM444.2 314.429C445.897 313.67 447.761 313.387 449.811 313.595L449.971 312.021C447.671 311.787 445.526 312.103 443.554 312.984L444.2 314.429ZM449.811 313.595C452.592 313.876 454.74 314.786 456.321 316.27L457.404 315.117C455.516 313.344 453.016 312.329 449.971 312.021L449.811 313.595ZM456.328 316.277C457.948 317.76 458.99 319.556 459.468 321.685L461.011 321.338C460.463 318.892 459.253 316.81 457.396 315.11L456.328 316.277ZM460.562 322.234L477.592 314.629L476.947 313.184L459.917 320.789L460.562 322.234ZM476.483 313.827L475.726 321.293L477.3 321.453L478.057 313.987L476.483 313.827ZM476.199 320.647L460.187 327.573L460.815 329.025L476.827 322.099L476.199 320.647ZM459.714 328.219L459.131 333.971L460.705 334.13L461.288 328.378L459.714 328.219ZM459.838 334.837L474.992 336.374L475.152 334.8L459.998 333.263L459.838 334.837ZM474.285 335.507L473.601 342.254L475.175 342.414L475.859 335.666L474.285 335.507ZM474.468 341.547L435.754 337.622L435.594 339.196L474.308 343.121L474.468 341.547ZM455.494 326.562C455.709 324.436 455.335 322.616 454.259 321.201L453 322.158C453.764 323.164 454.108 324.546 453.92 326.402L455.494 326.562ZM454.259 321.2C453.155 319.751 451.581 318.944 449.624 318.746L449.465 320.32C451.048 320.481 452.197 321.105 453 322.159L454.259 321.2ZM449.624 318.746C447.638 318.545 445.937 319.016 444.626 320.244L445.709 321.399C446.621 320.543 447.838 320.155 449.465 320.32L449.624 318.746ZM444.637 320.235C443.302 321.442 442.569 323.181 442.35 325.341L443.924 325.501C444.116 323.605 444.736 322.278 445.698 321.408L444.637 320.235ZM442.35 325.341L441.655 332.199L443.229 332.359L443.924 325.501L442.35 325.341ZM442.362 333.066L453.921 334.238L454.08 332.663L442.521 331.492L442.362 333.066ZM454.788 333.53L455.494 326.562L453.92 326.402L453.214 333.371L454.788 333.53Z" fill="white"/>
<path d="M191.662 154.405L191.238 153.737L190.57 154.162L190.995 154.829L191.662 154.405ZM211.121 142.037L211.789 141.612L211.364 140.945L210.697 141.369L211.121 142.037ZM214.213 146.901L214.637 147.569L215.305 147.145L214.881 146.477L214.213 146.901ZM200.15 155.84L199.725 155.173L199.058 155.597L199.482 156.265L200.15 155.84ZM205.322 163.978L204.654 164.402L205.079 165.07L205.746 164.645L205.322 163.978ZM217.528 156.219L218.195 155.795L217.771 155.127L217.103 155.552L217.528 156.219ZM220.536 160.951L220.96 161.619L221.628 161.195L221.203 160.527L220.536 160.951ZM208.33 168.71L207.905 168.042L207.238 168.466L207.662 169.134L208.33 168.71ZM213.642 177.068L212.975 177.492L213.399 178.16L214.067 177.736L213.642 177.068ZM227.706 168.129L228.373 167.705L227.949 167.037L227.281 167.462L227.706 168.129ZM230.798 172.994L231.222 173.661L231.89 173.237L231.466 172.569L230.798 172.994ZM211.339 185.362L210.672 185.787L211.096 186.454L211.764 186.03L211.339 185.362ZM192.087 155.073L211.545 142.704L210.697 141.369L191.238 153.737L192.087 155.073ZM210.453 142.461L213.545 147.326L214.881 146.477L211.789 141.612L210.453 142.461ZM213.789 146.234L199.725 155.173L200.574 156.508L214.637 147.569L213.789 146.234ZM199.482 156.265L204.654 164.402L205.99 163.553L200.817 155.416L199.482 156.265ZM205.746 164.645L217.952 156.887L217.103 155.552L204.898 163.31L205.746 164.645ZM216.86 156.644L219.868 161.376L221.203 160.527L218.195 155.795L216.86 156.644ZM220.111 160.284L207.905 168.042L208.754 169.377L220.96 161.619L220.111 160.284ZM207.662 169.134L212.975 177.492L214.31 176.644L208.997 168.285L207.662 169.134ZM214.067 177.736L228.13 168.797L227.281 167.462L213.218 176.4L214.067 177.736ZM227.038 168.553L230.13 173.418L231.466 172.569L228.373 167.705L227.038 168.553ZM230.374 172.326L210.915 184.695L211.764 186.03L231.222 173.661L230.374 172.326ZM212.007 184.938L192.33 153.981L190.995 154.829L210.672 185.787L212.007 184.938Z" fill="white"/>
<path d="M262.565 160.952L262.074 161.573L262.404 161.834L262.805 161.706L262.565 160.952ZM249.716 150.794L250.207 150.173L249.288 149.447L248.957 150.57L249.716 150.794ZM245.085 166.505L245.325 167.259L245.725 167.132L245.844 166.729L245.085 166.505ZM237.893 168.79L237.134 168.568L236.717 169.994L238.133 169.544L237.893 168.79ZM244.197 147.269L244.957 147.491L245.106 146.982L244.692 146.651L244.197 147.269ZM227.237 133.688L226.998 132.934L225.589 133.381L226.743 134.305L227.237 133.688ZM234.479 131.387L234.974 130.77L234.643 130.505L234.239 130.633L234.479 131.387ZM246.654 141.155L246.159 141.772L247.086 142.516L247.414 141.373L246.654 141.155ZM250.96 126.151L250.72 125.397L250.316 125.526L250.199 125.933L250.96 126.151ZM258.151 123.867L258.912 124.086L259.321 122.665L257.912 123.113L258.151 123.867ZM252.191 144.564L251.43 144.345L251.285 144.85L251.694 145.18L252.191 144.564ZM269.707 158.684L269.946 159.438L271.35 158.992L270.203 158.068L269.707 158.684ZM263.056 160.332L250.207 150.173L249.225 151.414L262.074 161.573L263.056 160.332ZM248.957 150.57L244.326 166.282L245.844 166.729L250.475 151.017L248.957 150.57ZM244.846 165.751L237.654 168.036L238.133 169.544L245.325 167.259L244.846 165.751ZM238.653 169.012L244.957 147.491L243.438 147.046L237.134 168.568L238.653 169.012ZM244.692 146.651L227.731 133.07L226.743 134.305L243.703 147.886L244.692 146.651ZM227.477 134.441L234.718 132.141L234.239 130.633L226.998 132.934L227.477 134.441ZM233.984 132.004L246.159 141.772L247.149 140.538L234.974 130.77L233.984 132.004ZM247.414 141.373L251.72 126.37L250.199 125.933L245.894 140.937L247.414 141.373ZM251.199 126.905L258.391 124.621L257.912 123.113L250.72 125.397L251.199 126.905ZM257.391 123.648L251.43 144.345L252.951 144.783L258.912 124.086L257.391 123.648ZM251.694 145.18L269.21 159.3L270.203 158.068L252.687 143.948L251.694 145.18ZM269.467 157.93L262.326 160.199L262.805 161.706L269.946 159.438L269.467 157.93Z" fill="white"/>
<path d="M277.788 120.746L277.754 119.955L276.964 119.989L276.998 120.779L277.788 120.746ZM299.954 122.738L299.478 123.369L299.483 123.374L299.954 122.738ZM302.434 137.843L301.752 137.442L301.75 137.445L302.434 137.843ZM298.151 141.959L298.519 142.659L298.151 141.959ZM285.17 143.823L285.137 143.033L284.346 143.067L284.38 143.857L285.17 143.823ZM285.737 157.121L285.771 157.912L286.561 157.878L286.528 157.088L285.737 157.121ZM279.35 157.394L278.56 157.427L278.593 158.218L279.384 158.184L279.35 157.394ZM296.007 135.966L296.59 136.501L296.007 135.966ZM295.589 127.382L295.063 127.973L295.073 127.982L295.082 127.99L295.589 127.382ZM284.421 126.232L284.387 125.442L283.597 125.476L283.63 126.266L284.421 126.232ZM284.925 138.064L284.135 138.098L284.168 138.888L284.959 138.855L284.925 138.064ZM277.822 121.536L290.91 120.978L290.843 119.397L277.754 119.955L277.822 121.536ZM290.91 120.978C294.355 120.831 297.192 121.645 299.478 123.369L300.431 122.106C297.803 120.124 294.589 119.238 290.843 119.397L290.91 120.978ZM299.483 123.374C301.697 125.013 302.936 127.605 303.094 131.311L304.675 131.243C304.503 127.2 303.122 124.1 300.425 122.102L299.483 123.374ZM303.094 131.311C303.198 133.737 302.736 135.768 301.752 137.442L303.116 138.244C304.283 136.259 304.789 133.913 304.675 131.243L303.094 131.311ZM301.75 137.445C300.781 139.111 299.462 140.377 297.783 141.258L298.519 142.659C300.465 141.638 302.001 140.16 303.118 138.24L301.75 137.445ZM297.783 141.258C296.08 142.153 294.207 142.646 292.152 142.734L292.22 144.315C294.493 144.218 296.597 143.668 298.519 142.659L297.783 141.258ZM292.152 142.734L285.137 143.033L285.204 144.614L292.22 144.315L292.152 142.734ZM284.38 143.857L284.947 157.155L286.528 157.088L285.961 143.79L284.38 143.857ZM285.704 156.331L279.316 156.603L279.384 158.184L285.771 157.912L285.704 156.331ZM280.14 157.36L278.578 120.712L276.998 120.779L278.56 157.427L280.14 157.36ZM291.189 138.589C293.505 138.49 295.36 137.841 296.59 136.501L295.425 135.431C294.583 136.348 293.203 136.92 291.121 137.009L291.189 138.589ZM296.59 136.501C297.82 135.162 298.371 133.476 298.288 131.516L296.707 131.583C296.775 133.182 296.334 134.441 295.425 135.431L296.59 136.501ZM298.288 131.516C298.204 129.548 297.489 127.937 296.096 126.775L295.082 127.99C296.082 128.824 296.639 129.99 296.707 131.583L298.288 131.516ZM296.115 126.791C294.747 125.574 292.853 125.081 290.565 125.179L290.632 126.759C292.672 126.672 294.105 127.121 295.063 127.973L296.115 126.791ZM290.565 125.179L284.387 125.442L284.454 127.023L290.632 126.759L290.565 125.179ZM283.63 126.266L284.135 138.098L285.715 138.031L285.211 126.199L283.63 126.266ZM284.959 138.855L291.189 138.589L291.121 137.009L284.891 137.274L284.959 138.855Z" fill="white"/>
<path d="M322.675 121.267L322.83 120.492L322.054 120.336L321.899 121.112L322.675 121.267ZM345.282 125.798L346.058 125.953L346.213 125.178L345.437 125.022L345.282 125.798ZM344.149 131.45L343.994 132.225L344.77 132.381L344.925 131.605L344.149 131.45ZM327.81 128.175L327.966 127.4L327.19 127.244L327.035 128.02L327.81 128.175ZM325.916 137.629L325.14 137.474L324.985 138.25L325.76 138.405L325.916 137.629ZM340.097 140.471L340.872 140.627L341.028 139.851L340.252 139.696L340.097 140.471ZM338.995 145.969L338.84 146.745L339.615 146.9L339.771 146.124L338.995 145.969ZM324.814 143.127L324.969 142.351L324.194 142.196L324.038 142.972L324.814 143.127ZM322.868 152.838L322.092 152.683L321.937 153.458L322.712 153.614L322.868 152.838ZM339.207 156.112L339.983 156.268L340.138 155.492L339.362 155.337L339.207 156.112ZM338.074 161.764L337.919 162.54L338.694 162.695L338.85 161.92L338.074 161.764ZM315.467 157.234L314.691 157.078L314.536 157.854L315.311 158.009L315.467 157.234ZM322.519 122.043L345.127 126.574L345.437 125.022L322.83 120.492L322.519 122.043ZM344.506 125.642L343.374 131.294L344.925 131.605L346.058 125.953L344.506 125.642ZM344.305 130.674L327.966 127.4L327.655 128.951L343.994 132.225L344.305 130.674ZM327.035 128.02L325.14 137.474L326.691 137.785L328.586 128.331L327.035 128.02ZM325.76 138.405L339.941 141.247L340.252 139.696L326.071 136.854L325.76 138.405ZM339.321 140.316L338.219 145.814L339.771 146.124L340.872 140.627L339.321 140.316ZM339.15 145.193L324.969 142.351L324.659 143.903L338.84 146.745L339.15 145.193ZM324.038 142.972L322.092 152.683L323.644 152.993L325.59 143.283L324.038 142.972ZM322.712 153.614L339.051 156.888L339.362 155.337L323.023 152.062L322.712 153.614ZM338.431 155.957L337.299 161.609L338.85 161.92L339.983 156.268L338.431 155.957ZM338.23 160.989L315.622 156.458L315.311 158.009L337.919 162.54L338.23 160.989ZM316.242 157.389L323.45 121.423L321.899 121.112L314.691 157.078L316.242 157.389Z" fill="white"/>
<path d="M364.135 131.859L364.473 131.144L363.758 130.806L363.42 131.521L364.135 131.859ZM381.486 141.626L382.116 141.147L381.486 141.626ZM383.502 146.926L382.712 146.969L382.713 146.979L382.714 146.989L383.502 146.926ZM377.649 157.838L377.286 157.135L377.277 157.139L377.649 157.838ZM371.416 159.007L371.51 158.221L370.551 158.106L370.627 159.07L371.416 159.007ZM372.811 176.533L372.473 177.248L373.708 177.832L373.6 176.47L372.811 176.533ZM366.415 173.51L365.626 173.563L365.657 174.027L366.077 174.225L366.415 173.51ZM365.303 157.103L366.092 157.049L366.061 156.586L365.641 156.387L365.303 157.103ZM360.376 154.774L360.714 154.058L359.998 153.72L359.66 154.436L360.376 154.774ZM354.24 167.755L353.902 168.47L354.617 168.808L354.955 168.093L354.24 167.755ZM348.46 165.023L347.745 164.685L347.407 165.4L348.122 165.738L348.46 165.023ZM373.348 153.081L373.589 153.834L373.589 153.834L373.348 153.081ZM376.774 145.832L376.044 146.136L376.046 146.143L376.049 146.149L376.774 145.832ZM367.452 139.803L367.79 139.088L367.075 138.75L366.737 139.465L367.452 139.803ZM362.772 149.704L362.056 149.366L361.718 150.082L362.434 150.42L362.772 149.704ZM363.797 132.575L375.926 138.307L376.602 136.877L364.473 131.144L363.797 132.575ZM375.926 138.307C378.077 139.325 379.709 140.596 380.857 142.105L382.116 141.147C380.785 139.398 378.935 137.98 376.602 136.877L375.926 138.307ZM380.857 142.105C382.008 143.618 382.617 145.235 382.712 146.969L384.292 146.882C384.178 144.808 383.444 142.892 382.116 141.147L380.857 142.105ZM382.714 146.989C382.853 148.727 382.519 150.464 381.692 152.214L383.123 152.89C384.057 150.913 384.454 148.9 384.291 146.863L382.714 146.989ZM381.692 152.214C380.57 154.589 379.092 156.203 377.286 157.135L378.011 158.541C380.192 157.416 381.887 155.505 383.123 152.89L381.692 152.214ZM377.277 157.139C375.458 158.107 373.542 158.466 371.51 158.221L371.321 159.792C373.677 160.076 375.917 159.655 378.02 158.536L377.277 157.139ZM370.627 159.07L372.023 176.596L373.6 176.47L372.204 158.944L370.627 159.07ZM373.149 175.818L366.753 172.795L366.077 174.225L372.473 177.248L373.149 175.818ZM367.205 173.456L366.092 157.049L364.513 157.156L365.626 173.563L367.205 173.456ZM365.641 156.387L360.714 154.058L360.037 155.489L364.965 157.818L365.641 156.387ZM359.66 154.436L353.524 167.417L354.955 168.093L361.091 155.112L359.66 154.436ZM354.578 167.04L348.798 164.308L348.122 165.738L353.902 168.47L354.578 167.04ZM349.175 165.361L364.851 132.197L363.42 131.521L347.745 164.685L349.175 165.361ZM368.403 153.241C370.231 154.105 371.978 154.349 373.589 153.834L373.107 152.327C371.986 152.685 370.662 152.559 369.079 151.811L368.403 153.241ZM373.589 153.834C375.238 153.305 376.459 152.15 377.256 150.465L375.825 149.789C375.189 151.135 374.281 151.95 373.106 152.327L373.589 153.834ZM377.256 150.465C378.065 148.754 378.184 147.08 377.499 145.515L376.049 146.149C376.516 147.215 376.48 148.404 375.825 149.789L377.256 150.465ZM377.504 145.528C376.847 143.949 375.522 142.742 373.665 141.864L372.989 143.295C374.606 144.059 375.579 145.021 376.044 146.136L377.504 145.528ZM373.665 141.864L367.79 139.088L367.114 140.518L372.989 143.295L373.665 141.864ZM366.737 139.465L362.056 149.366L363.487 150.043L368.167 140.141L366.737 139.465ZM362.434 150.42L368.403 153.241L369.079 151.811L363.11 148.989L362.434 150.42Z" fill="white"/>
<path d="M406.249 163.072L406.86 163.575L407.362 162.964L406.752 162.461L406.249 163.072ZM398.078 156.343L397.467 155.84L396.964 156.451L397.575 156.953L398.078 156.343ZM401.842 151.772L402.345 151.161L401.735 150.658L401.232 151.269L401.842 151.772ZM423.119 169.295L423.73 169.798L424.233 169.187L423.622 168.684L423.119 169.295ZM419.355 173.866L418.852 174.476L419.462 174.979L419.965 174.368L419.355 173.866ZM411.184 167.136L411.687 166.526L411.076 166.023L410.573 166.633L411.184 167.136ZM391.629 190.88L391.126 191.491L391.737 191.994L392.24 191.383L391.629 190.88ZM386.694 186.816L386.083 186.313L385.581 186.924L386.191 187.427L386.694 186.816ZM406.752 162.461L398.581 155.732L397.575 156.953L405.746 163.683L406.752 162.461ZM398.689 156.846L402.453 152.275L401.232 151.269L397.467 155.84L398.689 156.846ZM401.34 152.383L422.616 169.905L423.622 168.684L402.345 151.161L401.34 152.383ZM422.508 168.792L418.744 173.363L419.965 174.368L423.73 169.798L422.508 168.792ZM419.858 173.255L411.687 166.526L410.681 167.747L418.852 174.476L419.858 173.255ZM410.573 166.633L391.018 190.378L392.24 191.383L411.794 167.639L410.573 166.633ZM392.132 190.27L387.197 186.206L386.191 187.427L391.126 191.491L392.132 190.27ZM387.305 187.319L406.86 163.575L405.638 162.569L386.083 186.313L387.305 187.319Z" fill="white"/>
<path fill-rule="evenodd" clip-rule="evenodd" d="M284.679 221.616V222.334C284.679 222.485 284.677 222.636 284.674 222.784C284.599 226.026 283.707 228.801 282.079 230.89C282.01 230.978 281.94 231.065 281.868 231.15C281.798 231.236 281.725 231.321 281.651 231.403C281.532 231.538 281.41 231.669 281.284 231.797C279.154 233.956 276.126 235.097 272.529 235.097C268.932 235.097 265.856 233.873 263.507 231.652C261.109 229.385 259.789 226.228 259.789 222.759C259.789 219.291 261.122 215.973 263.544 213.678C265.914 211.431 269.176 210.193 272.726 210.193H272.796C272.796 210.193 272.797 210.194 272.797 210.194L273.003 210.196C273.135 210.198 273.265 210.202 273.396 210.208C273.405 210.208 273.414 210.209 273.423 210.209C273.533 210.214 273.642 210.22 273.751 210.227C273.813 210.231 273.875 210.236 273.937 210.24C274.019 210.247 274.101 210.253 274.183 210.261C274.278 210.271 274.373 210.28 274.467 210.291C274.58 210.304 274.692 210.318 274.803 210.333C274.873 210.343 274.942 210.353 275.012 210.364C275.027 210.366 275.043 210.368 275.058 210.371C275.074 210.373 275.089 210.376 275.105 210.378C275.205 210.393 275.304 210.41 275.403 210.429C275.44 210.436 275.475 210.442 275.511 210.449C275.543 210.455 275.575 210.461 275.607 210.468L275.616 210.47C275.623 210.471 275.629 210.472 275.636 210.474C275.642 210.474 275.648 210.476 275.653 210.477L275.669 210.48C275.675 210.482 275.682 210.483 275.688 210.484L275.696 210.486C275.699 210.486 275.702 210.487 275.705 210.488L275.725 210.492L275.753 210.498C275.782 210.504 275.812 210.51 275.842 210.517C275.843 210.517 275.844 210.517 275.845 210.517C275.846 210.518 275.847 210.518 275.848 210.518L275.875 210.524C275.884 210.526 275.893 210.528 275.901 210.529C275.904 210.53 275.908 210.531 275.911 210.532L275.912 210.532C275.913 210.532 275.914 210.532 275.915 210.533C275.916 210.533 275.916 210.533 275.917 210.533L275.917 210.533C275.953 210.541 275.99 210.549 276.026 210.558C276.073 210.568 276.119 210.579 276.165 210.591L276.219 210.604L276.273 210.617C276.276 210.618 276.28 210.619 276.283 210.62C276.286 210.62 276.289 210.621 276.293 210.622L276.332 210.632L276.339 210.634L276.346 210.635L276.43 210.657L276.468 210.667C276.476 210.67 276.484 210.672 276.492 210.674C276.532 210.684 276.573 210.696 276.613 210.707C276.788 210.756 276.961 210.808 277.133 210.863L277.2 210.885L277.224 210.893H277.226C277.235 210.896 277.243 210.899 277.252 210.902C277.255 210.903 277.257 210.904 277.259 210.904C277.261 210.905 277.263 210.906 277.266 210.907L277.278 210.911L277.306 210.921C277.343 210.932 277.378 210.944 277.414 210.958L277.419 210.959C277.423 210.961 277.426 210.962 277.43 210.963C277.443 210.967 277.454 210.971 277.467 210.976C277.482 210.981 277.497 210.987 277.513 210.992C277.519 210.994 277.526 210.996 277.532 210.999L277.559 211.009C277.579 211.016 277.598 211.023 277.618 211.031C277.631 211.035 277.645 211.04 277.658 211.045C277.664 211.047 277.67 211.05 277.676 211.052L277.676 211.052L277.687 211.056C277.695 211.058 277.703 211.062 277.711 211.065L277.711 211.065C277.73 211.072 277.75 211.08 277.769 211.088C277.771 211.088 277.772 211.088 277.773 211.089C277.775 211.089 277.775 211.089 277.777 211.09C277.786 211.094 277.795 211.097 277.804 211.101C277.813 211.104 277.822 211.108 277.831 211.111C277.861 211.122 277.89 211.134 277.921 211.147L277.922 211.148L277.924 211.148C277.955 211.16 277.986 211.173 278.016 211.185C278.027 211.189 278.038 211.193 278.047 211.198C278.086 211.213 278.123 211.229 278.161 211.245L278.166 211.248L278.172 211.25C278.194 211.259 278.217 211.268 278.239 211.278C278.241 211.279 278.243 211.28 278.245 211.281C278.247 211.281 278.249 211.282 278.251 211.283L278.251 211.283C278.26 211.287 278.268 211.291 278.276 211.294C278.394 211.345 278.51 211.398 278.625 211.452L278.644 211.461L278.644 211.461C278.655 211.467 278.666 211.472 278.678 211.478C278.697 211.486 278.716 211.495 278.735 211.505L278.735 211.505H278.736C278.743 211.509 278.751 211.513 278.758 211.516C278.787 211.53 278.816 211.544 278.844 211.558C278.854 211.563 278.863 211.567 278.872 211.572C278.882 211.577 278.891 211.582 278.901 211.586L278.921 211.596C278.924 211.598 278.926 211.599 278.929 211.601C278.932 211.602 278.935 211.604 278.938 211.605L278.943 211.607C278.946 211.609 278.949 211.61 278.952 211.612L278.952 211.612L278.952 211.612C279.015 211.645 279.078 211.677 279.14 211.71C279.183 211.732 279.224 211.755 279.267 211.778L279.405 211.855C279.52 211.92 279.634 211.987 279.747 212.056C279.86 212.124 279.971 212.195 280.082 212.267C280.085 212.269 280.088 212.271 280.091 212.274C280.164 212.322 280.236 212.37 280.307 212.419C280.381 212.469 280.453 212.521 280.525 212.573C280.667 212.676 280.807 212.783 280.945 212.892C280.946 212.893 280.947 212.894 280.948 212.894C281.272 213.152 281.583 213.427 281.881 213.72C280.588 215.098 279.636 216.749 279.064 218.571C278.961 218.432 278.848 218.278 278.724 218.112C278.724 218.112 278.724 218.112 278.724 218.112C278.724 218.112 278.724 218.112 278.724 218.112C278.681 218.053 278.639 217.997 278.595 217.941C278.579 217.919 278.561 217.897 278.544 217.875L278.544 217.875L278.518 217.843L278.493 217.811L278.493 217.811C278.487 217.803 278.481 217.795 278.474 217.787C278.434 217.736 278.394 217.686 278.352 217.637C278.337 217.618 278.321 217.599 278.305 217.581C278.289 217.562 278.273 217.543 278.257 217.526C278.225 217.488 278.192 217.45 278.16 217.414L278.154 217.407C278.106 217.353 278.058 217.301 278.01 217.25L278.007 217.246C278.002 217.241 277.997 217.236 277.993 217.231L277.991 217.23L277.955 217.191L277.917 217.152L277.906 217.141L277.895 217.13C277.871 217.104 277.847 217.081 277.823 217.056L277.81 217.044L277.797 217.031C277.788 217.022 277.78 217.013 277.771 217.004L277.758 216.991L277.744 216.978L277.706 216.942L277.667 216.905L277.664 216.901L277.662 216.9C277.64 216.878 277.616 216.856 277.594 216.836C277.592 216.834 277.59 216.832 277.587 216.83C277.585 216.828 277.583 216.826 277.581 216.824C277.577 216.82 277.573 216.816 277.569 216.813L277.519 216.767C277.517 216.765 277.514 216.762 277.511 216.76C277.508 216.757 277.505 216.755 277.503 216.752C277.499 216.748 277.494 216.745 277.49 216.741C277.487 216.738 277.483 216.735 277.48 216.732L277.479 216.732C277.472 216.725 277.464 216.718 277.456 216.711C277.454 216.709 277.45 216.707 277.448 216.704C277.446 216.702 277.444 216.7 277.442 216.699C277.44 216.697 277.438 216.695 277.436 216.693C277.402 216.663 277.367 216.633 277.332 216.604C277.323 216.597 277.315 216.59 277.306 216.582C277.297 216.575 277.288 216.567 277.279 216.56L277.25 216.536L277.221 216.513L277.219 216.511C277.186 216.484 277.153 216.457 277.12 216.431C277.11 216.423 277.099 216.415 277.089 216.407C277.056 216.381 277.023 216.356 276.99 216.332C276.986 216.329 276.984 216.327 276.98 216.325L276.98 216.325L276.98 216.325C276.965 216.313 276.95 216.301 276.934 216.29C276.933 216.289 276.931 216.288 276.929 216.287C276.92 216.28 276.91 216.272 276.9 216.266C276.9 216.265 276.9 216.265 276.899 216.265C276.899 216.265 276.899 216.265 276.899 216.265C276.899 216.265 276.899 216.265 276.898 216.264L276.891 216.259C276.871 216.245 276.851 216.23 276.832 216.217C276.82 216.208 276.808 216.2 276.796 216.192C276.768 216.172 276.74 216.153 276.712 216.134L276.712 216.134L276.711 216.134C276.676 216.11 276.641 216.086 276.605 216.063L276.599 216.059C276.594 216.056 276.588 216.052 276.583 216.049C276.578 216.045 276.572 216.042 276.567 216.038L276.53 216.015L276.518 216.007L276.506 216L276.478 215.983L276.451 215.966L276.423 215.949L276.395 215.933L276.395 215.932L276.395 215.932C276.36 215.911 276.325 215.89 276.289 215.87C276.274 215.861 276.258 215.852 276.243 215.843C276.214 215.827 276.184 215.811 276.155 215.795C276.15 215.792 276.145 215.789 276.139 215.786C276.101 215.766 276.063 215.745 276.025 215.726L276.004 215.715C275.987 215.706 275.97 215.697 275.952 215.688L275.899 215.663C275.878 215.652 275.857 215.641 275.835 215.632L275.817 215.623C275.802 215.616 275.787 215.608 275.771 215.602C275.764 215.598 275.757 215.595 275.75 215.591L275.644 215.544C275.603 215.525 275.56 215.508 275.518 215.49L275.518 215.49L275.518 215.49C275.475 215.472 275.432 215.455 275.389 215.438L275.389 215.438C275.362 215.428 275.335 215.417 275.307 215.407C275.272 215.393 275.237 215.381 275.201 215.368C275.195 215.366 275.189 215.364 275.182 215.362L275.182 215.362C275.173 215.358 275.164 215.355 275.155 215.352L275.155 215.352L275.142 215.348C275.13 215.344 275.119 215.34 275.108 215.336C275.096 215.332 275.083 215.328 275.071 215.323C275.059 215.319 275.046 215.315 275.034 215.311L275.016 215.305C275.012 215.304 275.007 215.302 275.002 215.301C274.998 215.299 274.993 215.298 274.988 215.296C274.943 215.282 274.897 215.268 274.852 215.255C274.805 215.241 274.758 215.228 274.711 215.215C274.651 215.198 274.591 215.183 274.53 215.169C274.47 215.153 274.409 215.139 274.347 215.127C274.286 215.114 274.225 215.102 274.163 215.09C274.102 215.078 274.039 215.067 273.977 215.057C273.919 215.048 273.861 215.04 273.803 215.032L273.773 215.028C273.715 215.021 273.657 215.014 273.598 215.008C273.577 215.005 273.555 215.003 273.533 215.001L273.533 215.001C273.447 214.993 273.361 214.986 273.274 214.981C273.117 214.972 272.958 214.966 272.798 214.966H272.791C270.702 214.966 268.806 215.768 267.452 217.223C266.119 218.655 265.385 220.632 265.385 222.792C265.385 224.951 266.146 226.856 267.527 228.316C268.89 229.757 270.689 230.551 272.594 230.551C274.137 230.551 275.525 230.106 276.609 229.263C277.657 228.448 278.347 227.297 278.555 226.019L278.559 225.993V225.604H273.053V221.616H284.679V221.616ZM292.69 221.617V225.605H297.866V225.994L297.862 226.02C297.655 227.298 296.964 228.449 295.917 229.263C294.833 230.107 293.444 230.552 291.902 230.552C289.997 230.552 288.197 229.758 286.835 228.317C286.04 227.477 285.451 226.471 285.094 225.368C284.7 227.706 283.834 229.742 282.534 231.378C282.626 231.472 282.719 231.563 282.814 231.652C285.163 233.874 288.367 235.097 291.837 235.097C299.331 235.097 303.987 230.206 303.987 222.335V221.617H292.69ZM297.861 217.886L302.622 215.406C301.428 213.727 299.917 212.428 298.123 211.542C296.312 210.647 294.264 210.193 292.033 210.193C288.484 210.193 285.223 211.431 282.852 213.678C282.835 213.695 282.817 213.711 282.8 213.727C282.721 213.803 282.644 213.88 282.567 213.957C282.49 214.036 282.413 214.116 282.339 214.196C281.018 215.614 280.074 217.335 279.558 219.241C279.52 219.377 279.485 219.515 279.453 219.654C279.419 219.796 279.387 219.94 279.359 220.085C279.301 220.372 279.253 220.663 279.214 220.956H284.878C285.173 219.525 285.816 218.238 286.759 217.224C288.115 215.768 290.011 214.967 292.099 214.967C294.416 214.967 296.353 215.949 297.861 217.886Z" fill="white"/>
<path d="M331.277 235.24C325.594 235.24 321.702 232.106 321.427 227.008H325.663C325.904 229.798 328.074 231.486 331.277 231.486C334.239 231.486 336.099 230.005 336.099 227.732C336.099 225.493 334.274 224.115 331.243 224.115H327.489V220.705H331.243C333.688 220.705 335.169 219.155 335.169 217.261C335.169 215.263 333.551 213.782 331.14 213.782C328.694 213.782 326.834 215.332 326.524 217.709H322.253C322.736 213.093 326.318 210.062 331.277 210.062C335.962 210.062 339.303 212.749 339.303 216.503C339.303 219.362 337.339 221.566 334.446 222.186C337.994 222.841 340.129 225.114 340.129 228.317C340.129 232.416 336.616 235.24 331.277 235.24Z" fill="white"/>
<path d="M321.108 217.399C321.108 225.355 310.328 225.355 309.329 230.969H320.661V234.689H304.645V232.416C304.645 223.185 316.906 223.633 316.906 217.537C316.906 215.298 315.357 213.782 312.98 213.782C310.466 213.782 308.502 215.47 308.434 218.57H304.094C304.473 213.128 308.192 210.062 313.049 210.062C317.871 210.062 321.108 213.025 321.108 217.399Z" fill="white"/>
<path d="M158.324 292.242H151.773V266.58L140.837 292.242H136.181L125.299 266.743L125.245 292.242H118.694V254.345H126.112L138.509 283.363L150.907 254.345H158.324V292.242ZM171.958 293C170.262 293 168.71 292.657 167.302 291.971C165.895 291.286 164.776 290.311 163.946 289.048C163.116 287.785 162.701 286.323 162.701 284.663C162.701 282.389 163.477 280.476 165.028 278.924C166.617 277.336 169.396 276.271 173.366 275.73L179.159 274.918V274.593C179.159 271.308 177.498 269.666 174.178 269.666C172.518 269.666 171.254 270.045 170.388 270.803C169.558 271.525 169.035 272.608 168.818 274.052L163.079 272.644C163.837 269.901 165.119 267.862 166.923 266.526C168.728 265.155 171.218 264.469 174.395 264.469C177.643 264.469 180.332 265.317 182.461 267.013C184.591 268.674 185.655 271.164 185.655 274.485V292.242H180.187L179.484 289.806C177.968 291.935 175.459 293 171.958 293ZM173.691 287.749C175.243 287.749 176.542 287.316 177.589 286.449C178.635 285.547 179.159 284.32 179.159 282.768V279.628L173.799 280.44C172.103 280.693 170.857 281.126 170.063 281.739C169.305 282.317 168.926 283.165 168.926 284.284C168.926 285.33 169.342 286.179 170.172 286.828C171.038 287.442 172.211 287.749 173.691 287.749ZM200.098 293C197.896 293 196.073 292.314 194.63 290.943C193.186 289.535 192.464 287.55 192.464 284.988V270.911H187.808V265.227H192.464V258.189H198.961V265.227H205.837V270.911H198.961V284.067C198.961 285.98 199.809 286.937 201.505 286.937C202.48 286.937 203.31 286.63 203.996 286.016L206.703 290.618C206.197 291.232 205.385 291.773 204.267 292.242C203.148 292.747 201.758 293 200.098 293ZM233.381 292.242H228.021L227.1 288.994C225.079 291.665 222.336 293 218.871 293C212.411 293 209.18 289.174 209.18 281.523V265.227H215.677V280.656C215.677 282.93 216.128 284.554 217.031 285.529C217.969 286.467 219.268 286.937 220.929 286.937C222.661 286.937 224.087 286.341 225.206 285.15C226.324 283.923 226.884 282.208 226.884 280.007V265.227H233.381V292.242ZM238.274 265.227H243.634L244.554 268.367C245.204 267.248 246.106 266.328 247.261 265.606C248.416 264.848 249.787 264.469 251.375 264.469C252.386 264.469 253.288 264.595 254.082 264.848C254.876 265.101 255.526 265.407 256.031 265.768L253.703 271.453C253.379 271.2 252.927 270.984 252.35 270.803C251.808 270.623 251.177 270.532 250.455 270.532C248.831 270.532 247.477 271.164 246.395 272.427C245.312 273.655 244.77 275.351 244.77 277.516V292.242H238.274V265.227ZM261.617 280.873C261.725 282.028 262.104 283.129 262.753 284.175C263.403 285.222 264.269 286.07 265.352 286.72C266.471 287.334 267.716 287.64 269.088 287.64C270.82 287.64 272.246 287.225 273.365 286.395C274.52 285.565 275.296 284.609 275.693 283.526L281.161 285.204C280.331 287.514 278.887 289.391 276.83 290.835C274.808 292.278 272.228 293 269.088 293C266.525 293 264.197 292.387 262.104 291.159C260.046 289.932 258.404 288.236 257.177 286.07C255.986 283.905 255.391 281.451 255.391 278.707C255.391 276.037 255.986 273.618 257.177 271.453C258.404 269.287 260.046 267.591 262.104 266.364C264.197 265.101 266.507 264.469 269.034 264.469C271.596 264.469 273.834 265.064 275.747 266.256C277.696 267.41 279.194 269.035 280.24 271.128C281.287 273.221 281.81 275.64 281.81 278.383V280.873H261.617ZM276.072 275.892C275.999 274.99 275.693 274.07 275.151 273.131C274.61 272.193 273.816 271.417 272.769 270.803C271.759 270.154 270.531 269.829 269.088 269.829C267.03 269.829 265.352 270.424 264.053 271.615C262.79 272.77 261.995 274.196 261.671 275.892H276.072ZM299.77 254.345H313.683C317.473 254.345 320.36 255.265 322.346 257.106C324.367 258.947 325.377 261.401 325.377 264.469C325.377 268.078 323.789 270.731 320.613 272.427V272.536C322.237 273.077 323.645 274.07 324.836 275.513C326.063 276.921 326.677 278.852 326.677 281.306C326.677 283.472 326.153 285.385 325.107 287.045C324.096 288.705 322.634 289.986 320.721 290.889C318.845 291.791 316.661 292.242 314.171 292.242H299.77V254.345ZM313.467 270.208C315.271 270.208 316.625 269.757 317.527 268.854C318.466 267.952 318.935 266.689 318.935 265.064C318.935 263.476 318.448 262.267 317.473 261.437C316.535 260.571 315.199 260.138 313.467 260.138H306.375V270.208H313.467ZM314.116 286.449C316.102 286.449 317.581 285.962 318.556 284.988C319.566 283.977 320.072 282.678 320.072 281.09C320.072 279.465 319.566 278.166 318.556 277.192C317.545 276.181 315.993 275.676 313.9 275.676H306.375V286.449H314.116ZM354.685 292.242H349.326L348.405 288.994C346.384 291.665 343.641 293 340.176 293C333.716 293 330.485 289.174 330.485 281.523V265.227H336.982V280.656C336.982 282.93 337.433 284.554 338.336 285.529C339.274 286.467 340.573 286.937 342.234 286.937C343.966 286.937 345.392 286.341 346.511 285.15C347.629 283.923 348.189 282.208 348.189 280.007V265.227H354.685V292.242ZM359.795 265.227H366.292V292.242H359.795V265.227ZM362.935 261.545C361.889 261.545 360.986 261.166 360.228 260.409C359.507 259.651 359.146 258.748 359.146 257.702C359.146 256.655 359.507 255.753 360.228 254.995C360.986 254.237 361.889 253.858 362.935 253.858C363.982 253.858 364.884 254.237 365.642 254.995C366.436 255.753 366.833 256.655 366.833 257.702C366.833 258.748 366.436 259.651 365.642 260.409C364.884 261.166 363.982 261.545 362.935 261.545ZM371.384 254.345H377.88V292.242H371.384V254.345ZM394.676 293C392.222 293 389.984 292.369 387.963 291.105C385.978 289.806 384.408 288.073 383.253 285.908C382.134 283.706 381.574 281.306 381.574 278.707C381.574 276.073 382.134 273.673 383.253 271.507C384.371 269.341 385.923 267.627 387.909 266.364C389.894 265.101 392.131 264.469 394.622 264.469C396.535 264.469 398.195 264.83 399.603 265.552C401.046 266.274 402.183 267.176 403.013 268.259V254.345H409.51V292.242H404.15L403.284 288.94C402.454 290.059 401.317 291.015 399.873 291.809C398.43 292.603 396.697 293 394.676 293ZM395.596 287.153C397.762 287.153 399.548 286.359 400.956 284.771C402.364 283.183 403.067 281.162 403.067 278.707C403.067 276.253 402.364 274.25 400.956 272.698C399.548 271.11 397.762 270.316 395.596 270.316C394.189 270.316 392.907 270.677 391.752 271.399C390.597 272.121 389.695 273.131 389.045 274.43C388.396 275.694 388.071 277.119 388.071 278.707C388.071 280.332 388.396 281.793 389.045 283.093C389.695 284.356 390.597 285.349 391.752 286.07C392.907 286.792 394.189 287.153 395.596 287.153ZM419.431 280.873C419.54 282.028 419.919 283.129 420.568 284.175C421.218 285.222 422.084 286.07 423.167 286.72C424.286 287.334 425.531 287.64 426.903 287.64C428.635 287.64 430.061 287.225 431.18 286.395C432.334 285.565 433.11 284.609 433.507 283.526L438.976 285.204C438.145 287.514 436.702 289.391 434.644 290.835C432.623 292.278 430.043 293 426.903 293C424.34 293 422.012 292.387 419.919 291.159C417.861 289.932 416.219 288.236 414.992 286.07C413.801 283.905 413.205 281.451 413.205 278.707C413.205 276.037 413.801 273.618 414.992 271.453C416.219 269.287 417.861 267.591 419.919 266.364C422.012 265.101 424.322 264.469 426.848 264.469C429.411 264.469 431.649 265.064 433.562 266.256C435.511 267.41 437.008 269.035 438.055 271.128C439.102 273.221 439.625 275.64 439.625 278.383V280.873H419.431ZM433.886 275.892C433.814 274.99 433.507 274.07 432.966 273.131C432.425 272.193 431.631 271.417 430.584 270.803C429.573 270.154 428.346 269.829 426.903 269.829C424.845 269.829 423.167 270.424 421.868 271.615C420.604 272.77 419.81 274.196 419.486 275.892H433.886ZM443.331 265.227H448.691L449.611 268.367C450.261 267.248 451.163 266.328 452.318 265.606C453.473 264.848 454.845 264.469 456.433 264.469C457.443 264.469 458.346 264.595 459.14 264.848C459.934 265.101 460.583 265.407 461.089 265.768L458.761 271.453C458.436 271.2 457.985 270.984 457.407 270.803C456.866 270.623 456.234 270.532 455.512 270.532C453.888 270.532 452.535 271.164 451.452 272.427C450.369 273.655 449.828 275.351 449.828 277.516V292.242H443.331V265.227ZM472.29 293C469.367 293 466.931 292.296 464.982 290.889C463.033 289.445 461.715 287.46 461.029 284.933L466.768 283.093C467.598 286.088 469.439 287.586 472.29 287.586C473.77 287.586 474.943 287.316 475.809 286.774C476.676 286.233 477.109 285.475 477.109 284.5C477.109 283.742 476.748 283.111 476.026 282.605C475.34 282.064 474.041 281.631 472.128 281.306C468.807 280.693 466.245 279.79 464.44 278.599C462.672 277.372 461.787 275.477 461.787 272.915C461.787 271.363 462.202 269.955 463.033 268.692C463.899 267.392 465.126 266.364 466.714 265.606C468.302 264.848 470.161 264.469 472.29 264.469C474.997 264.469 477.235 265.155 479.004 266.526C480.808 267.862 481.999 269.757 482.577 272.211L476.892 273.835C476.242 271.2 474.709 269.883 472.29 269.883C470.847 269.883 469.746 270.154 468.988 270.695C468.23 271.236 467.851 271.886 467.851 272.644C467.851 273.51 468.266 274.16 469.096 274.593C469.962 275.026 471.352 275.423 473.265 275.784C476.549 276.361 479.022 277.3 480.682 278.599C482.378 279.899 483.226 281.829 483.226 284.392C483.226 286.016 482.775 287.478 481.873 288.777C480.971 290.077 479.689 291.105 478.029 291.863C476.369 292.621 474.456 293 472.29 293ZM199.486 303.418H209.295C211.109 303.418 212.68 303.763 214.009 304.453C215.337 305.143 216.333 306.101 216.998 307.327C217.687 308.528 218.032 309.882 218.032 311.389C218.032 313.407 217.534 315.068 216.538 316.37C215.567 317.673 214.315 318.58 212.782 319.091L219.182 330.242H214.009L208.146 319.743H204.161V330.242H199.486V303.418ZM208.989 315.642C210.368 315.642 211.441 315.285 212.208 314.569C213 313.829 213.396 312.845 213.396 311.619C213.396 310.367 213 309.396 212.208 308.707C211.416 307.991 210.317 307.634 208.912 307.634H204.161V315.642H208.989ZM223.705 322.195C223.781 323.013 224.05 323.792 224.509 324.533C224.969 325.273 225.582 325.874 226.349 326.334C227.141 326.768 228.022 326.985 228.993 326.985C230.219 326.985 231.228 326.691 232.02 326.104C232.838 325.516 233.387 324.839 233.668 324.073L237.538 325.261C236.951 326.896 235.929 328.224 234.473 329.246C233.042 330.268 231.215 330.779 228.993 330.779C227.179 330.779 225.531 330.344 224.05 329.476C222.593 328.607 221.431 327.407 220.562 325.874C219.719 324.341 219.298 322.604 219.298 320.662C219.298 318.772 219.719 317.06 220.562 315.527C221.431 313.995 222.593 312.794 224.05 311.925C225.531 311.031 227.166 310.584 228.954 310.584C230.768 310.584 232.352 311.006 233.706 311.849C235.086 312.666 236.146 313.816 236.887 315.298C237.627 316.779 237.998 318.491 237.998 320.432V322.195H223.705ZM233.936 318.67C233.885 318.031 233.668 317.38 233.285 316.715C232.901 316.051 232.339 315.502 231.599 315.068C230.883 314.608 230.015 314.378 228.993 314.378C227.537 314.378 226.349 314.799 225.429 315.642C224.535 316.46 223.973 317.469 223.743 318.67H233.936ZM247.413 330.779C245.854 330.779 244.564 330.293 243.542 329.323C242.52 328.326 242.01 326.921 242.01 325.107V315.144H238.714V311.121H242.01V306.139H246.608V311.121H251.474V315.144H246.608V324.456C246.608 325.81 247.208 326.487 248.409 326.487C249.099 326.487 249.686 326.27 250.172 325.835L252.088 329.093C251.73 329.527 251.155 329.91 250.363 330.242C249.571 330.6 248.588 330.779 247.413 330.779ZM253.841 311.121H257.635L258.286 313.343C258.746 312.551 259.385 311.9 260.202 311.389C261.02 310.852 261.991 310.584 263.115 310.584C263.83 310.584 264.469 310.674 265.031 310.852C265.593 311.031 266.052 311.248 266.41 311.504L264.762 315.527C264.532 315.349 264.213 315.195 263.804 315.068C263.421 314.94 262.974 314.876 262.463 314.876C261.314 314.876 260.356 315.323 259.589 316.217C258.823 317.086 258.44 318.286 258.44 319.819V330.242H253.841V311.121ZM275.881 330.779C273.991 330.779 272.292 330.332 270.785 329.437C269.278 328.543 268.09 327.33 267.221 325.797C266.378 324.239 265.957 322.527 265.957 320.662C265.957 318.797 266.378 317.099 267.221 315.566C268.09 314.033 269.278 312.82 270.785 311.925C272.318 311.031 274.016 310.584 275.881 310.584C277.772 310.584 279.471 311.031 280.978 311.925C282.485 312.82 283.673 314.033 284.542 315.566C285.41 317.099 285.844 318.797 285.844 320.662C285.844 322.527 285.41 324.239 284.542 325.797C283.673 327.33 282.485 328.543 280.978 329.437C279.471 330.332 277.772 330.779 275.881 330.779ZM275.881 326.525C277.414 326.525 278.691 325.976 279.713 324.877C280.735 323.753 281.246 322.348 281.246 320.662C281.246 318.976 280.735 317.584 279.713 316.485C278.691 315.387 277.414 314.838 275.881 314.838C274.323 314.838 273.046 315.387 272.049 316.485C271.053 317.584 270.555 318.976 270.555 320.662C270.555 322.374 271.053 323.779 272.049 324.877C273.046 325.976 274.323 326.525 275.881 326.525ZM298.528 303.418H308.338C310.152 303.418 311.723 303.763 313.051 304.453C314.38 305.143 315.376 306.101 316.04 307.327C316.73 308.528 317.075 309.882 317.075 311.389C317.075 313.407 316.577 315.068 315.58 316.37C314.61 317.673 313.358 318.58 311.825 319.091L318.225 330.242H313.051L307.188 319.743H303.203V330.242H298.528V303.418ZM308.032 315.642C309.411 315.642 310.484 315.285 311.25 314.569C312.042 313.829 312.438 312.845 312.438 311.619C312.438 310.367 312.042 309.396 311.25 308.707C310.458 307.991 309.36 307.634 307.955 307.634H303.203V315.642H308.032ZM328.265 330.779C326.375 330.779 324.676 330.332 323.169 329.437C321.662 328.543 320.474 327.33 319.605 325.797C318.762 324.239 318.341 322.527 318.341 320.662C318.341 318.797 318.762 317.099 319.605 315.566C320.474 314.033 321.662 312.82 323.169 311.925C324.702 311.031 326.401 310.584 328.265 310.584C330.156 310.584 331.855 311.031 333.362 311.925C334.869 312.82 336.057 314.033 336.926 315.566C337.794 317.099 338.229 318.797 338.229 320.662C338.229 322.527 337.794 324.239 336.926 325.797C336.057 327.33 334.869 328.543 333.362 329.437C331.855 330.332 330.156 330.779 328.265 330.779ZM328.265 326.525C329.798 326.525 331.076 325.976 332.097 324.877C333.119 323.753 333.63 322.348 333.63 320.662C333.63 318.976 333.119 317.584 332.097 316.485C331.076 315.387 329.798 314.838 328.265 314.838C326.707 314.838 325.43 315.387 324.434 316.485C323.437 317.584 322.939 318.976 322.939 320.662C322.939 322.374 323.437 323.779 324.434 324.877C325.43 325.976 326.707 326.525 328.265 326.525ZM357.953 330.242H354.159L353.508 327.943C352.077 329.833 350.135 330.779 347.683 330.779C343.11 330.779 340.824 328.071 340.824 322.655V311.121H345.422V322.042C345.422 323.651 345.741 324.801 346.38 325.491C347.044 326.155 347.964 326.487 349.139 326.487C350.365 326.487 351.374 326.065 352.166 325.222C352.958 324.354 353.354 323.14 353.354 321.582V311.121H357.953V330.242ZM361.416 311.121H365.21L365.861 313.42C367.292 311.529 369.233 310.584 371.686 310.584C373.908 310.584 375.607 311.248 376.782 312.577C377.957 313.905 378.545 315.936 378.545 318.67V330.242H373.947V319.283C373.947 316.319 372.708 314.838 370.23 314.838C369.003 314.838 367.994 315.272 367.202 316.141C366.41 316.984 366.014 318.184 366.014 319.743V330.242H361.416V311.121ZM390.439 330.779C388.702 330.779 387.118 330.332 385.687 329.437C384.282 328.518 383.171 327.292 382.353 325.759C381.561 324.2 381.165 322.502 381.165 320.662C381.165 318.797 381.561 317.099 382.353 315.566C383.145 314.033 384.244 312.82 385.649 311.925C387.054 311.031 388.638 310.584 390.4 310.584C391.754 310.584 392.929 310.84 393.926 311.351C394.948 311.862 395.752 312.5 396.34 313.267V303.418H400.938V330.242H397.145L396.532 327.905C395.944 328.697 395.139 329.374 394.117 329.936C393.096 330.498 391.869 330.779 390.439 330.779ZM391.09 326.64C392.623 326.64 393.887 326.078 394.884 324.954C395.88 323.83 396.378 322.399 396.378 320.662C396.378 318.925 395.88 317.507 394.884 316.409C393.887 315.285 392.623 314.723 391.09 314.723C390.094 314.723 389.187 314.978 388.369 315.489C387.552 316 386.913 316.715 386.453 317.635C385.994 318.529 385.764 319.538 385.764 320.662C385.764 321.812 385.994 322.847 386.453 323.766C386.913 324.66 387.552 325.363 388.369 325.874C389.187 326.385 390.094 326.64 391.09 326.64Z" fill="white"/>
</g>
</g>
<defs>
<filter id="filter0_d_2469_8073" x="-154.861" y="-146.52" width="909.723" height="909.723" filterUnits="userSpaceOnUse" color-interpolation-filters="sRGB">
<feFlood flood-opacity="0" result="BackgroundImageFix"/>
<feColorMatrix in="SourceAlpha" type="matrix" values="0 0 0 0 0 0 0 0 0 0 0 0 0 0 0 0 0 0 127 0" result="hardAlpha"/>
<feOffset dy="8.34082"/>
<feGaussianBlur stdDeviation="108.431"/>
<feComposite in2="hardAlpha" operator="out"/>
<feColorMatrix type="matrix" values="0 0 0 0 0 0 0 0 0 0 0 0 0 0 0 0 0 0 0.25 0"/>
<feBlend mode="normal" in2="BackgroundImageFix" result="effect1_dropShadow_2469_8073"/>
<feBlend mode="normal" in="SourceGraphic" in2="effect1_dropShadow_2469_8073" result="shape"/>
</filter>
<linearGradient id="paint0_linear_2469_8073" x1="300" y1="0" x2="300" y2="600" gradientUnits="userSpaceOnUse">
<stop offset="0.345" stop-color="white"/>
<stop offset="1" stop-color="#F4FCE9" stop-opacity="0.7"/>
</linearGradient>
<clipPath id="clip0_2469_8073">
<rect width="600" height="600" fill="white"/>
</clipPath>
</defs>
</svg>
